<?xml version="1.0" standalone="no"?>
<!DOCTYPE svg PUBLIC "-//W3C//DTD SVG 1.1//EN" "http://www.w3.org/Graphics/SVG/1.1/DTD/svg11.dtd" >
<svg>
<metadata>
Created by FontForge 20120731 at Fri Jan 15 18:11:45 2021
 By www
(c) 2019, Creatype Studio Co.
</metadata>
<defs>
<font id="ThankfullyRegular" horiz-adv-x="0" >
  <font-face 
    font-family="Thankfully"
    font-weight="400"
    font-stretch="normal"
    units-per-em="1000"
    panose-1="0 0 0 0 0 0 0 0 0 0"
    ascent="800"
    descent="-200"
    x-height="228"
    cap-height="951"
    bbox="-405.579 -809.862 1261.5 1225.47"
    underline-thickness="50"
    underline-position="-100"
    unicode-range="U+000A-FB06"
  />
<missing-glyph horiz-adv-x="527" 
d="M50 700h427v-700h-427v700zM78 680l185 -309l186 309h-371zM251 350l-180 300v-601zM264 329l-185 -308h370zM276 350l181 -303v605z" />
    <glyph glyph-name="ll.liga" unicode="ll" horiz-adv-x="535" 
d="M410 -244q2 -22 -9 -32q-24 17 -33 58q-12 50 -5 125q13 127 56 323q3 11 10 50l-2 4q-5 -3 -9 -7.5t-8.5 -11.5t-6.5 -10q-105 -143 -112 -152q-26 -33 -85 -91q-40 -41 -97 -66q-28 -12 -57 -12q-38 0 -56 36q-11 23 -12 53q-3 47 12 112q19 86 64 206q125 327 246 571
q19 37 34 62q9 14 25 24q10 6 20.5 1t13.5 -16q2 -9 2 -15q-1 -21 -3 -35q-1 -7 -12 -69q-6 5 -8 9.5t-2 11.5t-0.5 8.5t-4.5 25.5q-5 -1 -8.5 -3.5t-4.5 -4.5t-2.5 -6.5t-2.5 -5.5q-72 -149 -149 -341q-99 -245 -130 -344q-19 -62 -32 -125q-2 -13 -4 -74q-1 -19 10 -29
q12 -7 34 0q43 14 75 41q44 37 69 64q117 126 234 328q9 16 19 51q55 195 102 312q12 30 61 136q7 14 20 33q9 12 19 20q16 12 31.5 4.5t16.5 -26.5q1 -20 -6 -42q-7 -27 -23 -67q-52 -135 -120 -272q-22 -46 -36 -95q-77 -274 -119 -510q-23 -124 -15 -207z" />
    <glyph glyph-name="tt.liga" unicode="tt" horiz-adv-x="450" 
d="M161 511q4 8 11.5 24.5t9.5 20.5q-13 0 -26.5 -1t-28 -3.5t-25 -4.5t-26.5 -5.5t-25 -5.5q-5 -1 -14 -2.5t-14.5 -2.5t-14 -3t-14.5 -3.5t-13.5 -3.5t-14.5 -4t-14 -4.5t-14 -6t-14 -6.5l-7 12q-1 13 4 18q14 15 26 20q52 23 77 30q23 6 148 33q3 0 41 7q1 3 4.5 9t6 11
t5.5 9q94 176 103.5 193t29.5 45q8 10 21 21q13 10 28 -1q4 -19 4 -20q-2 -27 -32 -69l-5 15l-5 -2q-38 -63 -97 -193l2 -8q23 1 95 3.5t112 3.5q13 27 13 28q54 135 90 205q15 29 28 51q6 9 18 18q11 9 24 0q14 -10 11 -26q-3 -15 -11 -33q-3 -7 -75 -165q-3 -7 -33 -73
q17 -6 18 -6q17 -2 49 -3q80 -3 139 -16q17 -4 43 -15q13 -6 12 -20q-14 -2 -38 2t-30 4q-12 1 -35.5 3.5t-34.5 2.5q-13 1 -35.5 0.5t-35.5 0.5q-43 1 -70 -4q-15 -34 -16 -36q-128 -344 -197 -578q-43 -144 -57 -239q0 -1 -0.5 -6t-1 -6.5t-2 -5.5t-3.5 -6.5t-5 -4.5l-9 9
q-13 27 -10 57q9 80 15 108q28 132 99 349q7 20 14 45l-2 10q-17 -24 -18 -25l-22 -33t-25.5 -39t-22.5 -33q-60 -85 -130 -146q-29 -25 -54 -37q-38 -20 -63.5 -3t-29.5 64q-2 28 7 69q17 74 51 155q12 27 111 252zM53 74q-6 -29 0 -47q14 -6 30 5q27 18 44 33
q55 47 100 106q112 146 217 355q18 34 23 65q-6 0 -13 -0.5t-13 -1t-12.5 -0.5t-12 -0.5t-12 -1t-12.5 -1.5q-12 -1 -38 -3.5t-39 -3.5q-6 -1 -22.5 -2.5t-27.5 -3.5t-21 -7l-5 -8q-99 -218 -154 -372q-23 -62 -32 -112z" />
    <glyph glyph-name="st.liga" unicode="st" horiz-adv-x="570" 
d="M39 46q3 -28 28 -208q5 2 9.5 5.5t6 5.5t5.5 8.5l4 6.5q11 17 42.5 63t53 79t40.5 64q57 96 282 475q1 2 4.5 8t5.5 9t3.5 9t2.5 11q-52 -3 -55 -3q-32 -4 -97 -11t-97 -11q-2 0 -42 -2q-12 23 0 29q25 12 40 15q83 17 131 24q4 1 144 16l13 3q31 49 66 123l47 94
q7 14 18 26q13 16 32 8q8 -4 12 -12.5t1 -17.5q-4 -14 -16 -40q-10 -22 -31.5 -68t-32.5 -70q-1 -2 -12 -33q12 -7 47 -5q117 8 235 2q18 -1 74 -7q28 -3 51 -19l15 -15q-15 -7 -16 -7h-23q-32 2 -67.5 2.5t-63 0.5t-68.5 -1.5t-63 -3t-69 -4t-64 -3.5q-1 0 -8 -2
q-3 -2 -5 -4.5t-3.5 -5t-3 -6t-2 -6t-2 -6.5t-2.5 -6q-65 -179 -117 -365q-72 -254 -117 -463q-3 -18 -16 -52q-7 -18 -24 -22q-9 13 -9 14q-7 19 -2 54q8 59 17 109q42 221 132 519q4 13 1 23q-20 -31 -21 -32q-12 -20 -65 -107t-81 -134q-112 -182 -222 -332
q-24 -33 -30 -71q-23 -136 -126 -238q-12 -11 -24 -20q-11 -9 -20 -13q-27 -11 -44 4q-18 15 -12 39q9 32 19 51q16 29 42 66q65 92 104 143q20 27 20 61q-1 50 -18 168q0 4 -4.5 31.5t-6.5 41.5q-3 30 -2 59q1 73 65 119q49 36 108 42q26 2 49 -10q18 -9 23.5 -25t-2.5 -34
q0 -1 -1 -4t-1.5 -3.5t-1.5 -3t-2 -3.5t-2.5 -3t-2.5 -3l-2.5 -2.5t-3.5 -2.5l-4 -2t-5 -2q1 9 2 24q0 4 0.5 11t0.5 10q-13 19 -36 15q-72 -13 -112 -66q-17 -21 -17 -47q-1 -39 1 -54zM-22 -383q-54 -70 -74 -111q39 27 68 86q1 0 6 25z" />
    <glyph glyph-name=".notdef" horiz-adv-x="527" 
d="M50 700h427v-700h-427v700zM78 680l185 -309l186 309h-371zM251 350l-180 300v-601zM264 329l-185 -308h370zM276 350l181 -303v605z" />
    <glyph glyph-name=".null" 
 />
    <glyph glyph-name=".null" 
 />
    <glyph glyph-name="nonmarkingreturn" horiz-adv-x="333" 
 />
    <glyph glyph-name="LF" unicode="&#xa;" 
 />
    <glyph glyph-name="controlCR" unicode="&#xd;" 
 />
    <glyph glyph-name="space" unicode=" " horiz-adv-x="316" 
 />
    <glyph glyph-name="exclam" unicode="!" horiz-adv-x="440" 
d="M510 1079q4 -19 0 -34q-19 -82 -32 -121q-17 -51 -51 -136q-91 -229 -251 -624q-15 -39 -31 -72q-11 -23 -27 -30q-4 18 -4 19q-2 35 13 81q35 106 55 159q25 69 92 248t103 276q11 31 22.5 65.5t25 77t21.5 65.5t13 33q8 16 26 15q21 -2 25 -22zM64 -85q52 54 120 53
l13 -6q-4 -24 -30 -41q-50 -34 -69 -62q-3 -4 -12 -9q-10 -6 -20.5 -1.5t-13.5 15.5q-8 31 12 51z" />
    <glyph glyph-name="quotedbl" unicode="&#x22;" horiz-adv-x="286" 
d="M233 839q5 -10 3 -19q-1 -4 -11 -21q-42 -75 -70 -126q-1 -1 -3 -4.5t-2.5 -4.5t-2.5 -4t-3.5 -4.5l-4 -4t-5 -3.5t-6 -2.5t-6.5 -2.5q-2 9 -2 18t1 15.5t4.5 15.5t5.5 14t6.5 14.5t6.5 13.5q26 58 40 78t37 34q11 -7 12 -7zM144 854q-1 -15 -5 -22q-16 -26 -71 -113
l-8 -5q-1 3 -4 7.5t-4.5 7.5t-1.5 6q0 17 6 31q21 46 43 87q6 10 20 17q9 5 17 -0.5t8 -15.5z" />
    <glyph glyph-name="quotedbl" unicode="&#x201d;" horiz-adv-x="286" 
d="M233 839q5 -10 3 -19q-1 -4 -11 -21q-42 -75 -70 -126q-1 -1 -3 -4.5t-2.5 -4.5t-2.5 -4t-3.5 -4.5l-4 -4t-5 -3.5t-6 -2.5t-6.5 -2.5q-2 9 -2 18t1 15.5t4.5 15.5t5.5 14t6.5 14.5t6.5 13.5q26 58 40 78t37 34q11 -7 12 -7zM144 854q-1 -15 -5 -22q-16 -26 -71 -113
l-8 -5q-1 3 -4 7.5t-4.5 7.5t-1.5 6q0 17 6 31q21 46 43 87q6 10 20 17q9 5 17 -0.5t8 -15.5z" />
    <glyph glyph-name="quotedbl" unicode="&#x201c;" horiz-adv-x="286" 
d="M233 839q5 -10 3 -19q-1 -4 -11 -21q-42 -75 -70 -126q-1 -1 -3 -4.5t-2.5 -4.5t-2.5 -4t-3.5 -4.5l-4 -4t-5 -3.5t-6 -2.5t-6.5 -2.5q-2 9 -2 18t1 15.5t4.5 15.5t5.5 14t6.5 14.5t6.5 13.5q26 58 40 78t37 34q11 -7 12 -7zM144 854q-1 -15 -5 -22q-16 -26 -71 -113
l-8 -5q-1 3 -4 7.5t-4.5 7.5t-1.5 6q0 17 6 31q21 46 43 87q6 10 20 17q9 5 17 -0.5t8 -15.5z" />
    <glyph glyph-name="numbersign" unicode="#" horiz-adv-x="603" 
d="M552 364q3 -10 -8 -16q-17 -8 -53 -11q-7 -1 -78 -8q-26 -70 -31 -83v-14q17 -3 18 -3q9 -1 28.5 -1.5t29.5 -0.5q25 -2 38 -17q-1 -12 -17 -14q-11 -1 -24 -2t-23 -2t-23.5 -2t-23.5 -2q-1 0 -23 -3q-8 -15 -14.5 -30t-14.5 -38.5t-11 -30.5q-6 -17 -17.5 -51t-17.5 -48
q-3 -9 -12.5 -45t-19.5 -54q-14 0 -14 13q2 41 5 54q12 61 54 180q11 32 11 43q-67 -5 -145 -21q-10 -28 -45 -124q-18 -3 -19 12q0 12 3 27q1 7 15 69q-3 3 -7.5 3.5t-7.5 -0.5l-7.5 -2.5t-6.5 -1.5q-4 0 -11.5 -3t-11.5 -3q-1 0 -18 8q-2 21 18 30q6 3 66 28q24 43 30 102
q-10 2 -11 2q-22 -4 -61 -12q-2 0 -4.5 -1t-5.5 -2t-5 -1q-16 -1 -20 15q0 21 26 30q16 6 67 19q3 0 35 7q11 28 11 30q39 97 52 127q10 25 23 30q17 1 16 -16q0 -12 -4 -27q-7 -23 -28 -94q-1 -3 -12 -39l18 -4q11 1 38 2t46 2.5t36 5.5q10 17 20 45t18.5 58t12.5 55
q12 5 13 4q10 -3 13 -11q7 -18 0 -51q-3 -13 -16 -60q-1 -2 -10 -33q2 -3 5 -5t4.5 -2.5t6 0t5.5 0.5q9 -1 26.5 -1h24.5q31 -1 48 -11zM334 230q21 62 28 83l-1 7q-25 3 -67 -0.5t-73 -12.5q-16 -42 -17 -46q-1 -5 -5.5 -14.5t-6.5 -18t-2 -16.5h17q62 7 101 12q1 0 26 6z
" />
    <glyph glyph-name="dollar" unicode="$" horiz-adv-x="518" 
d="M430 761q24 -8 33 -26.5t2 -42.5q-1 -2 -5 -11q-21 -48 -78 -79q-1 7 2 12.5t8 12t7 9.5q2 5 10 17.5t11 19.5q11 21 7 39q-8 7 -17.5 8t-15 -0.5t-17.5 -6.5q-11 -58 -34 -177.5t-35 -180.5q21 -31 22 -34q27 -44 37 -64q10 -18 17 -39q29 -91 -48 -145q-12 -9 -62 -33
q-2 -1 -34 -13q-8 -23 -8 -25q-3 -12 -6.5 -27.5t-6.5 -32t-6 -28.5q-4 -18 -6.5 -24t-13.5 -21q-9 0 -9 10q2 50 4 74q0 4 9 61l-24 1h-25.5t-25.5 1q-32 5 -51.5 27t-20.5 53q-1 29 7 50q38 107 139 163q3 1 15 4l5 -4q-11 -18 -11 -19q-5 -6 -47 -53q-33 -39 -50 -79
q-12 -28 -11 -49q1 -35 34 -40q34 -4 74 4q6 18 10.5 38.5t8.5 44.5t7 37q1 8 23 119q-2 7 -5 13t-9.5 13.5t-8.5 10.5q-6 9 -16.5 23t-19.5 26.5t-16 23.5q-25 37 -35 74q-18 67 15 129q35 64 105 102q4 2 76 33q7 16 13 55t17 57q0 1 8 4q7 -6 9 -13.5t1 -21t-1 -15.5
q0 -4 -4 -56q2 0 8 -1.5t9 -1.5q29 -6 30 -6zM332 182q-6 37 -41 77q-4 -10 -12 -39.5t-15 -61.5t-9 -48q0 -1 1 -15q29 6 43 18q16 12 27 28q11 14 6 41zM325 676q0 1 -1 17q-63 -26 -101 -83q-37 -55 -9 -115q16 -37 52 -83l6 7q27 129 53 257z" />
    <glyph glyph-name="percent" unicode="%" horiz-adv-x="597" 
d="M543 875q8 -14 -1 -30q-1 -3 -14 -23q-10 -16 -30.5 -48t-36 -57t-28.5 -48q-67 -118 -261 -464q-16 -28 -17 -38q7 -2 14 5q21 20 60 57t53 51q38 35 59 45q4 3 11.5 9.5t9.5 8.5q4 3 8.5 6.5t10.5 7.5l9 6q27 20 66.5 -0.5t38.5 -59.5q0 -22 -8 -38q-34 -76 -106 -104
q-12 -4 -23 -6q-53 -7 -70 46q0 1 -3 12q-10 -4 -11 -4q-34 -36 -169 -175q-27 -28 -63 -92q-1 -1 -13 -17q-14 0 -17 14q-4 15 4 43q27 86 72 177q133 266 294 531q18 29 22 41q-50 -30 -54 -32q-22 -13 -52 -29q-3 -2 -53 -27q-3 -17 -3 -19q-11 -100 -103 -152
q-29 -16 -64 -13q-23 1 -37 16t-13 38q1 22 11 41q39 84 112 139q19 13 31.5 15.5t35.5 -1.5q3 -4 9 -13l8 -12q104 51 177 115q8 6 76 68q22 21 37 23q14 0 21 -13zM189 679q-25 -13 -36 -42q37 22 41 24q6 14 -5 18zM198 604q4 13 -3 17q-7 -2 -20.5 -6t-20.5 -6
q-3 2 -20 15q-38 -46 -57 -94q0 -1 -2 -24q19 -4 20 -3q32 4 59 29q30 27 44 72zM349 246q-11 -24 -5 -38l6 -3q70 7 107 81q19 39 -27 57l-12 1q-41 -36 -69 -98z" />
    <glyph glyph-name="ampersand" unicode="&#x26;" horiz-adv-x="319" 
d="M455 937q16 -7 21 -13.5t2 -19.5q-5 -24 -14 -45q-21 -50 -63 -147q-15 -34 -34 -75q-10 -21 -17 -31q0 -1 -14 -11q-11 6 -13 22.5t-5 20.5q-20 -2 -29 -3q-3 10 8 18q45 32 65 107q-5 15 -25 16q-24 1 -48 -13q-48 -28 -72 -47q-72 -56 -116 -142q-14 -28 -17 -51
q-4 -38 33 -39q2 0 39 3q25 22 27 24q12 10 22 14t20.5 2t15.5 -10q13 -18 1 -37q-10 -15 -22 -22q-3 -2 -7 -4t-7.5 -5.5t-6 -5.5t-6.5 -6.5t-5.5 -6t-6 -7t-5 -6.5t-5 -7.5t-5.5 -6.5q-61 -83 -90 -160q-14 -37 -13 -65q3 -47 49 -42q37 3 64 16q75 38 103 87q2 2 4.5 4
t5.5 3.5t4 2.5q24 -3 23 -24q-1 -24 -5 -38q-17 -57 -40 -127q-17 -49 -36 -100q-13 -35 -30 -43q-14 2 -12 17q5 37 10 58q2 6 30 106q1 1 8 28q-6 6 -14 -1q-44 -30 -81 -39q-28 -7 -54 -8q-43 -3 -68 23.5t-29 62.5q-3 30 5 58q17 64 64 138q1 3 40 60q-21 10 -22 10
q-33 10 -48.5 38.5t-11.5 60.5q3 32 17 60q69 146 214 220q7 3 15 6q67 27 117 1l17 34q14 31 30 68q8 17 23 19z" />
    <glyph glyph-name="quotesingle" unicode="'" horiz-adv-x="181" 
d="M130 818q1 -17 -2 -26q-18 -44 -50 -115l-15 -13q-12 18 -12 19q-2 12 0 23q12 54 39 110q4 8 13 14q8 6 17.5 1.5t9.5 -13.5z" />
    <glyph glyph-name="quotesingle" unicode="&#x2019;" horiz-adv-x="181" 
d="M130 818q1 -17 -2 -26q-18 -44 -50 -115l-15 -13q-12 18 -12 19q-2 12 0 23q12 54 39 110q4 8 13 14q8 6 17.5 1.5t9.5 -13.5z" />
    <glyph glyph-name="quotesingle" unicode="&#x2018;" horiz-adv-x="181" 
d="M130 818q1 -17 -2 -26q-18 -44 -50 -115l-15 -13q-12 18 -12 19q-2 12 0 23q12 54 39 110q4 8 13 14q8 6 17.5 1.5t9.5 -13.5z" />
    <glyph glyph-name="parenleft" unicode="(" horiz-adv-x="477" 
d="M674 1014q21 -9 14 -27q-6 -5 -7 -5q-46 0 -92 -38q-22 -18 -46 -42q-26 -26 -45 -49q-188 -232 -297 -460q-64 -132 -80 -277q-8 -74 4 -136q13 -69 67 -96q1 0 5.5 -2t5.5 -3t4.5 -3t5 -4t4 -5.5t3.5 -7.5q-17 -12 -46 -10q-26 1 -47 17q-26 19 -43 50q-19 35 -28 89
q-13 81 4 195q23 152 99 296q122 232 303 417q41 42 84 70q35 24 66 32q36 10 62 -1z" />
    <glyph glyph-name="parenright" unicode=")" horiz-adv-x="547" 
d="M487 732q34 -198 -59 -404q-10 -21 -24 -45q-139 -236 -323 -395q-23 -20 -72 -54q-33 -23 -73 -26q-15 -1 -19 10q1 4 3 6.5t3.5 5t4.5 5t4.5 4t5 4t5.5 4.5q5 4 27 21.5t33 27.5q199 175 335 411q80 141 91 317q8 123 -43 236q-17 40 -35 56q-7 -1 -19 -3q-14 13 -4 31
q9 18 30 13q16 -4 28 -13q20 -15 40 -48q46 -75 61 -164z" />
    <glyph glyph-name="asterisk" unicode="*" horiz-adv-x="329" 
d="M252 713q1 0 3.5 -2t4 -3t4 -3t3.5 -3l3 -3t3 -3.5t2.5 -3.5t2.5 -4.5t1 -4.5q-4 -16 -22 -12q-11 2 -48 15q-3 1 -9.5 5t-12.5 6t-13 1q-8 -22 -8 -24q-3 -10 -6 -30.5t-5 -30.5q-1 -1 -2 -8t-2 -9.5l-3 -7.5t-5 -8t-7 -6q-10 12 -9 35.5t-3 36.5q-11 -4 -22 -14.5
t-22.5 -20t-24.5 -11.5q-5 13 -5 14q1 19 18 38q5 6 11 12.5t11 12t11.5 12.5t10.5 13q2 1 23 27q-4 7 -24.5 28t-22.5 38q8 15 14.5 18.5t17.5 0.5q2 -1 23 -11q3 6 7.5 25t14.5 27q2 0 5 -0.5t6.5 -1t4.5 -1.5q8 -10 7.5 -28t3.5 -30q22 27 24 29q17 19 24 25q8 6 18 4
q2 0 4.5 -2t6 -5t5.5 -5q-2 -11 -6 -22t-11 -21t-12.5 -18t-14.5 -19t-14 -18q4 -6 9.5 -11t14.5 -10t12 -8z" />
    <glyph glyph-name="plus" unicode="+" horiz-adv-x="475" 
d="M424 382q5 -14 -7 -18q-30 -13 -47 -17t-48 -10t-40 -8q-2 0 -25 -8q-19 -37 -45.5 -113t-36.5 -120q-10 -11 -24 3q-8 22 1 61q6 22 30 113q1 2 12 40h-24q-13 -3 -42.5 -9.5t-45.5 -9.5q-13 -2 -18.5 1.5t-13.5 18.5q2 20 29 27q16 4 84 20q5 1 52 11q52 133 60 152
q11 29 18 43q5 12 13 19q14 14 28 -1q8 -16 -2 -45q-8 -24 -23.5 -70t-17.5 -52q-1 0 -11 -31q18 0 49.5 3.5t48 4.5t46.5 -5z" />
    <glyph glyph-name="comma" unicode="," horiz-adv-x="152" 
d="M84 55q17 -5 18 -23q0 -9 -2 -19q-15 -70 -70 -142q-14 -18 -31 -18q-8 11 1 30q4 10 12 26.5t11 22.5q21 45 22 70q0 12 13 41q8 17 26 12z" />
    <glyph glyph-name="hyphen" unicode="-" horiz-adv-x="498" 
d="M383 351q40 -1 65 -17q-4 -2 -8.5 -6t-7.5 -6t-6 -3q-37 -11 -57 -13q-106 -10 -266 -38q-16 -2 -31 -2q-16 0 -21 15q-5 16 6 25q13 10 24 13q26 8 53 12q151 22 249 20z" />
    <glyph glyph-name="period" unicode="." horiz-adv-x="166" 
d="M108 18q11 -16 5 -32q-10 -24 -22 -45q-5 -8 -18 -14q-16 -8 -31 1.5t-14 27.5v4q0 4 1.5 8t2.5 6.5t4 6.5t4 5.5t5 5t5 4.5t6 5t5 5q26 21 47 12z" />
    <glyph glyph-name="slash" unicode="/" horiz-adv-x="311" 
d="M499 866q4 -17 -2 -47q-16 -83 -62 -193q-42 -100 -117 -239q-82 -150 -216 -395q-11 -19 -24 -35q-12 -14 -27 -5q-1 16 0 17q17 52 25 69q32 66 102 207q65 130 164 329q60 120 114 258q9 22 17 35q10 15 26 -1z" />
    <glyph glyph-name="zero" unicode="0" horiz-adv-x="477" 
d="M493 634v-39q2 -105 -53 -226q-56 -122 -159 -249q-38 -47 -92 -78q-39 -23 -84 -31q-22 -3 -41 -1q-62 5 -83 61q-11 30 -8 62q6 63 13 90q71 263 214 455q23 30 58 66q27 28 62 25q11 0 36 7q36 10 66.5 -4.5t46.5 -45.5q20 -41 24 -92zM383 375q55 112 56 226
q-3 38 -4 42q-6 31 -16 53q-16 36 -56 24q-22 -7 -41 -19q-16 -10 -51 -39q-45 -36 -77 -83.5t-65 -113.5q-62 -125 -92 -269q-8 -39 -6 -79q1 -32 15.5 -43t47.5 -5q35 5 69 25q43 25 76 65q91 108 144 216z" />
    <glyph glyph-name="one" unicode="1" horiz-adv-x="284" 
d="M67 -8q-5 -30 11 -57q-11 -11 -23 -5q-14 6 -18 13q-9 17 -9 31q0 46 5 73q18 109 66 266q8 26 16.5 54.5t16.5 53.5t17 53.5t17 53.5t17 54t16 54q15 47 16 65q-14 -11 -15 -11q-4 -5 -12 -13t-14.5 -15t-12.5 -13q-17 -15 -43 -33q-1 0 -21 -7l-5 10q8 10 8 11
q61 53 126 147q12 17 19 23q9 9 20 5t13 -16t-1 -27q-22 -102 -33 -143q-7 -30 -15.5 -61.5t-18.5 -64t-18.5 -58.5t-20.5 -63.5t-19 -60.5q-55 -177 -80 -290q-1 -5 -2.5 -15.5t-2.5 -13.5z" />
    <glyph glyph-name="two" unicode="2" horiz-adv-x="432" 
d="M66 48q-8 -14 -9.5 -20t-3.5 -24q16 -13 46 -9q39 6 71 14q42 12 106 42q9 4 51 22q10 5 17 -1q-7 -13 -8 -13q-16 -22 -44 -39q-81 -51 -161 -69q-48 -11 -81 -5q-32 7 -46.5 29t-6.5 53q7 25 21 48q22 36 49 73q21 27 60.5 79t44.5 59q86 112 139 240q7 17 24 71
q9 27 6 68q-5 72 -72 96q-74 25 -149 -27q-3 -2 -9 -9q-13 -14 -12.5 -24t13.5 -26q-3 -7 -13 -5q-24 7 -27 34q-2 16 8 34q13 25 38 39q66 39 135 28q56 -9 90.5 -48t37.5 -96q2 -55 -13 -96q-22 -62 -40 -101q-43 -97 -104 -184q-12 -17 -46 -65t-52 -74q-25 -37 -60 -94z
" />
    <glyph glyph-name="three" unicode="3" horiz-adv-x="406" 
d="M222 482q0 -1 -22 -30q50 4 52 4q39 2 67.5 -15.5t41.5 -42t16 -53.5q5 -50 -10 -97q-13 -40 -34 -75q-71 -118 -183 -183q-14 -9 -59 -27q-17 -8 -42 -4q-21 4 -33 19.5t-10 37.5q2 20 10 37q48 108 151 176q1 1 17 9q6 -5 0 -13q-5 -5 -11 -12t-12 -14.5t-11 -12.5
q-52 -62 -62 -76q-21 -28 -35 -66q-8 -23 -2 -35q9 -9 25 -3q22 7 39 15q126 67 194 202q23 47 24 91q1 26 -4 46q-13 56 -70 56q-7 0 -65 -8q-3 0 -6 -0.5t-5.5 -1t-5.5 -1t-6 -1.5q-17 0 -24.5 11t0.5 26q6 12 20 30q9 12 36 45t41 52q39 51 73 100q10 14 23 44q1 1 3 19
q-9 13 -22 10q-18 -5 -28 -9q-67 -32 -117 -83q-57 -60 -57 -120q-7 -2 -10 6q-11 30 4 70q11 31 37 61q53 62 130 97q16 7 34 12q26 6 46.5 -9t15.5 -48q-2 -20 -11 -37q-17 -32 -34 -56q-10 -14 -109 -143z" />
    <glyph glyph-name="four" unicode="4" horiz-adv-x="424" 
d="M267 71q-6 -29 -5 -39t13 -35q-6 -10 -22 -9q-17 2 -23 15q-9 19 -9 29q-1 38 4 67q9 55 41 156q47 147 99 260q1 1 11 27q-20 -18 -21 -18q-108 -101 -113 -106q-46 -40 -97 -70q-41 -23 -68 -27q-17 -3 -25 -2q-11 1 -19 6.5t-12.5 14t-3.5 19.5q0 19 6 34q12 32 26 54
q18 32 82 136q10 15 22.5 35t24.5 40t22 35q25 42 35 77q0 2 14 38h20q10 -3 9 -17q-3 -25 -7 -35q-25 -56 -40 -82q-17 -31 -51.5 -87t-40.5 -67q-36 -59 -61 -103q-6 -12 -18 -42q-1 -1 -1 -14q20 -1 39 9q53 28 68 38q181 127 277 286q11 18 19 30q6 8 12 12q9 7 20 2.5
t13 -15.5q1 -11 -2 -20q-12 -36 -21 -56q-11 -26 -42.5 -97t-48.5 -110q-78 -182 -118 -334q-4 -15 -8 -35z" />
    <glyph glyph-name="five" unicode="5" horiz-adv-x="512" 
d="M268 732q-2 -1 -49 -13q-25 -48 -77 -180.5t-58 -164.5q18 -3 19 -3q13 2 28.5 4t31.5 4t28 4q85 9 133 -3l13 -4q65 -21 92.5 -76.5t6.5 -120.5q-24 -72 -94 -124q-61 -46 -153 -70q-74 -21 -146 -15q-32 3 -57 17q-23 14 -32 36q-11 27 7 50q1 0 9 2q7 -20 7 -22
q9 -28 37 -35q20 -5 34 -6q37 -2 81 7q91 19 163 63q51 31 78 75q20 32 24 62q4 36 -11.5 63t-48.5 42q-34 16 -68 14q-39 -3 -109 -11q-10 -1 -29.5 -4.5t-29.5 -4.5q-38 -4 -55.5 14.5t-10.5 56.5q3 19 10 38q21 53 35 84q11 24 42 91.5t47 104.5q18 41 37 63q1 1 21 18
q14 -5 25 -9q75 12 80 13q64 8 130 3q29 -2 49 -16q10 -6 9 -15q-12 -10 -40 -9q-76 3 -209 -23z" />
    <glyph glyph-name="six" unicode="6" horiz-adv-x="471" 
d="M14 54q-11 22 -29 33l-2 8q7 47 7 48q1 8 1 22v23q1 37 20 95q47 151 134 276q36 52 91 124q42 55 87 90q12 9 29 17q7 2 11.5 -1.5t10.5 -15.5q-4 -2 -7.5 -4.5t-6 -4.5t-6 -5.5l-5.5 -5.5l-6 -6t-5.5 -6t-5 -7t-4.5 -6t-5.5 -6.5t-4.5 -6.5q-116 -150 -184 -293
q-44 -91 -69 -182q-2 -6 -10 -52q3 -3 5.5 -4t4.5 -0.5t3 1t3.5 1.5t3.5 2q122 62 125 64q48 24 94 31q33 5 57 2q33 -3 51 -23t19 -52q0 -28 -13 -58q-31 -68 -86 -108q-40 -29 -84.5 -45.5t-92.5 -18.5q-91 -3 -131 74zM275 231q-95 -26 -215 -97q5 -98 99 -90
q69 6 128 45q50 34 75 93q13 31 0 49q-18 11 -41 8q-31 -4 -46 -8z" />
    <glyph glyph-name="seven" unicode="7" horiz-adv-x="390" 
d="M351 728q1 1 2 16q-16 13 -46 9q-97 -13 -149 -22q-7 -2 -104 -22q-10 10 3 17q23 14 37 18q79 27 161 38q24 4 70 8q12 1 25 -1q23 -4 35 -19t10 -38q-2 -20 -12 -44q-6 -15 -49 -112q-54 -123 -57 -129q-1 -2 -14 -35l17 -3q6 -1 23 -0.5t23 0.5q19 -1 30 -9
q1 -9 -10 -12q-13 -4 -27 -7q-9 -2 -74 -15q-7 -13 -13.5 -28t-15 -36.5t-10.5 -29.5q-18 -43 -36 -95q-12 -32 -32 -93q-2 -9 -29 -95q-18 -8 -21 8q-2 13 0 28q14 72 21 106.5t23 92.5t34 103q0 1 2 10q-4 6 -13 3q-2 -1 -3 -1q-10 -3 -53 -17q-13 -4 -24 2
q-8 4 -9.5 12.5t4.5 14.5q12 10 23 15q17 6 67 22q3 0 34 9q6 13 7 13q29 68 132 276q8 18 18 42z" />
    <glyph glyph-name="eight" unicode="8" horiz-adv-x="417" 
d="M254 358q-3 -3 -25 -29q17 -32 17 -33q40 -77 59 -128q15 -41 14 -72q-2 -70 -68 -87t-130 14q-42 21 -60 61t-6 87q9 38 34 72q10 13 54 70q2 2 24 29q-28 56 -74 109q1 -7 1.5 -19.5t0.5 -19.5l-13 7q-37 35 -30 86q6 39 19 60q35 56 44 68q71 86 179 145q31 17 59 23
q35 7 62.5 -10t36.5 -52q10 -37 -4 -90q-10 -36 -34 -81q-30 -56 -77 -113q-12 -15 -26 -31t-30.5 -35.5t-26.5 -30.5zM103 531q10 -24 41.5 -72.5t57.5 -78.5q11 13 27 30.5t27.5 30.5t26.5 30t26.5 31t23.5 31t23 33q18 29 37 72q10 22 14 47q4 22 0 42q-4 17 -16 24.5
t-29 3.5q-21 -6 -39 -16q-104 -57 -172 -133q-1 -2 -7.5 -9t-9 -10.5t-6.5 -9t-5 -11.5q-2 -7 -10 -17.5t-10 -17.5zM275 139q-24 66 -75 151q-24 -22 -50.5 -56.5t-35.5 -57.5q-8 -19 -11 -37q-4 -40 24 -63q53 -44 122 -28q36 9 34 47q-1 24 -8 44z" />
    <glyph glyph-name="nine" unicode="9" horiz-adv-x="422" 
d="M277 -42q-1 -2 -5 -33q-27 21 -28 56q-2 35 1 64q12 117 43 246q3 12 47 184q0 1 5 22q-24 -20 -25 -21q-55 -41 -65 -48q-30 -19 -76 -27q-33 -6 -63 4t-46.5 34t-14.5 55q2 29 11 48q90 182 241 247q7 3 56 18q4 1 14 2q31 2 44.5 -13.5t7.5 -45.5q-6 -25 -19 -40
q-2 8 0 19.5t2 15.5v6v6.5t-1 6.5t-2.5 7t-4.5 7q-20 2 -21 2q-21 -4 -40 -12q-58 -24 -105 -70q-68 -65 -112 -149q-12 -23 -18 -45q-5 -21 4.5 -36t31.5 -18q19 -3 45 1q38 7 79 37q59 44 108 110q7 9 19 38q6 12 20 45.5t22 51.5q7 14 20 29q13 17 31 6q15 -9 11 -27
q-3 -15 -9 -27q-13 -31 -19 -42q-25 -39 -52 -119q-82 -238 -128 -504q0 -1 -9 -91z" />
    <glyph glyph-name="colon" unicode=":" horiz-adv-x="216" 
d="M125 77q3 -1 5.5 -3.5t5.5 -6.5t5 -6q-8 -14 -9 -15q-11 -9 -19 -28q-6 -14 -19.5 -18t-25.5 3q-11 6 -15.5 18.5t0.5 24.5q4 10 11 16q27 25 61 15zM131 297q16 4 27 -6.5t8 -27.5q-3 -15 -12 -24t-32 -17q-2 1 -6.5 3.5t-8 5t-5.5 5.5q-5 8 -4 22t10.5 25.5t22.5 13.5z
" />
    <glyph glyph-name="semicolon" unicode=";" horiz-adv-x="234" 
d="M137 50q19 -10 14 -30q-3 -11 -9 -21q-27 -45 -55 -90q-12 -20 -29 -17q-13 17 -4 43q11 36 47 102q1 2 5 6q15 17 31 7zM155 267.5q26 -1.5 29 -20.5q-12 -33 -13 -35q-9 -17 -21 -28q-7 -7 -17.5 -5.5t-16.5 10.5q-8 12 -7.5 31.5t9.5 31.5q11 17 37 15.5z" />
    <glyph glyph-name="less" unicode="&#x3c;" horiz-adv-x="541" 
d="M482 239q14 -9 6 -25q-13 -10 -44 -7q-9 1 -56 5t-72 7q-68 8 -167 22q-23 4 -45 12q-19 7 -34 18.5t-19 29t5 34.5q7 14 20 28q22 21 39 33q99 66 199 131q1 1 36 17q37 -19 11 -41q-3 -3 -34 -26q-138 -102 -155 -114q-32 -25 -43 -42q29 -9 31 -9q25 -5 83.5 -15.5
t89.5 -16.5q67 -13 114 -24q14 -3 35 -17z" />
    <glyph glyph-name="equal" unicode="=" horiz-adv-x="453" 
d="M372 441q-123 -14 -265 -47q-14 -4 -30 -4q-20 -1 -25 15q-6 19 6 29q16 14 29 17q45 13 73 15q55 5 167 12q21 1 43 -3t18 -29q-15 -5 -16 -5zM349 311q37 -1 54 -11q-5 -19 -26 -26q-11 -3 -31 -6q-94 -14 -233 -48h-14q-8 13 -9 14q-1 12 5 18q14 13 29 20
q36 17 86 25q89 15 139 14z" />
    <glyph glyph-name="greater" unicode="&#x3e;" horiz-adv-x="381" 
d="M302 457q20 -8 26 -25t-2 -36q-9 -20 -23 -36q-31 -35 -57 -59q-96 -88 -144 -169q-1 -1 -9 -6q-21 2 -20 21q2 18 8 30q18 36 35 61q39 58 112 130q30 30 39 46q-17 6 -47 12q-58 12 -103 24q-20 5 -47 18q-3 2 -6.5 5t-7.5 7l-6 6q6 13 7 15q11 5 39 0q116 -21 158 -29
q30 -6 48 -15z" />
    <glyph glyph-name="question" unicode="?" horiz-adv-x="475" 
d="M456 858q7 -37 -9 -97q-17 -59 -56 -125q-29 -50 -79 -130q-63 -102 -101 -199q-14 -34 -23 -66q-15 -51 2 -84l1 -14q-15 -5 -16 -5q-16 -1 -28 13q-17 19 -17 42q0 39 5 59q24 113 96 234q10 17 22.5 36.5t27.5 42t23 36.5q40 63 56 90q27 47 38 90q6 22 8 42
q6 67 -54 110q-45 32 -104 28q-74 -7 -130 -49q-28 -22 -41 -47q-34 -64 12 -124q-24 6 -25 6q-16 8 -26 33q-23 59 5 110q16 28 30 41q111 105 248 69q112 -29 135 -142zM109 13q52 54 121 53l13 -6q-4 -24 -30 -41q-51 -34 -70 -61q-3 -5 -12 -10q-10 -6 -20 -1.5
t-13 15.5q-8 31 11 51z" />
    <glyph glyph-name="at" unicode="@" horiz-adv-x="655" 
d="M697 505q8 -43 -3 -97q-17 -84 -55 -155q-50 -96 -149 -157q-21 -13 -46 -20q-56 -16 -76 40q-1 0 -5 13q-23 -20 -24 -21q-29 -23 -41 -31q-15 -11 -37 -9q-29 2 -36 31q-6 25 5 50t23 45q71 107 187 180q10 6 39 19q9 4 19 6q27 3 39 -11.5t5 -40.5q-3 -9 -6 -15l-6 -5
q-5 3 -5 9v11q-1 1 -5 19q-16 -2 -16 -3q-26 -14 -37 -22q-98 -75 -163 -173q-2 -2 -21 -36q6 -6 15 1q26 23 41 36.5t34.5 36t33.5 44.5q7 13 24 30q6 7 17 10q17 5 24 -8q7 -11 4 -22q-3 -10 -15 -23q-29 -33 -45 -94q0 -1 1 -23h18q30 13 42 21q83 54 126 141
q37 74 51 155q6 39 -4 70q-15 46 -63 50q-42 4 -72 -12q-44 -23 -70 -42q-175 -130 -282 -336q-36 -67 -43 -126q-3 -30 0 -50q6 -46 37 -71t78 -21q21 2 50 9q66 18 127 51q29 17 47.5 33.5t26.5 41.5q12 0 15 -12q5 -23 -10 -41q-25 -30 -41 -41q-96 -71 -209 -93
q-73 -15 -128 26.5t-62 116.5q-7 74 22 142q24 55 49 98q115 191 291 313q44 31 81 47q45 18 96 13q42 -4 70.5 -30.5t36.5 -67.5z" />
    <glyph glyph-name="A" unicode="A" horiz-adv-x="822" 
d="M850 321q1 -1 11 -21q-11 -4 -51.5 -1t-49.5 3h-46.5t-47.5 -1q-7 0 -29.5 -0.5t-38 -1.5t-30.5 -4q-11 -40 -11 -42q-94 -407 -111 -485q-45 -202 -58 -304q-1 -6 -5 -89q-1 -3 -0.5 -12t-0.5 -15t-5 -12q-16 -5 -31 16q-15 20 -16 52q-2 45 1 74q10 109 39 248
q16 78 35 167.5t41.5 196t35.5 168.5q1 1 4 32q-10 2 -22 2.5t-21.5 -0.5t-22 -2t-20.5 -2q-6 0 -82 -7q-11 -16 -11 -17l-260 -496q-12 -24 -24 -49q-17 -35 -16 -63q-13 -3 -20 11q-7 18 0 42q16 53 25 74q43 95 94 203q23 49 69 144t52 106q0 2 14 33q-6 2 -13 3
t-11.5 0.5t-12.5 -1.5t-11 -1q-8 -1 -29.5 -2.5t-32.5 -2.5t-24 2t-14 16q-1 14 11 19q18 8 30 10q21 4 119 22l20 3q11 19 12 20q79 164 309 595q4 7 21 39.5t26 50.5q11 18 21 28q16 14 35 8t24 -26q4 -16 0 -35q-14 -75 -30 -149q-20 -95 -59 -275.5t-44 -203.5
q0 -1 -6 -33q22 -4 23 -4h32.5t37 -0.5t32.5 -1.5q30 -1 89 -7q35 -4 54 -22zM353 344q27 -1 77 3t69 4q10 27 54 229t45 228q-36 -43 -226 -415q-1 -3 -4.5 -8.5t-5.5 -9t-4 -9t-3.5 -11t-1.5 -11.5z" />
    <glyph glyph-name="A" unicode="&#xc5;" horiz-adv-x="822" 
d="M850 321q1 -1 11 -21q-11 -4 -51.5 -1t-49.5 3h-46.5t-47.5 -1q-7 0 -29.5 -0.5t-38 -1.5t-30.5 -4q-11 -40 -11 -42q-94 -407 -111 -485q-45 -202 -58 -304q-1 -6 -5 -89q-1 -3 -0.5 -12t-0.5 -15t-5 -12q-16 -5 -31 16q-15 20 -16 52q-2 45 1 74q10 109 39 248
q16 78 35 167.5t41.5 196t35.5 168.5q1 1 4 32q-10 2 -22 2.5t-21.5 -0.5t-22 -2t-20.5 -2q-6 0 -82 -7q-11 -16 -11 -17l-260 -496q-12 -24 -24 -49q-17 -35 -16 -63q-13 -3 -20 11q-7 18 0 42q16 53 25 74q43 95 94 203q23 49 69 144t52 106q0 2 14 33q-6 2 -13 3
t-11.5 0.5t-12.5 -1.5t-11 -1q-8 -1 -29.5 -2.5t-32.5 -2.5t-24 2t-14 16q-1 14 11 19q18 8 30 10q21 4 119 22l20 3q11 19 12 20q79 164 309 595q4 7 21 39.5t26 50.5q11 18 21 28q16 14 35 8t24 -26q4 -16 0 -35q-14 -75 -30 -149q-20 -95 -59 -275.5t-44 -203.5
q0 -1 -6 -33q22 -4 23 -4h32.5t37 -0.5t32.5 -1.5q30 -1 89 -7q35 -4 54 -22zM353 344q27 -1 77 3t69 4q10 27 54 229t45 228q-36 -43 -226 -415q-1 -3 -4.5 -8.5t-5.5 -9t-4 -9t-3.5 -11t-1.5 -11.5z" />
    <glyph glyph-name="A" unicode="&#xc3;" horiz-adv-x="822" 
d="M850 321q1 -1 11 -21q-11 -4 -51.5 -1t-49.5 3h-46.5t-47.5 -1q-7 0 -29.5 -0.5t-38 -1.5t-30.5 -4q-11 -40 -11 -42q-94 -407 -111 -485q-45 -202 -58 -304q-1 -6 -5 -89q-1 -3 -0.5 -12t-0.5 -15t-5 -12q-16 -5 -31 16q-15 20 -16 52q-2 45 1 74q10 109 39 248
q16 78 35 167.5t41.5 196t35.5 168.5q1 1 4 32q-10 2 -22 2.5t-21.5 -0.5t-22 -2t-20.5 -2q-6 0 -82 -7q-11 -16 -11 -17l-260 -496q-12 -24 -24 -49q-17 -35 -16 -63q-13 -3 -20 11q-7 18 0 42q16 53 25 74q43 95 94 203q23 49 69 144t52 106q0 2 14 33q-6 2 -13 3
t-11.5 0.5t-12.5 -1.5t-11 -1q-8 -1 -29.5 -2.5t-32.5 -2.5t-24 2t-14 16q-1 14 11 19q18 8 30 10q21 4 119 22l20 3q11 19 12 20q79 164 309 595q4 7 21 39.5t26 50.5q11 18 21 28q16 14 35 8t24 -26q4 -16 0 -35q-14 -75 -30 -149q-20 -95 -59 -275.5t-44 -203.5
q0 -1 -6 -33q22 -4 23 -4h32.5t37 -0.5t32.5 -1.5q30 -1 89 -7q35 -4 54 -22zM353 344q27 -1 77 3t69 4q10 27 54 229t45 228q-36 -43 -226 -415q-1 -3 -4.5 -8.5t-5.5 -9t-4 -9t-3.5 -11t-1.5 -11.5z" />
    <glyph glyph-name="A" unicode="&#xc2;" horiz-adv-x="822" 
d="M850 321q1 -1 11 -21q-11 -4 -51.5 -1t-49.5 3h-46.5t-47.5 -1q-7 0 -29.5 -0.5t-38 -1.5t-30.5 -4q-11 -40 -11 -42q-94 -407 -111 -485q-45 -202 -58 -304q-1 -6 -5 -89q-1 -3 -0.5 -12t-0.5 -15t-5 -12q-16 -5 -31 16q-15 20 -16 52q-2 45 1 74q10 109 39 248
q16 78 35 167.5t41.5 196t35.5 168.5q1 1 4 32q-10 2 -22 2.5t-21.5 -0.5t-22 -2t-20.5 -2q-6 0 -82 -7q-11 -16 -11 -17l-260 -496q-12 -24 -24 -49q-17 -35 -16 -63q-13 -3 -20 11q-7 18 0 42q16 53 25 74q43 95 94 203q23 49 69 144t52 106q0 2 14 33q-6 2 -13 3
t-11.5 0.5t-12.5 -1.5t-11 -1q-8 -1 -29.5 -2.5t-32.5 -2.5t-24 2t-14 16q-1 14 11 19q18 8 30 10q21 4 119 22l20 3q11 19 12 20q79 164 309 595q4 7 21 39.5t26 50.5q11 18 21 28q16 14 35 8t24 -26q4 -16 0 -35q-14 -75 -30 -149q-20 -95 -59 -275.5t-44 -203.5
q0 -1 -6 -33q22 -4 23 -4h32.5t37 -0.5t32.5 -1.5q30 -1 89 -7q35 -4 54 -22zM353 344q27 -1 77 3t69 4q10 27 54 229t45 228q-36 -43 -226 -415q-1 -3 -4.5 -8.5t-5.5 -9t-4 -9t-3.5 -11t-1.5 -11.5z" />
    <glyph glyph-name="A" unicode="&#xc1;" horiz-adv-x="822" 
d="M850 321q1 -1 11 -21q-11 -4 -51.5 -1t-49.5 3h-46.5t-47.5 -1q-7 0 -29.5 -0.5t-38 -1.5t-30.5 -4q-11 -40 -11 -42q-94 -407 -111 -485q-45 -202 -58 -304q-1 -6 -5 -89q-1 -3 -0.5 -12t-0.5 -15t-5 -12q-16 -5 -31 16q-15 20 -16 52q-2 45 1 74q10 109 39 248
q16 78 35 167.5t41.5 196t35.5 168.5q1 1 4 32q-10 2 -22 2.5t-21.5 -0.5t-22 -2t-20.5 -2q-6 0 -82 -7q-11 -16 -11 -17l-260 -496q-12 -24 -24 -49q-17 -35 -16 -63q-13 -3 -20 11q-7 18 0 42q16 53 25 74q43 95 94 203q23 49 69 144t52 106q0 2 14 33q-6 2 -13 3
t-11.5 0.5t-12.5 -1.5t-11 -1q-8 -1 -29.5 -2.5t-32.5 -2.5t-24 2t-14 16q-1 14 11 19q18 8 30 10q21 4 119 22l20 3q11 19 12 20q79 164 309 595q4 7 21 39.5t26 50.5q11 18 21 28q16 14 35 8t24 -26q4 -16 0 -35q-14 -75 -30 -149q-20 -95 -59 -275.5t-44 -203.5
q0 -1 -6 -33q22 -4 23 -4h32.5t37 -0.5t32.5 -1.5q30 -1 89 -7q35 -4 54 -22zM353 344q27 -1 77 3t69 4q10 27 54 229t45 228q-36 -43 -226 -415q-1 -3 -4.5 -8.5t-5.5 -9t-4 -9t-3.5 -11t-1.5 -11.5z" />
    <glyph glyph-name="A" unicode="&#xc0;" horiz-adv-x="822" 
d="M850 321q1 -1 11 -21q-11 -4 -51.5 -1t-49.5 3h-46.5t-47.5 -1q-7 0 -29.5 -0.5t-38 -1.5t-30.5 -4q-11 -40 -11 -42q-94 -407 -111 -485q-45 -202 -58 -304q-1 -6 -5 -89q-1 -3 -0.5 -12t-0.5 -15t-5 -12q-16 -5 -31 16q-15 20 -16 52q-2 45 1 74q10 109 39 248
q16 78 35 167.5t41.5 196t35.5 168.5q1 1 4 32q-10 2 -22 2.5t-21.5 -0.5t-22 -2t-20.5 -2q-6 0 -82 -7q-11 -16 -11 -17l-260 -496q-12 -24 -24 -49q-17 -35 -16 -63q-13 -3 -20 11q-7 18 0 42q16 53 25 74q43 95 94 203q23 49 69 144t52 106q0 2 14 33q-6 2 -13 3
t-11.5 0.5t-12.5 -1.5t-11 -1q-8 -1 -29.5 -2.5t-32.5 -2.5t-24 2t-14 16q-1 14 11 19q18 8 30 10q21 4 119 22l20 3q11 19 12 20q79 164 309 595q4 7 21 39.5t26 50.5q11 18 21 28q16 14 35 8t24 -26q4 -16 0 -35q-14 -75 -30 -149q-20 -95 -59 -275.5t-44 -203.5
q0 -1 -6 -33q22 -4 23 -4h32.5t37 -0.5t32.5 -1.5q30 -1 89 -7q35 -4 54 -22zM353 344q27 -1 77 3t69 4q10 27 54 229t45 228q-36 -43 -226 -415q-1 -3 -4.5 -8.5t-5.5 -9t-4 -9t-3.5 -11t-1.5 -11.5z" />
    <glyph glyph-name="B" unicode="B" horiz-adv-x="979" 
d="M441 1093q11 13 26 0q6 -21 -4 -32q-4 -4 -7.5 -9.5t-6 -11.5t-4 -11t-4 -12.5t-3.5 -11.5q-8 -24 -18 -56t-18.5 -58.5t-17.5 -55t-19 -58t-20 -55.5q-19 -49 -179 -460q-24 -61 -53 -135q-4 -12 -1 -23q34 63 35 65q127 241 322 561q66 108 124 176q34 39 89 93
q20 20 50 38q23 13 47 18q25 5 45.5 -6.5t29.5 -36.5q12 -31 4 -81q-8 -53 -33 -116q-80 -204 -203 -352q-1 -1 -24 -32q31 4 32 4q75 12 128 -4q65 -20 100 -78q28 -46 34 -103q9 -74 -8 -136q-84 -304 -350 -434q-101 -49 -196 -47q-60 2 -111 21q-21 8 -36 17
q-45 27 -62 68t-5 92q23 91 105 142q11 6 17 1q5 -6 -1 -18q-5 -8 -13 -22.5t-14.5 -26.5t-11.5 -23q-16 -35 -23 -63q-15 -61 44 -90q34 -17 87 -21q79 -6 164 28q123 48 208.5 149t124.5 229q20 69 12 136q-5 36 -22 66q-26 49 -83 59q-44 7 -86 -3q-35 -9 -78 -24
q-56 -21 -89 -56q-8 -9 -42 -35q-14 -11 -34 -9q-13 2 -20.5 12.5t-3.5 24.5q4 18 22 31q38 29 61 43q29 19 47 40q87 100 90 104q123 149 200 366q9 24 19 72q3 16 1 39q0 1 -9 20q-26 1 -54 -23q-44 -36 -75 -68q-55 -57 -104 -133q-90 -137 -143 -224
q-148 -246 -251 -444q-81 -157 -151 -260q-14 -21 -21 -28q-14 -16 -32 -7q-17 8 -15 26q5 31 13 53q67 185 95 257q63 159 133 326q108 257 200 510q11 30 33 80q7 15 17 26z" />
    <glyph glyph-name="C" unicode="C" horiz-adv-x="831" 
d="M743 449q-8 -9 -100 -115q-9 5 -18 9q4 19 5 20q4 6 8.5 13t10.5 15.5t10 13.5q95 139 103 151q60 96 71 214q2 21 -3 62q-2 14 -11 29q-18 30 -50 25q-23 -3 -37 -10q-30 -15 -57 -34q-63 -43 -121 -111q-306 -359 -427 -803q-32 -118 -28 -200q2 -30 9 -54
q10 -35 48 -31q19 2 46 9q49 15 94 48q58 43 93 72q196 162 320 321q10 13 35 42l16 12q-4 -23 -5 -24q-18 -47 -47 -85q-50 -65 -78 -98q-137 -154 -302 -279q-29 -22 -79 -51q-37 -21 -84 -30q-28 -5 -52 1.5t-42 24t-28 43.5q-10 27 -13 61q-8 84 20 201q59 243 188 476
q113 203 266 377q69 78 140 125q26 17 75 42q21 11 57 11q65 1 98 -60q15 -29 17 -68q3 -49 -11 -108q-26 -106 -87 -192q-30 -41 -50 -65z" />
    <glyph glyph-name="C" unicode="&#xc7;" horiz-adv-x="831" 
d="M743 449q-8 -9 -100 -115q-9 5 -18 9q4 19 5 20q4 6 8.5 13t10.5 15.5t10 13.5q95 139 103 151q60 96 71 214q2 21 -3 62q-2 14 -11 29q-18 30 -50 25q-23 -3 -37 -10q-30 -15 -57 -34q-63 -43 -121 -111q-306 -359 -427 -803q-32 -118 -28 -200q2 -30 9 -54
q10 -35 48 -31q19 2 46 9q49 15 94 48q58 43 93 72q196 162 320 321q10 13 35 42l16 12q-4 -23 -5 -24q-18 -47 -47 -85q-50 -65 -78 -98q-137 -154 -302 -279q-29 -22 -79 -51q-37 -21 -84 -30q-28 -5 -52 1.5t-42 24t-28 43.5q-10 27 -13 61q-8 84 20 201q59 243 188 476
q113 203 266 377q69 78 140 125q26 17 75 42q21 11 57 11q65 1 98 -60q15 -29 17 -68q3 -49 -11 -108q-26 -106 -87 -192q-30 -41 -50 -65z" />
    <glyph glyph-name="D" unicode="D" horiz-adv-x="1184" 
d="M117 -103q2 2 64 28q4 11 11 27.5t11.5 28.5t10.5 27t11 27q166 400 169 409q21 52 43 110.5t48.5 131t40.5 110.5q7 18 16 32q6 10 20 9q7 -1 12.5 -6t6.5 -12q2 -13 1 -23q-2 -17 -7 -34q-44 -155 -54 -184q-44 -138 -118 -303q-26 -59 -125 -283q-1 -2 -12 -31
q4 -3 8 -4t6.5 0t7 2.5t6.5 2.5q101 30 209 50q102 19 222 25q60 2 106 -17q2 -9 -7 -11q-98 -12 -136 -16q-227 -27 -445 -106q-1 0 -13 -7q-24 -58 -26 -62q-12 -29 -18 -39q-1 -3 -3.5 -5t-4.5 -3.5t-5 -4.5t-6 -5q-1 2 -4 5t-5 4.5t-3.5 4t-2.5 4.5q-3 12 -2 35
q0 2 4 30l-8 1q-61 -25 -103 -69q-17 -17 -27 -38q-14 -27 10 -46q20 -16 37 -21q49 -13 80 -16q165 -16 343 46q281 98 460 314q127 155 165 360q27 145 -20 278q-46 128 -165 190q-97 51 -216 65q-198 24 -395 -38q-64 -20 -114 -51q-48 -28 -82 -66q-14 -16 -24 -31
q-14 -21 -15.5 -32.5t6.5 -36.5h-11q-19 12 -20 36q-1 22 12 49q27 53 78 97q50 43 125 73q98 41 219 57q69 9 144 7q153 -4 285 -62q207 -91 250 -324q31 -171 -35 -354q-90 -252 -319 -422q-224 -166 -497 -207q-118 -18 -207 -3q-54 9 -83 23q-25 12 -40 24
q-28 23 -35 55t8.5 65t50.5 64q43 38 106 66z" />
    <glyph glyph-name="E" unicode="E" horiz-adv-x="801" 
d="M248 247l-15 -7q-26 -68 -41.5 -112t-32 -107t-22.5 -120q-6 -51 3 -94q8 -43 32.5 -69t60.5 -30q59 -6 132 16q130 40 231 134q42 39 65 51q1 -19 1 -20q-14 -45 -53 -87q-85 -91 -210 -142q-96 -39 -169 -37q-33 1 -57 12q-87 38 -110 154q-14 69 4 174q14 79 55 197
q3 10 10 30t9 26q-15 1 -16 1q-8 -2 -42 -11q-24 -7 -32 -15q-13 -14 -41 -5q-10 3 -14 15.5t2 22.5q10 17 23 25q18 11 44 19q11 4 109 33l59 120.5t118.5 241t60.5 122.5q-14 1 -15 1q-14 -2 -88 -13t-114 -17q-16 -2 -62 -3q-10 0 -19 5q-9 4 -11 16t5 19q12 12 23 16
q36 11 65 16q34 5 198 31q4 1 68 11q40 54 44 59q14 18 34 38q13 11 26 1t11 -28q0 -6 -2 -17t-3 -16v-20q14 -1 19.5 -1t18.5 1t18 2q10 0 29 2t22 2q113 9 171 -5q12 -2 23 -7q1 0 11 -10q-13 -10 -14 -10q-55 -17 -68 -18q-33 -5 -94 -11.5t-86 -9.5q-9 -1 -130 -18
q-24 -36 -112.5 -225.5t-105.5 -242.5q3 -9 17 -6q19 4 51 10.5t59.5 12t51.5 9.5q12 2 37.5 6.5t40.5 7t37 5.5t41.5 4t37.5 1q23 -1 35 -3q1 0 13 -8q-1 -5 -3 -8t-5 -6t-5 -4t-6.5 -3t-5.5 -3q-29 -15 -102 -31q-136 -29 -320 -70zM537 878q2 0 8 0.5t10 0.5q2 8 1.5 14
t-5.5 9q-12 -4 -14 -24z" />
    <glyph glyph-name="E" unicode="&#xcb;" horiz-adv-x="801" 
d="M248 247l-15 -7q-26 -68 -41.5 -112t-32 -107t-22.5 -120q-6 -51 3 -94q8 -43 32.5 -69t60.5 -30q59 -6 132 16q130 40 231 134q42 39 65 51q1 -19 1 -20q-14 -45 -53 -87q-85 -91 -210 -142q-96 -39 -169 -37q-33 1 -57 12q-87 38 -110 154q-14 69 4 174q14 79 55 197
q3 10 10 30t9 26q-15 1 -16 1q-8 -2 -42 -11q-24 -7 -32 -15q-13 -14 -41 -5q-10 3 -14 15.5t2 22.5q10 17 23 25q18 11 44 19q11 4 109 33l59 120.5t118.5 241t60.5 122.5q-14 1 -15 1q-14 -2 -88 -13t-114 -17q-16 -2 -62 -3q-10 0 -19 5q-9 4 -11 16t5 19q12 12 23 16
q36 11 65 16q34 5 198 31q4 1 68 11q40 54 44 59q14 18 34 38q13 11 26 1t11 -28q0 -6 -2 -17t-3 -16v-20q14 -1 19.5 -1t18.5 1t18 2q10 0 29 2t22 2q113 9 171 -5q12 -2 23 -7q1 0 11 -10q-13 -10 -14 -10q-55 -17 -68 -18q-33 -5 -94 -11.5t-86 -9.5q-9 -1 -130 -18
q-24 -36 -112.5 -225.5t-105.5 -242.5q3 -9 17 -6q19 4 51 10.5t59.5 12t51.5 9.5q12 2 37.5 6.5t40.5 7t37 5.5t41.5 4t37.5 1q23 -1 35 -3q1 0 13 -8q-1 -5 -3 -8t-5 -6t-5 -4t-6.5 -3t-5.5 -3q-29 -15 -102 -31q-136 -29 -320 -70zM537 878q2 0 8 0.5t10 0.5q2 8 1.5 14
t-5.5 9q-12 -4 -14 -24z" />
    <glyph glyph-name="E" unicode="&#xca;" horiz-adv-x="801" 
d="M248 247l-15 -7q-26 -68 -41.5 -112t-32 -107t-22.5 -120q-6 -51 3 -94q8 -43 32.5 -69t60.5 -30q59 -6 132 16q130 40 231 134q42 39 65 51q1 -19 1 -20q-14 -45 -53 -87q-85 -91 -210 -142q-96 -39 -169 -37q-33 1 -57 12q-87 38 -110 154q-14 69 4 174q14 79 55 197
q3 10 10 30t9 26q-15 1 -16 1q-8 -2 -42 -11q-24 -7 -32 -15q-13 -14 -41 -5q-10 3 -14 15.5t2 22.5q10 17 23 25q18 11 44 19q11 4 109 33l59 120.5t118.5 241t60.5 122.5q-14 1 -15 1q-14 -2 -88 -13t-114 -17q-16 -2 -62 -3q-10 0 -19 5q-9 4 -11 16t5 19q12 12 23 16
q36 11 65 16q34 5 198 31q4 1 68 11q40 54 44 59q14 18 34 38q13 11 26 1t11 -28q0 -6 -2 -17t-3 -16v-20q14 -1 19.5 -1t18.5 1t18 2q10 0 29 2t22 2q113 9 171 -5q12 -2 23 -7q1 0 11 -10q-13 -10 -14 -10q-55 -17 -68 -18q-33 -5 -94 -11.5t-86 -9.5q-9 -1 -130 -18
q-24 -36 -112.5 -225.5t-105.5 -242.5q3 -9 17 -6q19 4 51 10.5t59.5 12t51.5 9.5q12 2 37.5 6.5t40.5 7t37 5.5t41.5 4t37.5 1q23 -1 35 -3q1 0 13 -8q-1 -5 -3 -8t-5 -6t-5 -4t-6.5 -3t-5.5 -3q-29 -15 -102 -31q-136 -29 -320 -70zM537 878q2 0 8 0.5t10 0.5q2 8 1.5 14
t-5.5 9q-12 -4 -14 -24z" />
    <glyph glyph-name="E" unicode="&#xc9;" horiz-adv-x="801" 
d="M248 247l-15 -7q-26 -68 -41.5 -112t-32 -107t-22.5 -120q-6 -51 3 -94q8 -43 32.5 -69t60.5 -30q59 -6 132 16q130 40 231 134q42 39 65 51q1 -19 1 -20q-14 -45 -53 -87q-85 -91 -210 -142q-96 -39 -169 -37q-33 1 -57 12q-87 38 -110 154q-14 69 4 174q14 79 55 197
q3 10 10 30t9 26q-15 1 -16 1q-8 -2 -42 -11q-24 -7 -32 -15q-13 -14 -41 -5q-10 3 -14 15.5t2 22.5q10 17 23 25q18 11 44 19q11 4 109 33l59 120.5t118.5 241t60.5 122.5q-14 1 -15 1q-14 -2 -88 -13t-114 -17q-16 -2 -62 -3q-10 0 -19 5q-9 4 -11 16t5 19q12 12 23 16
q36 11 65 16q34 5 198 31q4 1 68 11q40 54 44 59q14 18 34 38q13 11 26 1t11 -28q0 -6 -2 -17t-3 -16v-20q14 -1 19.5 -1t18.5 1t18 2q10 0 29 2t22 2q113 9 171 -5q12 -2 23 -7q1 0 11 -10q-13 -10 -14 -10q-55 -17 -68 -18q-33 -5 -94 -11.5t-86 -9.5q-9 -1 -130 -18
q-24 -36 -112.5 -225.5t-105.5 -242.5q3 -9 17 -6q19 4 51 10.5t59.5 12t51.5 9.5q12 2 37.5 6.5t40.5 7t37 5.5t41.5 4t37.5 1q23 -1 35 -3q1 0 13 -8q-1 -5 -3 -8t-5 -6t-5 -4t-6.5 -3t-5.5 -3q-29 -15 -102 -31q-136 -29 -320 -70zM537 878q2 0 8 0.5t10 0.5q2 8 1.5 14
t-5.5 9q-12 -4 -14 -24z" />
    <glyph glyph-name="E" unicode="&#xc8;" horiz-adv-x="801" 
d="M248 247l-15 -7q-26 -68 -41.5 -112t-32 -107t-22.5 -120q-6 -51 3 -94q8 -43 32.5 -69t60.5 -30q59 -6 132 16q130 40 231 134q42 39 65 51q1 -19 1 -20q-14 -45 -53 -87q-85 -91 -210 -142q-96 -39 -169 -37q-33 1 -57 12q-87 38 -110 154q-14 69 4 174q14 79 55 197
q3 10 10 30t9 26q-15 1 -16 1q-8 -2 -42 -11q-24 -7 -32 -15q-13 -14 -41 -5q-10 3 -14 15.5t2 22.5q10 17 23 25q18 11 44 19q11 4 109 33l59 120.5t118.5 241t60.5 122.5q-14 1 -15 1q-14 -2 -88 -13t-114 -17q-16 -2 -62 -3q-10 0 -19 5q-9 4 -11 16t5 19q12 12 23 16
q36 11 65 16q34 5 198 31q4 1 68 11q40 54 44 59q14 18 34 38q13 11 26 1t11 -28q0 -6 -2 -17t-3 -16v-20q14 -1 19.5 -1t18.5 1t18 2q10 0 29 2t22 2q113 9 171 -5q12 -2 23 -7q1 0 11 -10q-13 -10 -14 -10q-55 -17 -68 -18q-33 -5 -94 -11.5t-86 -9.5q-9 -1 -130 -18
q-24 -36 -112.5 -225.5t-105.5 -242.5q3 -9 17 -6q19 4 51 10.5t59.5 12t51.5 9.5q12 2 37.5 6.5t40.5 7t37 5.5t41.5 4t37.5 1q23 -1 35 -3q1 0 13 -8q-1 -5 -3 -8t-5 -6t-5 -4t-6.5 -3t-5.5 -3q-29 -15 -102 -31q-136 -29 -320 -70zM537 878q2 0 8 0.5t10 0.5q2 8 1.5 14
t-5.5 9q-12 -4 -14 -24z" />
    <glyph glyph-name="F" unicode="F" horiz-adv-x="983" 
d="M396 275q7 1 46 8l18 54q92 273 173 441q49 101 95 171q21 32 42 57q16 18 35 30q56 36 95 -19q23 -32 29 -80q2 -16 2 -39q-1 -84 -34 -172q-17 -45 -45 -74l-17 -14q-6 6 -1 15q53 99 50 239q-1 25 -10 62q-8 30 -27 41q-18 -1 -35 -23q-21 -26 -37 -51
q-44 -68 -87 -162q-80 -172 -168 -442q-1 0 -4 -15q3 -2 6 -3.5t6 -2t5.5 0t6.5 1t6 0.5q17 2 73 9t87 10q139 13 211 11q18 -1 66 -8q0 -1 16 -8q1 -10 -11 -16q-33 -15 -95 -20q-152 -12 -388 -50l-10 -3q-5 -4 -8 -9t-4.5 -9t-3 -11t-2.5 -10q-90 -296 -159 -529
q-33 -111 -63 -222q-3 -10 -5.5 -21.5t-5 -21.5t-5 -21.5t-5 -21.5t-5 -22t-4.5 -22q-6 -23 -17 -60q-3 -10 -10 -21q-12 -19 -34 -14q-20 6 -20 27q1 22 5 42q22 92 31 117q29 85 20 198q-10 133 -45 237q-40 118 -115 204q-24 27 -32 39q-33 48 10 88q19 19 56 35
q67 29 149 47q11 2 173 33zM232 -310q7 -40 11 -55l7 12q79 262 164 547q0 2 -1 8l-2 3q-10 1 -10 2t-10 -1.5l-10 -2.5q-133 -24 -228 -54q-28 -10 -69 -26q-21 -9 -25 -21q4 -10 29 -44q54 -74 87 -157q40 -98 57 -211z" />
    <glyph glyph-name="G" unicode="G" horiz-adv-x="848" 
d="M777 637l-24 -20q0 8 1.5 14.5t3.5 12t3.5 8.5t5 8.5t4.5 7.5q44 83 51 163q1 22 -3 45q-1 8 -5.5 13t-10.5 7t-14 2q-17 -3 -30 -9q-35 -17 -51 -29q-76 -56 -104 -81q-246 -226 -398 -504q-86 -157 -110 -291q-8 -47 -9 -86q-1 -34 6 -67q11 -51 44 -71.5t84 -9.5
q34 8 72 26q136 64 258 204q58 67 112 154q10 15 18 31t16.5 36t13 32.5t14 39t13.5 35.5q-37 -6 -39 -7q-110 -29 -202 -22q-2 1 -36 7q5 15 23 18h2q98 16 108 18q83 16 157 58q16 9 24 12q19 6 35 -3.5t19 -29.5q2 -22 -4 -49q-4 -18 -20 -60q-6 -15 -43.5 -111
t-56.5 -147q-14 -38 -38.5 -109t-31.5 -92q-10 -27 -22 -49q-2 -3 -4 -5.5t-4.5 -4t-6 -4t-5.5 -3.5q-16 13 -18 46q-2 34 13 99q2 9 30 109q-3 3 -6.5 1.5t-4.5 -2.5t-3.5 -4t-3.5 -4q-2 -2 -6.5 -7.5t-4.5 -6.5q-109 -132 -233 -207q-86 -51 -145 -62q-61 -12 -109 12.5
t-73 79.5q-27 59 -23 142q5 90 38 186q36 109 109 229q156 260 405 480q78 69 155 111q44 23 77 24q35 0 57.5 -19.5t26.5 -52.5q3 -32 -2 -59q-22 -108 -95 -183z" />
    <glyph glyph-name="H" unicode="H" horiz-adv-x="995" 
d="M626 -196q-2 -3 -4.5 -5.5t-6.5 -5t-5 -4.5q-15 8 -11 25q10 57 16 73q28 84 55 151q5 12 86 206q1 2 15 36l-14 4q-215 -44 -413 -104q-10 -17 -10 -18q-182 -387 -306 -653q-3 -6 -35 -79q-1 0 -4.5 -8.5t-5.5 -12.5q-10 -19 -24 -15q-18 5 -20 22q-1 17 3 31
q14 48 24 70q92 211 163 369l106 227q0 1 14 33q-21 -3 -22 -3q-103 -34 -193 -64q-29 -9 -34 6q-6 16 17 27q26 14 46 21q36 13 192 70l24 8q16 32 17 33q29 65 114 252.5t132 290.5q13 30 30 59q10 17 27 7q9 -13 0 -41q-13 -42 -25 -74q-61 -169 -187 -457q0 -1 -15 -37
q5 -2 10 -2.5t8.5 0.5t9 2.5t7.5 2.5q33 7 113 26.5t123 29.5q9 2 150 31q14 27 15 28q120 261 126 273q18 38 63 118q9 15 30 40q7 8 19 14q14 6 21 -5q5 -8 3 -18q-1 -3 -2.5 -5.5t-4 -6t-3.5 -5.5q-56 -106 -60 -114q-24 -50 -123 -271q-1 -1 -14 -36q26 2 76.5 8
t74.5 7.5t74 -0.5q2 -7 -0.5 -9.5t-8.5 -5.5q-9 -3 -19 -6.5t-21 -5.5t-19 -3.5t-21 -3.5t-19 -3q-20 -3 -59 -9t-57 -9q-1 0 -24 -7q-21 -47 -23 -50q-21 -50 -79 -187.5t-89 -212.5q-10 -24 -23 -45z" />
    <glyph glyph-name="I" unicode="I" horiz-adv-x="408" 
d="M352 813q-2 -1 -25 -15q3 19 21 35q77 69 167 107q30 12 54 11q18 -2 30 -13t14 -29q1 -22 -4 -47q-13 -55 -47 -120q-83 -162 -171 -330q-14 -26 -80.5 -151t-100.5 -192q-25 -50 -85 -189q-8 -20 -25 -78q-9 -28 -3 -49q9 -8 30.5 -8t30.5 -8q-1 -9 -7.5 -17t-9 -10
t-14.5 -11q-20 -15 -48 -13q-21 2 -38 18.5t-21 40.5q-8 42 2 78q18 68 32 105q46 124 127 269q13 24 155 271q155 268 172 299q12 21 44 92q12 25 9 40q-8 8 -23 3q-48 -17 -62 -23q-21 -11 -124 -66z" />
    <glyph glyph-name="I" unicode="&#xcf;" horiz-adv-x="408" 
d="M352 813q-2 -1 -25 -15q3 19 21 35q77 69 167 107q30 12 54 11q18 -2 30 -13t14 -29q1 -22 -4 -47q-13 -55 -47 -120q-83 -162 -171 -330q-14 -26 -80.5 -151t-100.5 -192q-25 -50 -85 -189q-8 -20 -25 -78q-9 -28 -3 -49q9 -8 30.5 -8t30.5 -8q-1 -9 -7.5 -17t-9 -10
t-14.5 -11q-20 -15 -48 -13q-21 2 -38 18.5t-21 40.5q-8 42 2 78q18 68 32 105q46 124 127 269q13 24 155 271q155 268 172 299q12 21 44 92q12 25 9 40q-8 8 -23 3q-48 -17 -62 -23q-21 -11 -124 -66z" />
    <glyph glyph-name="I" unicode="&#xce;" horiz-adv-x="408" 
d="M352 813q-2 -1 -25 -15q3 19 21 35q77 69 167 107q30 12 54 11q18 -2 30 -13t14 -29q1 -22 -4 -47q-13 -55 -47 -120q-83 -162 -171 -330q-14 -26 -80.5 -151t-100.5 -192q-25 -50 -85 -189q-8 -20 -25 -78q-9 -28 -3 -49q9 -8 30.5 -8t30.5 -8q-1 -9 -7.5 -17t-9 -10
t-14.5 -11q-20 -15 -48 -13q-21 2 -38 18.5t-21 40.5q-8 42 2 78q18 68 32 105q46 124 127 269q13 24 155 271q155 268 172 299q12 21 44 92q12 25 9 40q-8 8 -23 3q-48 -17 -62 -23q-21 -11 -124 -66z" />
    <glyph glyph-name="I" unicode="&#xcd;" horiz-adv-x="408" 
d="M352 813q-2 -1 -25 -15q3 19 21 35q77 69 167 107q30 12 54 11q18 -2 30 -13t14 -29q1 -22 -4 -47q-13 -55 -47 -120q-83 -162 -171 -330q-14 -26 -80.5 -151t-100.5 -192q-25 -50 -85 -189q-8 -20 -25 -78q-9 -28 -3 -49q9 -8 30.5 -8t30.5 -8q-1 -9 -7.5 -17t-9 -10
t-14.5 -11q-20 -15 -48 -13q-21 2 -38 18.5t-21 40.5q-8 42 2 78q18 68 32 105q46 124 127 269q13 24 155 271q155 268 172 299q12 21 44 92q12 25 9 40q-8 8 -23 3q-48 -17 -62 -23q-21 -11 -124 -66z" />
    <glyph glyph-name="I" unicode="&#xcc;" horiz-adv-x="408" 
d="M352 813q-2 -1 -25 -15q3 19 21 35q77 69 167 107q30 12 54 11q18 -2 30 -13t14 -29q1 -22 -4 -47q-13 -55 -47 -120q-83 -162 -171 -330q-14 -26 -80.5 -151t-100.5 -192q-25 -50 -85 -189q-8 -20 -25 -78q-9 -28 -3 -49q9 -8 30.5 -8t30.5 -8q-1 -9 -7.5 -17t-9 -10
t-14.5 -11q-20 -15 -48 -13q-21 2 -38 18.5t-21 40.5q-8 42 2 78q18 68 32 105q46 124 127 269q13 24 155 271q155 268 172 299q12 21 44 92q12 25 9 40q-8 8 -23 3q-48 -17 -62 -23q-21 -11 -124 -66z" />
    <glyph glyph-name="J" unicode="J" horiz-adv-x="653" 
d="M743 843q0 13 -2 17.5t-14 20.5q-15 6 -31 -2q-49 -27 -61 -35q-75 -51 -143 -127q-221 -243 -334 -424q-18 -28 -27 -43q-26 -46 -26 -81q-4 -3 -7.5 -0.5t-4 3.5t-2.5 6q-6 13 -3 34q7 39 31 85q58 109 115 181q106 134 198 244q81 95 172 159q24 18 67 40q22 11 49 10
q38 -1 58 -35q12 -21 13 -56q2 -52 -14 -120q-42 -178 -126 -362q-16 -35 -18 -39q-13 -21 -5 -40q-20 -32 -22 -34q-22 -27 -55 -90q-170 -323 -333 -548q-38 -53 -114 -145q-18 -21 -54 -51q-17 -14 -37 -21q-23 -8 -41 3.5t-21 36.5t6 54q14 48 45 95q91 141 132 198
q154 216 365 415q26 24 42 55q125 248 173 423q16 58 25 107q4 22 4 66zM27 -529q64 52 207.5 257t183.5 301q-4 0 -7 -2t-5 -4t-4.5 -5.5t-3.5 -4.5q-72 -84 -98 -117q-142 -176 -236 -336q-6 -10 -39 -77q-5 -9 2 -12z" />
    <glyph glyph-name="K" unicode="K" horiz-adv-x="886" 
d="M252 53l5 -13q60 41 254 216.5t396 372.5t273 285q14 0 10 -13q-5 -22 -12 -33q-18 -28 -37 -50q-69 -79 -100 -110q-315 -322 -620 -581q-13 -11 -29 -24t-28.5 -23t-29.5 -23.5t-29 -23.5q-1 -1 -23 -21q13 -16 51 -37q80 -45 191 -82q102 -35 201 -51q51 -8 82 -25
q4 -3 5.5 -4t5 -3.5t4.5 -6.5t1 -9q-16 -11 -17 -11q-43 -15 -113 -7q-182 19 -356 98q-30 14 -48.5 23.5t-42 26.5t-40.5 37q-15 -19 -15 -20q-89 -181 -111 -229q-31 -67 -37 -127q-1 -2 -8 -30q-16 12 -16 13q-12 14 -13 36q-2 35 6 66q17 67 62 165q23 50 69 145
q16 33 14 52q-1 4 1 11q5 30 16 47t36 22q34 63 35 67q244 473 282 547q15 30 31 64.5t36 78.5l30 66q15 33 20 43q4 8 12 14q12 9 26 3q14 -7 12 -23q0 -6 -2 -12q-41 -120 -46 -133q-3 -7 -56 -121q-60 -127 -195 -379q-14 -28 -41 -80t-40 -77q-10 -18 -29 -52t-24 -43
q-6 -12 -9 -22z" />
    <glyph glyph-name="L" unicode="L" horiz-adv-x="1119" 
d="M1047 -56q1 0 22 -6q-16 -27 -51 -37q-29 -8 -80 -18q-328 -62 -539 -117q-2 -1 -4 -1q-45 -7 -77 -48q-52 -68 -137 -122q-55 -34 -100 -44q-21 -4 -58 -6q-11 0 -26 7q-24 10 -32 30t1 44q10 26 33 43q47 36 73 52q85 50 213 89q3 1 39 12q29 43 30 45q100 160 173 350
q30 78 83.5 222t73.5 196q31 82 109 281q7 19 21 46q8 15 23 13q13 -2 15 -20v-11q-13 -13 -28 -56q-17 -48 -97.5 -288t-128.5 -367q-80 -212 -172 -364q-1 -1 -11 -24q21 2 22 3q26 5 65 13t67.5 14t65 13.5t66.5 13.5q130 25 283 41q17 2 63 1zM42 -396q46 3 98 32t79 66
l-16 -3q-61 -27 -74 -34q-20 -11 -80 -49z" />
    <glyph glyph-name="M" unicode="M" horiz-adv-x="1193" 
d="M582 128q0 -1 -1 -17q23 9 50 35q65 64 93 95q23 25 51 57t56.5 65.5t50.5 57.5q48 54 132 144q14 15 43 40q13 11 26 17q22 11 40 1t19 -34q2 -29 -5 -54q-1 -4 -39 -136q-39 -131 -46 -194q-7 -68 10 -136q14 -59 60 -76q1 0 8 -8q-7 -13 -8 -14q-13 -12 -29 -7
q-24 8 -35 17q-21 18 -32 38q-17 31 -25 62q-27 106 -4 209q18 86 63 202q15 41 17 56q-26 -21 -27 -22q-99 -108 -134 -147q-26 -30 -81 -93t-84 -96q-36 -41 -85 -87q-20 -19 -52 -41q-17 -10 -36 -14q-22 -4 -37.5 7.5t-18.5 33.5q-5 32 7 66q43 124 54 151
q15 36 101 234q45 103 62 173q7 28 5 53q-16 -9 -16 -10q-24 -24 -31 -34q-56 -77 -82 -116q-198 -300 -451 -770q-44 -81 -64 -116q-13 -21 -37 -56q-14 -18 -34 -26q-14 -5 -26.5 0t-19.5 18q-10 22 -5 46q12 61 18 84q32 111 93 249q186 423 351 753q9 19 27.5 57
t26.5 55q1 3 4 9l4.5 9t5 7.5t7.5 6.5q14 5 21 -11q-10 -32 -11 -34q-68 -170 -86 -210q-41 -94 -147.5 -336t-163.5 -374q-13 -30 -26 -63.5t-28.5 -77t-23.5 -64.5q-6 -15 0 -24q27 46 28 48q25 46 77 140.5t92.5 168t78.5 139.5q73 126 244 403q26 42 88 124q17 22 47 47
q14 12 35 15.5t36 -6t20 -30.5q6 -22 3 -42q-4 -36 -13 -73q-17 -66 -64 -173q-95 -218 -126 -304q-6 -17 -21 -67z" />
    <glyph glyph-name="N" unicode="N" horiz-adv-x="744" 
d="M478 879q0 -4 -1.5 -21.5t-2 -24.5t-3.5 -20.5t-8 -23.5q-4 19 -7 33q-10 -16 -10 -17q-191 -536 -287 -820q11 19 12 21q35 66 56 108q120 236 315 518q25 35 105 132q16 19 49 49q18 16 36 24q28 14 51 2.5t29 -42.5q5 -23 3 -54q-3 -55 -30 -150q-31 -110 -102 -291
t-110 -314q-26 -89 -31 -142q-2 -20 0 -50q2 -23 24 -33l25 -12q2 0 16 -11q-5 -11 -6 -11q-18 -19 -48 -19t-55 23q-25 25 -31 66q-6 48 4 113q13 73 47 182q32 99 110 297q38 98 86 235q6 16 25 91q6 25 2 41q-13 -7 -14 -8q-62 -69 -80 -91q-26 -30 -57 -75
q-201 -287 -327 -529q-21 -40 -165 -303q-8 -15 -25 -40q-6 -9 -15 -17q-14 -13 -33 -6.5t-19 26.5q-1 25 3 39q12 45 24 79q161 431 235 627q29 77 130 331q10 27 31 72q7 13 17 26q10 11 22 5q11 -7 10 -15z" />
    <glyph glyph-name="N" unicode="&#xd1;" horiz-adv-x="744" 
d="M478 879q0 -4 -1.5 -21.5t-2 -24.5t-3.5 -20.5t-8 -23.5q-4 19 -7 33q-10 -16 -10 -17q-191 -536 -287 -820q11 19 12 21q35 66 56 108q120 236 315 518q25 35 105 132q16 19 49 49q18 16 36 24q28 14 51 2.5t29 -42.5q5 -23 3 -54q-3 -55 -30 -150q-31 -110 -102 -291
t-110 -314q-26 -89 -31 -142q-2 -20 0 -50q2 -23 24 -33l25 -12q2 0 16 -11q-5 -11 -6 -11q-18 -19 -48 -19t-55 23q-25 25 -31 66q-6 48 4 113q13 73 47 182q32 99 110 297q38 98 86 235q6 16 25 91q6 25 2 41q-13 -7 -14 -8q-62 -69 -80 -91q-26 -30 -57 -75
q-201 -287 -327 -529q-21 -40 -165 -303q-8 -15 -25 -40q-6 -9 -15 -17q-14 -13 -33 -6.5t-19 26.5q-1 25 3 39q12 45 24 79q161 431 235 627q29 77 130 331q10 27 31 72q7 13 17 26q10 11 22 5q11 -7 10 -15z" />
    <glyph glyph-name="O" unicode="O" horiz-adv-x="836" 
d="M530 829q31 30 56 25q89 57 95 60q44 26 91 25q65 -2 103 -61q25 -40 30 -93q8 -83 -14 -173q-98 -405 -363 -684q-105 -111 -208 -169q-75 -42 -120 -52q-36 -7 -62 -4q-39 5 -64.5 29t-37.5 66q-13 46 -6 99q10 79 40 154q38 94 63 145q139 281 286 498q32 47 52 71
q22 27 59 64zM250 109q-36 18 -55 73q-14 -22 -14 -23q-45 -113 -62 -160q-12 -31 -19 -71q-10 -56 -4 -90q5 -34 20.5 -48.5t46.5 -13.5q29 1 64 16q102 44 184 115q317 277 420 726q14 62 12 125q-2 35 -14 63q-23 53 -77 42q-32 -6 -75 -34q-55 -37 -116 -110
q-116 -137 -205 -275q-55 -86 -88 -164q-34 -83 -16 -147q0 -1 -2 -24z" />
    <glyph glyph-name="O" unicode="&#xd8;" horiz-adv-x="836" 
d="M530 829q31 30 56 25q89 57 95 60q44 26 91 25q65 -2 103 -61q25 -40 30 -93q8 -83 -14 -173q-98 -405 -363 -684q-105 -111 -208 -169q-75 -42 -120 -52q-36 -7 -62 -4q-39 5 -64.5 29t-37.5 66q-13 46 -6 99q10 79 40 154q38 94 63 145q139 281 286 498q32 47 52 71
q22 27 59 64zM250 109q-36 18 -55 73q-14 -22 -14 -23q-45 -113 -62 -160q-12 -31 -19 -71q-10 -56 -4 -90q5 -34 20.5 -48.5t46.5 -13.5q29 1 64 16q102 44 184 115q317 277 420 726q14 62 12 125q-2 35 -14 63q-23 53 -77 42q-32 -6 -75 -34q-55 -37 -116 -110
q-116 -137 -205 -275q-55 -86 -88 -164q-34 -83 -16 -147q0 -1 -2 -24z" />
    <glyph glyph-name="O" unicode="&#xd5;" horiz-adv-x="836" 
d="M530 829q31 30 56 25q89 57 95 60q44 26 91 25q65 -2 103 -61q25 -40 30 -93q8 -83 -14 -173q-98 -405 -363 -684q-105 -111 -208 -169q-75 -42 -120 -52q-36 -7 -62 -4q-39 5 -64.5 29t-37.5 66q-13 46 -6 99q10 79 40 154q38 94 63 145q139 281 286 498q32 47 52 71
q22 27 59 64zM250 109q-36 18 -55 73q-14 -22 -14 -23q-45 -113 -62 -160q-12 -31 -19 -71q-10 -56 -4 -90q5 -34 20.5 -48.5t46.5 -13.5q29 1 64 16q102 44 184 115q317 277 420 726q14 62 12 125q-2 35 -14 63q-23 53 -77 42q-32 -6 -75 -34q-55 -37 -116 -110
q-116 -137 -205 -275q-55 -86 -88 -164q-34 -83 -16 -147q0 -1 -2 -24z" />
    <glyph glyph-name="O" unicode="&#xd4;" horiz-adv-x="836" 
d="M530 829q31 30 56 25q89 57 95 60q44 26 91 25q65 -2 103 -61q25 -40 30 -93q8 -83 -14 -173q-98 -405 -363 -684q-105 -111 -208 -169q-75 -42 -120 -52q-36 -7 -62 -4q-39 5 -64.5 29t-37.5 66q-13 46 -6 99q10 79 40 154q38 94 63 145q139 281 286 498q32 47 52 71
q22 27 59 64zM250 109q-36 18 -55 73q-14 -22 -14 -23q-45 -113 -62 -160q-12 -31 -19 -71q-10 -56 -4 -90q5 -34 20.5 -48.5t46.5 -13.5q29 1 64 16q102 44 184 115q317 277 420 726q14 62 12 125q-2 35 -14 63q-23 53 -77 42q-32 -6 -75 -34q-55 -37 -116 -110
q-116 -137 -205 -275q-55 -86 -88 -164q-34 -83 -16 -147q0 -1 -2 -24z" />
    <glyph glyph-name="O" unicode="&#xd3;" horiz-adv-x="836" 
d="M530 829q31 30 56 25q89 57 95 60q44 26 91 25q65 -2 103 -61q25 -40 30 -93q8 -83 -14 -173q-98 -405 -363 -684q-105 -111 -208 -169q-75 -42 -120 -52q-36 -7 -62 -4q-39 5 -64.5 29t-37.5 66q-13 46 -6 99q10 79 40 154q38 94 63 145q139 281 286 498q32 47 52 71
q22 27 59 64zM250 109q-36 18 -55 73q-14 -22 -14 -23q-45 -113 -62 -160q-12 -31 -19 -71q-10 -56 -4 -90q5 -34 20.5 -48.5t46.5 -13.5q29 1 64 16q102 44 184 115q317 277 420 726q14 62 12 125q-2 35 -14 63q-23 53 -77 42q-32 -6 -75 -34q-55 -37 -116 -110
q-116 -137 -205 -275q-55 -86 -88 -164q-34 -83 -16 -147q0 -1 -2 -24z" />
    <glyph glyph-name="O" unicode="&#xd2;" horiz-adv-x="836" 
d="M530 829q31 30 56 25q89 57 95 60q44 26 91 25q65 -2 103 -61q25 -40 30 -93q8 -83 -14 -173q-98 -405 -363 -684q-105 -111 -208 -169q-75 -42 -120 -52q-36 -7 -62 -4q-39 5 -64.5 29t-37.5 66q-13 46 -6 99q10 79 40 154q38 94 63 145q139 281 286 498q32 47 52 71
q22 27 59 64zM250 109q-36 18 -55 73q-14 -22 -14 -23q-45 -113 -62 -160q-12 -31 -19 -71q-10 -56 -4 -90q5 -34 20.5 -48.5t46.5 -13.5q29 1 64 16q102 44 184 115q317 277 420 726q14 62 12 125q-2 35 -14 63q-23 53 -77 42q-32 -6 -75 -34q-55 -37 -116 -110
q-116 -137 -205 -275q-55 -86 -88 -164q-34 -83 -16 -147q0 -1 -2 -24z" />
    <glyph glyph-name="P" unicode="P" horiz-adv-x="772" 
d="M93 46q2 5 4 10.5t4 10.5t4.5 12t4.5 13q-9 0 -24.5 -2.5t-24 -3t-20 2t-20.5 8.5q-2 11 9 17q25 12 50 23q3 1 56 23q15 34 15 35q144 362 222 607q5 17 10 29q6 15 19 18q20 0 22 -22q1 -9 -2 -27q-14 -82 -62 -231q-9 -30 -20.5 -62.5t-24 -66t-23 -60.5t-25.5 -65
t-24 -61q-1 -3 -15 -40q5 -3 9 -3t6.5 1.5t6 4t4.5 3.5q160 86 289 181q72 53 186 143q52 42 93 95q24 32 49 75q19 32 27 74q18 107 -59 182q-61 58 -160 78q-144 30 -306 -10q-111 -27 -187 -68q-46 -24 -90 -56q-63 -45 -72 -121q-1 -2 -8 -36q-12 -2 -15 11q-9 40 7 92
q13 43 49 80q41 41 94 70q237 133 489 108q77 -8 143 -38q66 -29 112 -79q97 -105 60 -246q-14 -56 -52 -113q-51 -76 -130 -141q-285 -238 -566 -369q0 -1 -12 -7q-10 -18 -10 -19q-84 -217 -130 -340q-5 -13 -12.5 -37t-11.5 -34q0 -2 -2 -7.5t-3 -8.5t-3.5 -7t-5 -7
t-6.5 -5q-16 -3 -22 13q-9 22 -4 43q21 83 24 94q11 31 84 236z" />
    <glyph glyph-name="Q" unicode="Q" horiz-adv-x="883" 
d="M534 -148q-1 1 -8.5 11t-12.5 17q-32 -20 -36 -23q-66 -41 -123 -62q-74 -28 -133 -25q-34 1 -62 9q-75 21 -108 95q-26 58 -23 141q3 82 32 177q61 194 174 393q89 158 177 268q64 81 128 132q27 22 48 33q36 17 68.5 6t50.5 -46q1 -3 19 -52q5 -3 7 -3t7 2t7 2
q4 0 16.5 2t18.5 2q92 3 135 -77q20 -38 25 -90q9 -97 -18 -210q-70 -297 -245 -515q-13 -16 -27.5 -32t-34.5 -36t-29 -30l-23 -23q73 -101 144 -144q59 -37 128 -46q12 -2 35.5 -4.5t34.5 -3.5l16 -4q3 -12 -9 -17q-49 -24 -115 -14q-101 15 -183 82q-43 36 -81 85z
M500 -23q1 0 15 -8q24 18 25 19q50 45 94 100q152 190 221 446q25 92 27 173q1 63 -12 101q-25 73 -102 66q-15 -2 -26 -6q-40 -15 -58 -24q-157 -80 -268 -230q-65 -89 -94 -188q-7 -23 -14 -45q0 -1 -1 -2q-3 -11 -12 -13l-4 9q-12 50 11 119q28 85 94 171
q110 145 273 231q1 1 25 16q-4 28 -25 50q-27 28 -60 8q-17 -10 -37 -28q-61 -55 -118 -131q-66 -90 -135 -211q-119 -208 -181 -407q-25 -78 -32 -149q-8 -68 8 -120q12 -39 35.5 -58t64.5 -22q42 -3 81 7q76 20 159 74q1 0 6 9q-39 28 -90 31q-95 5 -144 -31q6 -13 11 -23
q-22 3 -27 8q-25 22 -4 44q16 17 32 23q35 15 66 22q111 25 196 -31z" />
    <glyph glyph-name="R" unicode="R" horiz-adv-x="784" 
d="M282 156q-28 -14 -37 -28q-5 -20 9 -44q14 -26 31 -50q49 -70 139 -169q17 -19 40.5 -44.5t46 -50t40.5 -44.5q41 -45 57 -79q6 -13 0 -21l-12 3q-46 31 -55 38q-179 165 -290 302q-55 68 -72 116l-8 5q-10 -23 -10 -24q-87 -264 -115 -383q-4 -19 -15 -44l-2 -4t-3 -3.5
t-3.5 -3.5t-3.5 -4l-4 -4l-13 15q-11 27 -4 78q12 83 48 209q11 37 23 76.5t23 74t24.5 76.5t24 74t25 76t24.5 75t172 536q3 10 10 31l11 33l2 14l-8 3q-159 -48 -257 -136q-30 -27 -61 -67q-41 -52 -15 -106l2 -12q-33 25 -37 62q-3 35 13 64q16 31 33 53q49 65 128 115
q112 70 263 109q100 25 197 28q85 3 151 -19q69 -23 113 -73q58 -65 60 -150q2 -90 -45 -180q-45 -89 -129 -181q-116 -128 -281 -223q-22 -13 -163 -86q-11 -5 -33.5 -16t-33.5 -17zM216 226q-1 -2 -12 -41q147 70 154 73q160 75 279 173q134 110 214 248q39 68 49 139
q5 34 -1 65.5t-21.5 57.5t-40 46.5t-56.5 32.5q-36 13 -76 16q-105 8 -222 -17q-1 0 -21 -8q-9 -38 -11 -43q-37 -159 -101 -350q-1 -2 -134 -392z" />
    <glyph glyph-name="S" unicode="S" horiz-adv-x="646" 
d="M44 6q22 23 50 28q0 -9 -3 -17.5t-4.5 -12.5t-7.5 -14t-7 -11q-35 -60 -26 -132q9 -74 54 -132q69 -89 185 -69q86 15 145 86q59 69 43 157q-8 39 -25 90q-25 72 -86 180q-12 22 -35 62.5t-32 57.5q-49 86 -81 165q-28 67 -38 127q-28 163 90 269q125 112 280 141
q82 15 151 -5q25 -7 44 -17q105 -55 98 -173q-5 -97 -76 -185q-14 -18 -35 -37q-53 -51 -140 -107q-7 -5 -10 -5t-14 3q-2 6 0.5 11.5t4.5 7t8 7.5q8 7 20 17t22.5 19.5t19.5 17.5q56 55 79 82q52 61 67 144q5 22 5 42q-1 69 -60 108q-53 35 -128 32q-55 -3 -110 -23
q-97 -37 -173 -100q-20 -17 -39 -38q-55 -60 -56 -142q-2 -61 21 -131q23 -72 63 -147q19 -36 93 -172q58 -106 87 -184q26 -67 31 -121q7 -70 -23 -133q-34 -71 -114.5 -120.5t-164.5 -42.5q-78 5 -127 53q-119 115 -90 278q10 51 44 86z" />
    <glyph glyph-name="T" unicode="T" horiz-adv-x="359" 
d="M1161 851q7 -16 -3 -27q-27 7 -28 8q-47 21 -125 28q-28 3 -56 4.5t-58 1t-54 -1t-58 -2.5t-54 -3.5t-57 -4.5q-107 -8 -205 -26q-2 0 -36 -7q-12 -56 -13 -58q-71 -390 -245 -857q-11 -30 -34 -92.5t-35 -94.5q-8 -22 -20 -47q-4 -10 -12 -20q-10 -11 -25 -6t-15 21
q0 21 3 35q10 43 20 75q14 42 41.5 125t40.5 124q47 144 63 238q15 86 6 140q-11 65 -54 111q-29 32 -75 62q-9 6 -24.5 15.5t-28 17.5t-23.5 16q-26 18 -41 36q-18 21 -17 46t20 46q20 22 52 35q84 34 117 44q161 51 340 74q212 28 414 24q86 -2 163 -17q43 -8 74 -23
t42 -40zM66 725q-3 -1 -8 -3t-8 -3t-7.5 -3.5t-7.5 -4.5t-6.5 -4.5t-6.5 -5.5q1 -5 4.5 -10t6 -7t8.5 -6.5t7 -5.5q9 -7 32.5 -24.5t36.5 -27.5q45 -38 71 -66q52 -55 64 -132q2 -13 2.5 -27t0.5 -32t1 -27q0 -4 0.5 -12.5t0.5 -10.5q54 160 122 481q1 1 1 17q-17 -1 -18 -1
q-109 -26 -133 -32q-96 -25 -163 -53z" />
    <glyph glyph-name="U" unicode="U" horiz-adv-x="774" 
d="M676 318q-3 2 -7 3q-20 -36 -21 -37q-75 -140 -127 -221q-69 -108 -124 -166q-34 -34 -83 -77q-36 -31 -83 -44q-44 -12 -82.5 2.5t-63.5 52.5q-29 45 -34 115q-5 82 12 176q20 113 60 235q74 227 133 360q14 31 37 73q8 15 22 27q11 11 21.5 7.5t15.5 -19.5v-10
q-3 -1 -6 -3t-7 -4.5t-7 -4.5q-13 -29 -14 -31q-115 -308 -178 -571q-32 -130 -28 -217q1 -14 8 -66q1 -6 6 -18q14 -37 42 -49.5t65 1.5q27 11 60 36q62 46 126 128q76 98 138 209q157 284 234 465q12 28 33.5 80.5t26.5 64.5q7 18 13 28q12 19 30 12q10 -3 15 -11.5
t3 -19.5q-2 -8 -11 -33q-136 -371 -142 -386q-87 -248 -133 -430q-3 -12 -43 -195q-10 -44 -11 -46q0 -1 -9 -15q-8 3 -10 17q-6 42 4 113q18 123 72 309q7 25 20.5 70.5t17.5 56.5q0 3 9 33z" />
    <glyph glyph-name="U" unicode="&#xdb;" horiz-adv-x="774" 
d="M676 318q-3 2 -7 3q-20 -36 -21 -37q-75 -140 -127 -221q-69 -108 -124 -166q-34 -34 -83 -77q-36 -31 -83 -44q-44 -12 -82.5 2.5t-63.5 52.5q-29 45 -34 115q-5 82 12 176q20 113 60 235q74 227 133 360q14 31 37 73q8 15 22 27q11 11 21.5 7.5t15.5 -19.5v-10
q-3 -1 -6 -3t-7 -4.5t-7 -4.5q-13 -29 -14 -31q-115 -308 -178 -571q-32 -130 -28 -217q1 -14 8 -66q1 -6 6 -18q14 -37 42 -49.5t65 1.5q27 11 60 36q62 46 126 128q76 98 138 209q157 284 234 465q12 28 33.5 80.5t26.5 64.5q7 18 13 28q12 19 30 12q10 -3 15 -11.5
t3 -19.5q-2 -8 -11 -33q-136 -371 -142 -386q-87 -248 -133 -430q-3 -12 -43 -195q-10 -44 -11 -46q0 -1 -9 -15q-8 3 -10 17q-6 42 4 113q18 123 72 309q7 25 20.5 70.5t17.5 56.5q0 3 9 33z" />
    <glyph glyph-name="U" unicode="&#xda;" horiz-adv-x="774" 
d="M676 318q-3 2 -7 3q-20 -36 -21 -37q-75 -140 -127 -221q-69 -108 -124 -166q-34 -34 -83 -77q-36 -31 -83 -44q-44 -12 -82.5 2.5t-63.5 52.5q-29 45 -34 115q-5 82 12 176q20 113 60 235q74 227 133 360q14 31 37 73q8 15 22 27q11 11 21.5 7.5t15.5 -19.5v-10
q-3 -1 -6 -3t-7 -4.5t-7 -4.5q-13 -29 -14 -31q-115 -308 -178 -571q-32 -130 -28 -217q1 -14 8 -66q1 -6 6 -18q14 -37 42 -49.5t65 1.5q27 11 60 36q62 46 126 128q76 98 138 209q157 284 234 465q12 28 33.5 80.5t26.5 64.5q7 18 13 28q12 19 30 12q10 -3 15 -11.5
t3 -19.5q-2 -8 -11 -33q-136 -371 -142 -386q-87 -248 -133 -430q-3 -12 -43 -195q-10 -44 -11 -46q0 -1 -9 -15q-8 3 -10 17q-6 42 4 113q18 123 72 309q7 25 20.5 70.5t17.5 56.5q0 3 9 33z" />
    <glyph glyph-name="U" unicode="&#xd9;" horiz-adv-x="774" 
d="M676 318q-3 2 -7 3q-20 -36 -21 -37q-75 -140 -127 -221q-69 -108 -124 -166q-34 -34 -83 -77q-36 -31 -83 -44q-44 -12 -82.5 2.5t-63.5 52.5q-29 45 -34 115q-5 82 12 176q20 113 60 235q74 227 133 360q14 31 37 73q8 15 22 27q11 11 21.5 7.5t15.5 -19.5v-10
q-3 -1 -6 -3t-7 -4.5t-7 -4.5q-13 -29 -14 -31q-115 -308 -178 -571q-32 -130 -28 -217q1 -14 8 -66q1 -6 6 -18q14 -37 42 -49.5t65 1.5q27 11 60 36q62 46 126 128q76 98 138 209q157 284 234 465q12 28 33.5 80.5t26.5 64.5q7 18 13 28q12 19 30 12q10 -3 15 -11.5
t3 -19.5q-2 -8 -11 -33q-136 -371 -142 -386q-87 -248 -133 -430q-3 -12 -43 -195q-10 -44 -11 -46q0 -1 -9 -15q-8 3 -10 17q-6 42 4 113q18 123 72 309q7 25 20.5 70.5t17.5 56.5q0 3 9 33z" />
    <glyph glyph-name="V" unicode="V" horiz-adv-x="716" 
d="M333 827q8 15 21 14q16 -6 12 -22q-6 -28 -18 -64q-1 -5 -5.5 -13t-5.5 -12q-146 -397 -172 -471q-49 -135 -63 -246q-5 -39 -3 -94q0 -17 11 -45q4 -9 13 -13.5t20 -1.5q28 9 43 19q62 44 93 71q105 94 207 225q21 26 152 209q1 0 12 21q-11 56 -12 60q-3 40 13 89
q61 174 188 289q21 18 38 28q27 14 48 0.5t19 -44.5q-1 -16 -7 -31q-18 -51 -29 -76q-56 -129 -161 -291q-2 -3 -25 -48q-33 -40 -34 -41q-112 -163 -174 -237q-85 -102 -156 -171q-68 -67 -130 -106q-39 -25 -72 -31q-35 -7 -63 6t-44 45q-18 35 -21 87q-3 74 21 174
q24 104 70 224q74 197 193 455q8 18 21 42zM848 755q-42 -31 -96 -130t-54 -146q14 15 14 16q83 130 136 249v11z" />
    <glyph glyph-name="W" unicode="W" horiz-adv-x="1124" 
d="M1233 765q1 1 2 4.5t1.5 5t2 4.5t2.5 4.5l3 4.5t3.5 5t4.5 4l6 4q7 -32 0 -77q-12 -73 -45 -162q-69 -188 -172 -346q-48 -74 -95 -119q-40 -39 -77 -60q-51 -29 -101 -27q-51 2 -82.5 32t-35.5 81q-4 48 13 112q1 5 19 71q-5 -2 -8.5 -5t-6.5 -6.5t-5 -6t-4.5 -6.5
t-3.5 -6q-100 -142 -186 -238q-127 -141 -225 -212q-37 -26 -88 -58q-28 -16 -60 -18q-34 -2 -54.5 17t-22.5 48q-3 30 2 66q9 52 40 131q63 156 162 322q124 211 270 417q51 73 98 117q25 23 46 37q17 11 36 13q24 3 39 -11t16 -39q0 -1 -3 -7q-4 0 -5.5 0.5t-3.5 4t-3 3.5
q-14 17 -25 18.5t-28 -11.5t-28 -27q-63 -74 -76 -94q-60 -87 -140 -213q-123 -196 -199 -342q-67 -128 -103 -224q-13 -35 -31 -101q-5 -19 -4.5 -27t5.5 -33q2 0 7 -0.5t7.5 -0.5t6.5 1q35 16 55 29q88 57 170 139q146 144 246 289q15 21 180 270q1 2 9 14.5t13 18.5
q8 12 15 17q18 14 37 3q17 -10 16 -30q0 -11 -4 -23q-12 -35 -24 -66q-63 -167 -84 -248q-5 -20 -13 -69q-2 -11 0 -28q3 -56 59 -58q35 -1 64 17q37 23 67 48q39 34 81 95q151 223 226 476q15 53 16 56z" />
    <glyph glyph-name="X" unicode="X" horiz-adv-x="659" 
d="M-5 -570q-1 -1 -7 -13q-20 -4 -24 16q-5 22 -1 38q5 28 19 64q28 76 82 178q117 220 272 457q1 1 25 37q0 24 -8 68t-9 59q-2 13 -7 57t-7 68t-4 68t-3 61q-1 13 -1.5 38.5t-2 46t-5.5 37.5q-8 4 -13 -6q-28 -50 -38.5 -72.5t-30 -64t-25.5 -52.5q0 -1 -15 -30
q-11 2 -9 12q3 26 7 39q31 110 66 184q9 20 24 44q7 12 17 21q15 14 33 11.5t28 -19.5t14 -40q7 -34 10 -70q2 -32 7.5 -107t8.5 -116q2 -18 15 -132q0 -1 5 -18q18 22 19 23q13 19 54 79t64 92q73 104 152 214q15 21 42 52q13 15 26 23q14 8 29 10q14 1 21.5 -8t3.5 -22
q-1 -2 -18 -39q0 2 -8 29q-19 -20 -20 -21q-17 -23 -38 -55q-143 -217 -299 -455q-1 0 -14 -24q18 -109 59 -283q37 -159 87 -273q-9 -11 -20 -6q-31 14 -48 50q-21 42 -34 79q-40 111 -85 310q-5 20 -8 34l-6 7q-14 -17 -15 -18q-185 -280 -313 -528q-43 -83 -54 -134z" />
    <glyph glyph-name="Y" unicode="Y" horiz-adv-x="728" 
d="M484 63l4 4q40 40 69 50q56 205 77 283v16q-22 -30 -23 -31q-113 -163 -121 -173q-70 -98 -148 -161q-57 -46 -107 -65q-43 -16 -84 -14q-64 4 -88 62q-17 43 -12 92q7 60 25 119q32 99 89 218q69 145 162 303q22 37 62 91q15 21 36 35q21 15 37 7t18 -33q2 -18 -3 -38
q-4 3 -6 8t-3.5 9.5l-3 9t-5.5 8.5t-10 6q-20 -19 -21 -21q-26 -35 -37 -55q-156 -282 -230 -475q-37 -95 -46 -154q-3 -21 -5 -78q-1 -11 4 -27q11 -34 43 -33q30 0 54 6q38 10 86 46q62 46 108 102q177 215 290 450q5 10 9.5 22t9.5 26t8 22q15 37 21 50q4 10 13 20
q12 13 29 5q15 -8 15 -25q0 -7 -2 -12q-2 -7 -5 -15q-14 -31 -27 -69t-21 -65.5t-20 -73.5t-19 -68q-8 -29 -54.5 -193t-71.5 -251q-42 -142 -107 -269q-50 -97 -104 -161q-42 -50 -83 -78q-18 -12 -61 -33q-22 -11 -54 -8q-26 2 -42.5 18.5t-17.5 42.5q-1 22 6 50
q8 33 39 85q55 95 143 206q83 107 185 207zM177 -433q-15 -33 -8 -58q27 -2 28 -1q24 3 57 25q53 35 98 95q47 64 88 152q61 129 104 291q0 2 4 18q-18 -26 -56 -70t-46 -54q-94 -116 -133 -169q-41 -55 -91 -138q-18 -30 -45 -91z" />
    <glyph glyph-name="Y" unicode="&#xdd;" horiz-adv-x="728" 
d="M484 63l4 4q40 40 69 50q56 205 77 283v16q-22 -30 -23 -31q-113 -163 -121 -173q-70 -98 -148 -161q-57 -46 -107 -65q-43 -16 -84 -14q-64 4 -88 62q-17 43 -12 92q7 60 25 119q32 99 89 218q69 145 162 303q22 37 62 91q15 21 36 35q21 15 37 7t18 -33q2 -18 -3 -38
q-4 3 -6 8t-3.5 9.5l-3 9t-5.5 8.5t-10 6q-20 -19 -21 -21q-26 -35 -37 -55q-156 -282 -230 -475q-37 -95 -46 -154q-3 -21 -5 -78q-1 -11 4 -27q11 -34 43 -33q30 0 54 6q38 10 86 46q62 46 108 102q177 215 290 450q5 10 9.5 22t9.5 26t8 22q15 37 21 50q4 10 13 20
q12 13 29 5q15 -8 15 -25q0 -7 -2 -12q-2 -7 -5 -15q-14 -31 -27 -69t-21 -65.5t-20 -73.5t-19 -68q-8 -29 -54.5 -193t-71.5 -251q-42 -142 -107 -269q-50 -97 -104 -161q-42 -50 -83 -78q-18 -12 -61 -33q-22 -11 -54 -8q-26 2 -42.5 18.5t-17.5 42.5q-1 22 6 50
q8 33 39 85q55 95 143 206q83 107 185 207zM177 -433q-15 -33 -8 -58q27 -2 28 -1q24 3 57 25q53 35 98 95q47 64 88 152q61 129 104 291q0 2 4 18q-18 -26 -56 -70t-46 -54q-94 -116 -133 -169q-41 -55 -91 -138q-18 -30 -45 -91z" />
    <glyph glyph-name="Z" unicode="Z" horiz-adv-x="800" 
d="M233 496q-19 -18 -26 -30t-17 -43q-12 19 -13 20q-5 19 5 38q23 41 33 53q168 197 365 289q26 12 47 19t38 9q22 2 39.5 -7t26 -26t6.5 -39q-3 -36 -22 -66q-28 -46 -50 -76q-92 -125 -213 -260q-25 -28 -74 -87q-1 -1 -4 -4.5t-4.5 -5.5t-3 -5.5t-1.5 -7.5q4 -2 8 -2
t6.5 1t8 3t6.5 2q93 30 156 38q35 5 90 4q18 0 41 -9q58 -24 66 -86q8 -59 -12 -116q-12 -35 -27 -65q-115 -235 -318 -397q-68 -54 -142 -90q-51 -24 -96 -32q-32 -5 -55 -1q-34 4 -49 28t-6 57t35 61q40 42 70 68q91 77 201 135q34 18 67 33q100 43 170 46q15 22 16 23
q44 81 63 117q20 39 25 82q3 21 -1 46q-4 31 -36 37q-29 6 -54 5q-62 -4 -157 -31q-71 -20 -79 -22q-22 -6 -39 -5q-18 2 -28.5 16t-4.5 32q7 25 22 45q19 27 63 80q19 22 45.5 54.5t46.5 56t44.5 54t45.5 55.5q30 37 87 121q27 39 29 70q-17 1 -18 1q-19 -6 -44 -17
q-126 -58 -232 -144q-61 -49 -146 -125zM532 -133l12 19l-5 5q-31 -11 -33 -12q-161 -70 -296 -186q-19 -16 -65 -63q-19 -20 -25 -41q23 -2 24 -2q51 12 71 19q57 20 123 69q105 78 194 192z" />
    <glyph glyph-name="bracketleft" unicode="[" horiz-adv-x="549" 
d="M628 966q25 2 35 -9q-3 -10 -19 -13q-22 -4 -47 -9t-55.5 -10.5t-46.5 -8.5q-3 -1 -6 -1.5t-6.5 -1.5t-4.5 -1l-5 -9q-12 -81 -55 -196q-39 -102 -62 -156q-31 -75 -66.5 -159.5t-78.5 -186.5t-67 -159q-1 -2 -17 -44q6 -3 12.5 -4t15.5 0t12 1q7 -1 91.5 -0.5t92.5 -0.5
q21 -1 57 -11q24 -8 22 -28q-6 -12 -24 -11q-10 2 -42.5 0.5t-42.5 -1.5t-42.5 -3.5t-42 -4.5t-42 -4.5t-41.5 -5.5q-30 -3 -51 -2q-30 1 -43.5 19t-5.5 47q4 16 15 44q58 150 217 516q32 71 93 220q28 69 43 138q3 17 5 23q7 18 26 21q12 2 23 3q61 3 153 8z" />
    <glyph glyph-name="backslash" unicode="\" horiz-adv-x="414" 
d="M327 7q5 -15 10 -49q0 -1 -5 -21q-3 1 -8 2.5t-8.5 3t-5.5 3.5q-19 21 -27 37q-31 61 -48 104q-142 353 -224 605q-17 53 -72 248q-4 16 -5 46q0 13 14 18q15 5 24 -6q6 -8 11 -17q20 -42 24 -53q33 -83 48 -129l105 -309l105 -309q11 -30 31.5 -87.5t30.5 -86.5z" />
    <glyph glyph-name="bracketright" unicode="]" horiz-adv-x="664" 
d="M567 913q48 -9 46 -58q-1 -15 -5 -30q-10 -35 -19 -60q-15 -40 -77 -208t-95 -258q-13 -38 -31.5 -83t-31.5 -75t-36.5 -83t-34.5 -77q-16 -37 -54 -38q-167 -2 -195 -2q-1 0 -25 4q-8 18 -6.5 27t14.5 12q27 7 69 13q74 10 125 6q1 0 15 1q5 5 8.5 11t7 15.5t5.5 11.5
q29 63 60.5 140t50.5 126t56 147t50 133q8 21 18 45.5t18 44.5t19 46.5t18 44.5q17 42 26 66q8 21 2 34q-2 2 -4.5 3.5t-4.5 2.5t-5 2t-5 1.5t-5 0.5h-5h-5.5h-5.5q-53 0 -129 -2q-5 0 -88 -3q-2 2 -7 8l5.5 5.5l6 6t5.5 3.5q19 7 38 9q91 10 176 10q23 -1 35 -3z" />
    <glyph glyph-name="asciicircum" unicode="^" horiz-adv-x="422" 
d="M363 535q12 -112 8 -164q-1 -29 -6 -54q0 -2 -13 -31q-3 3 -7 7.5t-6 6.5t-3 5q-8 26 -10 45q-3 29 -8.5 82.5t-7.5 69.5q-2 26 -11 51q-16 -12 -17 -12q-35 -38 -52 -58q-78 -91 -153 -157q-1 -1 -14 -11q-18 1 -11 16t16 26q67 76 161 202q9 12 25 30q11 12 20 19
q22 17 44 11.5t32 -31.5q11 -25 13 -53z" />
    <glyph glyph-name="underscore" unicode="_" horiz-adv-x="579" 
d="M513 49q3 -1 6 -3.5t6 -5.5l4 -4q2 -18 -14 -24q-18 -8 -33 -10q-42 -5 -121 -13q-25 -3 -82.5 -9t-88.5 -10q-17 -1 -31 -6q-1 0 -3 -2t-5 -6.5l-5 -7.5q-48 -5 -51 -5q-36 -1 -44 27q-7 26 22 46q27 18 74 25q88 14 195 16q58 1 129 -1q19 0 42 -7z" />
    <glyph glyph-name="grave" unicode="`" horiz-adv-x="304" 
d="M193 800q40 -4 61 -14q-19 -22 -62 -30q-49 -9 -100 9q-12 4 -31 17q-13 9 -11 28q1 9 8 15.5t16 5.5q14 0 22 -5q31 -19 97 -26z" />
    <glyph glyph-name="a" unicode="a" horiz-adv-x="419" 
d="M414 128q3 2 11.5 8.5t15.5 10.5t16 6q-5 -16 -5 -17q-56 -94 -168 -117q-15 -3 -43 3q-38 8 -47 47q0 1 -3 18q-8 4 -18 -5q-73 -63 -77 -66q-22 -17 -66 -43q-14 -9 -33 -12q-27 -5 -44 10.5t-14 43.5q3 25 14 48q18 38 39 68q57 82 135 152q22 20 44 33q16 11 36 15
q21 5 37.5 -6.5t19.5 -32.5q3 -22 -4 -54q-1 -4 -17 -50q18 -22 11 -66q0 -3 -2 -11.5t-2.5 -12.5t0 -10.5t2.5 -11.5q8 -10 29 -10q32 1 60 17q16 9 73 45zM218 200q1 6 3 24t1.5 31t-6.5 26q-59 -24 -147 -138q-20 -26 -28 -36.5t-20.5 -33t-18.5 -44.5q17 0 38 17
q52 42 102 85q5 4 76 69z" />
    <glyph glyph-name="a" unicode="&#xe5;" horiz-adv-x="419" 
d="M414 128q3 2 11.5 8.5t15.5 10.5t16 6q-5 -16 -5 -17q-56 -94 -168 -117q-15 -3 -43 3q-38 8 -47 47q0 1 -3 18q-8 4 -18 -5q-73 -63 -77 -66q-22 -17 -66 -43q-14 -9 -33 -12q-27 -5 -44 10.5t-14 43.5q3 25 14 48q18 38 39 68q57 82 135 152q22 20 44 33q16 11 36 15
q21 5 37.5 -6.5t19.5 -32.5q3 -22 -4 -54q-1 -4 -17 -50q18 -22 11 -66q0 -3 -2 -11.5t-2.5 -12.5t0 -10.5t2.5 -11.5q8 -10 29 -10q32 1 60 17q16 9 73 45zM218 200q1 6 3 24t1.5 31t-6.5 26q-59 -24 -147 -138q-20 -26 -28 -36.5t-20.5 -33t-18.5 -44.5q17 0 38 17
q52 42 102 85q5 4 76 69z" />
    <glyph glyph-name="a" unicode="&#xe3;" horiz-adv-x="419" 
d="M414 128q3 2 11.5 8.5t15.5 10.5t16 6q-5 -16 -5 -17q-56 -94 -168 -117q-15 -3 -43 3q-38 8 -47 47q0 1 -3 18q-8 4 -18 -5q-73 -63 -77 -66q-22 -17 -66 -43q-14 -9 -33 -12q-27 -5 -44 10.5t-14 43.5q3 25 14 48q18 38 39 68q57 82 135 152q22 20 44 33q16 11 36 15
q21 5 37.5 -6.5t19.5 -32.5q3 -22 -4 -54q-1 -4 -17 -50q18 -22 11 -66q0 -3 -2 -11.5t-2.5 -12.5t0 -10.5t2.5 -11.5q8 -10 29 -10q32 1 60 17q16 9 73 45zM218 200q1 6 3 24t1.5 31t-6.5 26q-59 -24 -147 -138q-20 -26 -28 -36.5t-20.5 -33t-18.5 -44.5q17 0 38 17
q52 42 102 85q5 4 76 69z" />
    <glyph glyph-name="a" unicode="&#xe2;" horiz-adv-x="419" 
d="M414 128q3 2 11.5 8.5t15.5 10.5t16 6q-5 -16 -5 -17q-56 -94 -168 -117q-15 -3 -43 3q-38 8 -47 47q0 1 -3 18q-8 4 -18 -5q-73 -63 -77 -66q-22 -17 -66 -43q-14 -9 -33 -12q-27 -5 -44 10.5t-14 43.5q3 25 14 48q18 38 39 68q57 82 135 152q22 20 44 33q16 11 36 15
q21 5 37.5 -6.5t19.5 -32.5q3 -22 -4 -54q-1 -4 -17 -50q18 -22 11 -66q0 -3 -2 -11.5t-2.5 -12.5t0 -10.5t2.5 -11.5q8 -10 29 -10q32 1 60 17q16 9 73 45zM218 200q1 6 3 24t1.5 31t-6.5 26q-59 -24 -147 -138q-20 -26 -28 -36.5t-20.5 -33t-18.5 -44.5q17 0 38 17
q52 42 102 85q5 4 76 69z" />
    <glyph glyph-name="a" unicode="&#xe1;" horiz-adv-x="419" 
d="M414 128q3 2 11.5 8.5t15.5 10.5t16 6q-5 -16 -5 -17q-56 -94 -168 -117q-15 -3 -43 3q-38 8 -47 47q0 1 -3 18q-8 4 -18 -5q-73 -63 -77 -66q-22 -17 -66 -43q-14 -9 -33 -12q-27 -5 -44 10.5t-14 43.5q3 25 14 48q18 38 39 68q57 82 135 152q22 20 44 33q16 11 36 15
q21 5 37.5 -6.5t19.5 -32.5q3 -22 -4 -54q-1 -4 -17 -50q18 -22 11 -66q0 -3 -2 -11.5t-2.5 -12.5t0 -10.5t2.5 -11.5q8 -10 29 -10q32 1 60 17q16 9 73 45zM218 200q1 6 3 24t1.5 31t-6.5 26q-59 -24 -147 -138q-20 -26 -28 -36.5t-20.5 -33t-18.5 -44.5q17 0 38 17
q52 42 102 85q5 4 76 69z" />
    <glyph glyph-name="a" unicode="&#xe0;" horiz-adv-x="419" 
d="M414 128q3 2 11.5 8.5t15.5 10.5t16 6q-5 -16 -5 -17q-56 -94 -168 -117q-15 -3 -43 3q-38 8 -47 47q0 1 -3 18q-8 4 -18 -5q-73 -63 -77 -66q-22 -17 -66 -43q-14 -9 -33 -12q-27 -5 -44 10.5t-14 43.5q3 25 14 48q18 38 39 68q57 82 135 152q22 20 44 33q16 11 36 15
q21 5 37.5 -6.5t19.5 -32.5q3 -22 -4 -54q-1 -4 -17 -50q18 -22 11 -66q0 -3 -2 -11.5t-2.5 -12.5t0 -10.5t2.5 -11.5q8 -10 29 -10q32 1 60 17q16 9 73 45zM218 200q1 6 3 24t1.5 31t-6.5 26q-59 -24 -147 -138q-20 -26 -28 -36.5t-20.5 -33t-18.5 -44.5q17 0 38 17
q52 42 102 85q5 4 76 69z" />
    <glyph glyph-name="b" unicode="b" horiz-adv-x="332" 
d="M276 788q-58 -159 -175 -486q-12 -32 -14 -54q20 19 22 20q36 37 78 59q24 12 43 18q39 11 68 -8.5t33 -59.5q2 -22 -4 -54q-7 -37 -36 -78q-74 -107 -197 -189q-13 -9 -31 -15q-30 -10 -45 14q-13 21 6 43q1 2 24 22q2 -2 6 -4.5t7 -4.5t5 -4q7 2 8 2q87 68 150 148
q29 37 41 71q12 32 1 56q-19 8 -46 -5q-57 -28 -92 -77q-25 -35 -55 -86q-10 -16 -27 -47t-23 -42q-9 -17 -19 -29q-15 -17 -36 -8q-19 7 -18 27q1 24 5 39q5 15 22 72.5t29 94t25 71.5q74 200 200 523q14 36 71 161q9 20 25 40q13 16 30 3q8 -34 -21 -116l-6 9
q-8 -1 -14 -16q-30 -80 -40 -110z" />
    <glyph glyph-name="c" unicode="c" horiz-adv-x="314" 
d="M340 203q1 -18 0 -19q-8 -37 -36 -68q-87 -98 -219 -140q-17 -5 -34 -7q-26 -2 -44.5 13t-21.5 40q-5 31 6 54q24 52 36 69q39 61 100 120q12 12 37 29q18 13 41 9q6 0 11 -3t8.5 -7.5t4.5 -10.5t0 -12q-3 -16 -32 -50q1 10 2 23t2 18l-19 -10q-85 -89 -125 -175
q-12 -27 -7 -44h21q110 26 202 113q7 6 15 14l16 16l14 14q1 1 22 14z" />
    <glyph glyph-name="c" unicode="&#xe7;" horiz-adv-x="314" 
d="M340 203q1 -18 0 -19q-8 -37 -36 -68q-87 -98 -219 -140q-17 -5 -34 -7q-26 -2 -44.5 13t-21.5 40q-5 31 6 54q24 52 36 69q39 61 100 120q12 12 37 29q18 13 41 9q6 0 11 -3t8.5 -7.5t4.5 -10.5t0 -12q-3 -16 -32 -50q1 10 2 23t2 18l-19 -10q-85 -89 -125 -175
q-12 -27 -7 -44h21q110 26 202 113q7 6 15 14l16 16l14 14q1 1 22 14z" />
    <glyph glyph-name="d" unicode="d" horiz-adv-x="525" 
d="M797 1079q13 -4 19 -16.5t2 -28.5q-7 -25 -18 -52q-69 -173 -83 -203q-126 -274 -241 -632q-67 -207 -102 -370q-1 -1 -2.5 -7.5t-2 -8.5t-2 -7.5t-2.5 -8t-3.5 -6.5t-5 -6.5t-6.5 -5.5q-15 -1 -22 15q-12 25 -5 65q24 131 33 165q6 26 71 253l14 47q-4 0 -7.5 -2
t-5.5 -4t-4.5 -6t-3.5 -5q-77 -101 -186 -194q-81 -69 -157 -95q-32 -10 -53 -12q-37 -3 -53.5 18.5t-4.5 56.5q9 26 25 48q80 112 217 182q7 3 22 8q75 24 116 -23l20 20q86 109 157 243q5 9 19 43q24 59 61.5 149t71 171.5t61.5 149.5q11 26 19 39q17 29 42 20zM325 216
l11 15q-24 25 -59.5 17.5t-74.5 -34.5q-81 -56 -139 -125q-10 -13 -39 -59q-8 -13 2 -22q17 3 18 3q62 17 119 58q81 58 162 147z" />
    <glyph glyph-name="e" unicode="e" horiz-adv-x="333" 
d="M334 229q9 -37 -2 -81q-21 -88 -92 -156q-32 -31 -78 -43q-71 -19 -122 24t-45 116q8 89 78 153q27 26 61 32q15 3 24 2q37 -3 50.5 -29t-5.5 -57q-40 -66 -119 -90q-4 -2 -11.5 -4t-10.5 -2q0 -1 -3 -3q-6 -45 18 -70t67 -19q45 5 79 40q67 67 83 152q7 36 14 47
q11 1 14 -12zM112 204q-36 -32 -34 -63q47 20 72 51q1 0 4.5 4.5t4 5.5t3.5 6t2 7t-1 8q-9 5 -20 1t-16.5 -7.5t-14.5 -12.5z" />
    <glyph glyph-name="e" unicode="&#xeb;" horiz-adv-x="333" 
d="M334 229q9 -37 -2 -81q-21 -88 -92 -156q-32 -31 -78 -43q-71 -19 -122 24t-45 116q8 89 78 153q27 26 61 32q15 3 24 2q37 -3 50.5 -29t-5.5 -57q-40 -66 -119 -90q-4 -2 -11.5 -4t-10.5 -2q0 -1 -3 -3q-6 -45 18 -70t67 -19q45 5 79 40q67 67 83 152q7 36 14 47
q11 1 14 -12zM112 204q-36 -32 -34 -63q47 20 72 51q1 0 4.5 4.5t4 5.5t3.5 6t2 7t-1 8q-9 5 -20 1t-16.5 -7.5t-14.5 -12.5z" />
    <glyph glyph-name="e" unicode="&#xea;" horiz-adv-x="333" 
d="M334 229q9 -37 -2 -81q-21 -88 -92 -156q-32 -31 -78 -43q-71 -19 -122 24t-45 116q8 89 78 153q27 26 61 32q15 3 24 2q37 -3 50.5 -29t-5.5 -57q-40 -66 -119 -90q-4 -2 -11.5 -4t-10.5 -2q0 -1 -3 -3q-6 -45 18 -70t67 -19q45 5 79 40q67 67 83 152q7 36 14 47
q11 1 14 -12zM112 204q-36 -32 -34 -63q47 20 72 51q1 0 4.5 4.5t4 5.5t3.5 6t2 7t-1 8q-9 5 -20 1t-16.5 -7.5t-14.5 -12.5z" />
    <glyph glyph-name="e" unicode="&#xe9;" horiz-adv-x="333" 
d="M334 229q9 -37 -2 -81q-21 -88 -92 -156q-32 -31 -78 -43q-71 -19 -122 24t-45 116q8 89 78 153q27 26 61 32q15 3 24 2q37 -3 50.5 -29t-5.5 -57q-40 -66 -119 -90q-4 -2 -11.5 -4t-10.5 -2q0 -1 -3 -3q-6 -45 18 -70t67 -19q45 5 79 40q67 67 83 152q7 36 14 47
q11 1 14 -12zM112 204q-36 -32 -34 -63q47 20 72 51q1 0 4.5 4.5t4 5.5t3.5 6t2 7t-1 8q-9 5 -20 1t-16.5 -7.5t-14.5 -12.5z" />
    <glyph glyph-name="e" unicode="&#xe8;" horiz-adv-x="333" 
d="M334 229q9 -37 -2 -81q-21 -88 -92 -156q-32 -31 -78 -43q-71 -19 -122 24t-45 116q8 89 78 153q27 26 61 32q15 3 24 2q37 -3 50.5 -29t-5.5 -57q-40 -66 -119 -90q-4 -2 -11.5 -4t-10.5 -2q0 -1 -3 -3q-6 -45 18 -70t67 -19q45 5 79 40q67 67 83 152q7 36 14 47
q11 1 14 -12zM112 204q-36 -32 -34 -63q47 20 72 51q1 0 4.5 4.5t4 5.5t3.5 6t2 7t-1 8q-9 5 -20 1t-16.5 -7.5t-14.5 -12.5z" />
    <glyph glyph-name="f" unicode="f" horiz-adv-x="280" 
d="M278 545q-3 4 -3.5 7.5t0.5 6t3 5.5t3 5q2 4 6.5 12.5t7 16.5t2.5 17q-21 -23 -49 -73.5t-85 -170.5q-100 -211 -110 -279q33 22 35 22q118 74 134 82q17 10 81 31q1 1 25 1q5 -13 -5 -21q-30 -21 -44 -29q-16 -9 -33 -19t-31.5 -19.5t-32.5 -21.5t-31 -21t-31.5 -22.5
t-30 -22t-31 -23.5t-30.5 -22q-22 -16 -23 -47q24 -29 25 -30q61 -70 51 -169q-18 -173 -105 -314q-12 -20 -47 -58q-13 -15 -32 -25q-28 -16 -49.5 -4t-27.5 45q-5 29 -3 66q5 75 39 220q2 5 42 160q0 3 10 42q-36 10 -38 11q-14 6 -17 20t7 26q16 17 32 25q52 27 80 106
q86 252 243 522q20 35 52 71q15 18 39 28q19 8 33.5 -5.5t12.5 -35.5q-2 -15 -10 -33q-22 -47 -64 -83zM32 -198q-5 64 -42 101l-7 -6q-5 -12 -9 -25q-44 -141 -75 -290q-6 -26 -20 -126l3 -23q18 12 19 13q29 28 52 71q56 104 76 224q5 29 3 61z" />
    <glyph glyph-name="g" unicode="g" horiz-adv-x="476" 
d="M504 195q1 0 22 6q-4 -17 -4 -18q-19 -40 -63 -78q-42 -36 -109 -91q-122 -99 -174 -140q-29 -23 -41 -59q-46 -135 -113 -249q-42 -73 -85 -123t-90 -80q-47 -31 -91 -34q-20 -2 -34 1q-36 9 -51.5 34.5t-5.5 60.5q9 33 30 72q30 56 93 121q69 72 205 188q43 37 106 87
q19 15 24 34q2 9 19.5 76t27.5 102q0 1 -1 17q-33 -21 -34 -22q-39 -24 -76 -29q-16 -2 -23 -2q-39 2 -55.5 28t-0.5 59q55 109 169 163q5 2 11 3q19 4 30 -6.5t7 -29.5q-7 -26 -33 -61q-5 2 -5.5 4.5t1 6.5t1.5 5q1 3 2 6.5t1.5 7t1.5 5.5q0 2 1 23q-6 -2 -11.5 -4.5
t-11 -6t-10 -6t-10 -7t-8.5 -6.5t-8.5 -8t-7.5 -7.5t-8 -8t-8 -7.5q-55 -57 -67 -96q8 -17 28 -17q31 0 63 20q36 22 64 62q3 4 26 39q1 2 2.5 4.5t2.5 4t2.5 4t2.5 4.5q12 16 28 8q14 -7 12 -22q-1 -12 -5 -27q-7 -31 -17 -72t-20 -81t-18 -71v-15q27 17 28 18
q27 20 109 81t127 94q19 14 52 35zM66 -236q1 1 0 14q-20 -15 -21 -15q-181 -170 -216 -204q-25 -25 -74 -90q-12 -16 -30 -55q0 -1 -3 -24q19 -18 54 -10q31 8 66 33q47 36 91 96q76 107 133 255z" />
    <glyph glyph-name="h" unicode="h" horiz-adv-x="345" 
d="M393 128q5 -11 -7 -16q-63 -28 -126 -4q-46 17 -55 66q-1 1 -6 30q-20 -12 -20 -13q-11 -12 -23.5 -26.5t-27.5 -32.5t-23 -27q-84 -100 -124 -147q-14 -16 -25 -25q-17 -13 -36 -1q-18 11 -14 30q4 17 13 41q47 130 124 296l144 313q99 234 145 351q10 26 15 36
q1 3 3.5 5t6 4.5t5.5 4.5q9 -13 10 -14q1 -5 -2 -15q-88 -296 -237 -622q-76 -166 -107 -235q-12 -26 -10 -41q22 18 22 19q14 17 41 50.5t40 50.5q41 49 71 84q16 18 29 25q20 10 38 1t21 -32q1 -13 -3 -42q-1 -8 -4.5 -25t-4.5 -25q-4 -40 32 -57q30 -14 65 -11q2 1 30 4z
" />
    <glyph glyph-name="i" unicode="i" horiz-adv-x="209" 
d="M245 153q2 -19 2 -20q-2 -27 -26 -56q-31 -37 -72 -59.5t-92 -32.5q-25 -5 -45.5 9.5t-26.5 41.5q-5 23 2 46q11 38 28 72q29 58 90 174q1 1 16 18q25 -4 21 -26q-3 -18 -11 -37q-9 -22 -26.5 -63.5t-25.5 -59.5q-15 -35 -30 -76q-9 -24 -1 -41q23 -2 24 -1q82 14 135 74
q2 3 6 7.5t6.5 8t6.5 7.5t9 7.5t10 6.5zM145 423q-13 6 -18 19q-7 14 -0.5 31.5t22.5 29.5q15 11 35 15q4 0 8 -1t9.5 -3.5t9.5 -3.5q-1 -3 -2.5 -8t-2.5 -7.5t-3 -4.5q-23 -17 -36 -64q-3 0 -8 -1.5t-7.5 -1.5h-6.5z" />
    <glyph glyph-name="i" unicode="&#xef;" horiz-adv-x="209" 
d="M245 153q2 -19 2 -20q-2 -27 -26 -56q-31 -37 -72 -59.5t-92 -32.5q-25 -5 -45.5 9.5t-26.5 41.5q-5 23 2 46q11 38 28 72q29 58 90 174q1 1 16 18q25 -4 21 -26q-3 -18 -11 -37q-9 -22 -26.5 -63.5t-25.5 -59.5q-15 -35 -30 -76q-9 -24 -1 -41q23 -2 24 -1q82 14 135 74
q2 3 6 7.5t6.5 8t6.5 7.5t9 7.5t10 6.5zM145 423q-13 6 -18 19q-7 14 -0.5 31.5t22.5 29.5q15 11 35 15q4 0 8 -1t9.5 -3.5t9.5 -3.5q-1 -3 -2.5 -8t-2.5 -7.5t-3 -4.5q-23 -17 -36 -64q-3 0 -8 -1.5t-7.5 -1.5h-6.5z" />
    <glyph glyph-name="i" unicode="&#xee;" horiz-adv-x="209" 
d="M245 153q2 -19 2 -20q-2 -27 -26 -56q-31 -37 -72 -59.5t-92 -32.5q-25 -5 -45.5 9.5t-26.5 41.5q-5 23 2 46q11 38 28 72q29 58 90 174q1 1 16 18q25 -4 21 -26q-3 -18 -11 -37q-9 -22 -26.5 -63.5t-25.5 -59.5q-15 -35 -30 -76q-9 -24 -1 -41q23 -2 24 -1q82 14 135 74
q2 3 6 7.5t6.5 8t6.5 7.5t9 7.5t10 6.5zM145 423q-13 6 -18 19q-7 14 -0.5 31.5t22.5 29.5q15 11 35 15q4 0 8 -1t9.5 -3.5t9.5 -3.5q-1 -3 -2.5 -8t-2.5 -7.5t-3 -4.5q-23 -17 -36 -64q-3 0 -8 -1.5t-7.5 -1.5h-6.5z" />
    <glyph glyph-name="i" unicode="&#xed;" horiz-adv-x="209" 
d="M245 153q2 -19 2 -20q-2 -27 -26 -56q-31 -37 -72 -59.5t-92 -32.5q-25 -5 -45.5 9.5t-26.5 41.5q-5 23 2 46q11 38 28 72q29 58 90 174q1 1 16 18q25 -4 21 -26q-3 -18 -11 -37q-9 -22 -26.5 -63.5t-25.5 -59.5q-15 -35 -30 -76q-9 -24 -1 -41q23 -2 24 -1q82 14 135 74
q2 3 6 7.5t6.5 8t6.5 7.5t9 7.5t10 6.5zM145 423q-13 6 -18 19q-7 14 -0.5 31.5t22.5 29.5q15 11 35 15q4 0 8 -1t9.5 -3.5t9.5 -3.5q-1 -3 -2.5 -8t-2.5 -7.5t-3 -4.5q-23 -17 -36 -64q-3 0 -8 -1.5t-7.5 -1.5h-6.5z" />
    <glyph glyph-name="i" unicode="&#xec;" horiz-adv-x="209" 
d="M245 153q2 -19 2 -20q-2 -27 -26 -56q-31 -37 -72 -59.5t-92 -32.5q-25 -5 -45.5 9.5t-26.5 41.5q-5 23 2 46q11 38 28 72q29 58 90 174q1 1 16 18q25 -4 21 -26q-3 -18 -11 -37q-9 -22 -26.5 -63.5t-25.5 -59.5q-15 -35 -30 -76q-9 -24 -1 -41q23 -2 24 -1q82 14 135 74
q2 3 6 7.5t6.5 8t6.5 7.5t9 7.5t10 6.5zM145 423q-13 6 -18 19q-7 14 -0.5 31.5t22.5 29.5q15 11 35 15q4 0 8 -1t9.5 -3.5t9.5 -3.5q-1 -3 -2.5 -8t-2.5 -7.5t-3 -4.5q-23 -17 -36 -64q-3 0 -8 -1.5t-7.5 -1.5h-6.5z" />
    <glyph glyph-name="j" unicode="j" horiz-adv-x="172" 
d="M208 144q5 -8 -4 -16l-1 -1q-10 -10 -34 -33t-36 -36q-20 -21 -56.5 -59.5t-51.5 -53.5q-13 -13 -20.5 -28t-11.5 -34q-48 -206 -91 -332q-22 -66 -62 -165q-21 -52 -59 -101q-29 -38 -59 -57q-43 -26 -79 -8.5t-46 63.5q-7 35 5 81q25 92 79 179q60 99 100 154
q49 69 150 201q23 29 30 59q26 107 45 174q7 25 39 115q2 6 3.5 8.5t7 5.5t13.5 2q0 -27 -11 -74t-12 -53q-1 -8 -10.5 -54t-11.5 -73q12 8 29 24t18 17q5 4 19.5 16.5t22.5 19.5q26 20 47 35q30 19 48 24zM-89 -227q0 1 6 29q-16 -15 -17 -16q-122 -169 -188 -287
q-46 -82 -64 -151q-5 -22 -5 -51q0 -27 26 -37q26 4 44 28q35 43 47 67q26 46 47 99q48 120 104 319zM48 358q-10 1 -17 8.5t-8 18.5q-2 12 3.5 25.5t16 24t22.5 14.5q21 5 33 -16q-2 -5 -9 -23t-11 -27q-2 -5 -3 -7q-9 -19 -27 -18z" />
    <glyph glyph-name="k" unicode="k" horiz-adv-x="316" 
d="M279 720q-85 -246 -234 -598q-4 -9 -25 -65q0 -1 2 -5q3 2 6 4.5t5 6t4 6t4 6.5t3 7q92 150 234 283q14 13 34 26q17 11 33 -1q15 -13 9 -32q-7 -21 -17 -35q-51 -71 -71 -94q-11 -13 -130 -142q-36 -39 -45 -55q1 -4 4.5 -11.5t6 -13.5t4.5 -11q37 -73 96 -166
q52 -81 78 -127q13 -23 31 -75q4 -14 3 -17.5t-10 -20.5q-12 6 -13 7q-15 15 -20 24q-12 23 -29.5 50t-30 45t-34.5 48.5t-32 45.5q-72 103 -99 168l-18 -18q-12 -20 -34.5 -58t-33.5 -56q-11 -19 -23 -32q-18 -21 -38 -10q-18 10 -15 34q3 25 9 42q44 126 60 165
q30 73 86 205.5t77 184.5q62 149 81 204q18 50 55.5 140t50.5 125q4 10 46 109q0 1 1 2q7 18 20 22q7 -15 7 -16q-1 -13 -7 -30q-74 -223 -91 -271z" />
    <glyph glyph-name="l" unicode="l" horiz-adv-x="287" 
d="M359 937v-4q-12 -20 -24 -46t-17.5 -40t-19 -50.5t-15.5 -43.5q-103 -276 -140 -378q-33 -89 -68 -201q-21 -67 -19 -119q1 -29 8 -50q12 -42 56 -38q19 1 42 9q7 3 15.5 6.5t18.5 8.5t16 7q1 1 30 13q9 -7 3 -15q-45 -56 -119 -71q-40 -8 -69.5 8t-44.5 53
q-12 30 -16 68q-7 63 13 140q24 96 66 201q84 212 165 410q11 27 50 106q14 27 33 39q11 7 19 4t17 -17z" />
    <glyph glyph-name="m" unicode="m" horiz-adv-x="584" 
d="M629 220q7 -7 0 -15q-62 -79 -136 -129q-18 -12 -35 -17q-21 -7 -38 2.5t-22 30.5q-2 6 -4 43v32q-26 -22 -27 -22q-7 -8 -25.5 -27.5t-28.5 -29.5q-17 -17 -36 -30q-13 -9 -29 -11q-16 -3 -28 5.5t-13 25.5q-1 20 6 42q5 15 16.5 43t13.5 33q0 1 9 33q-26 -19 -27 -20
q-15 -16 -42.5 -46t-36.5 -40q-57 -62 -73 -77q-17 -17 -43 -33q-24 -13 -45 3q-17 14 -12 39q5 21 12 37q43 89 90 183q2 3 5 6l6.5 6.5t4.5 5.5q23 -3 20 -23q-2 -13 -9 -30q0 -1 -36 -91q-1 -2 -14 -36q4 -2 7.5 -2t5 1t4.5 4.5l3 3.5q16 16 54.5 56.5t59.5 61.5t50 45
q12 9 28 13q8 3 15 1.5t13 -5t9.5 -10t4.5 -14.5q2 -17 -4 -35q-5 -16 -15.5 -44.5t-13.5 -40.5q-1 -2 -3.5 -8t-4 -10t-1.5 -10t2 -12q22 14 23 15q13 14 38 40.5t29 31.5q24 25 30 30q18 14 35 7.5t21 -28.5q1 -3 1 -29.5v-29.5t-0.5 -10t0 -11.5t2 -10t6.5 -10.5
q20 -2 45 17q20 13 104 77q1 1 29 23z" />
    <glyph glyph-name="n" unicode="n" horiz-adv-x="389" 
d="M471 218q5 -25 -10 -45q-25 -32 -40 -47q-59 -56 -134 -88q-30 -13 -56 -15q-33 -3 -52.5 16t-19.5 52q1 14 9 50q1 3 15 44q-20 -15 -20 -16q-12 -12 -35.5 -38t-36.5 -40q-29 -30 -46 -47q-13 -12 -32 -23q-24 -15 -44 -1q-23 15 -18 44q2 17 9 34q13 30 30 64
q28 57 66 133q1 1 14 20q18 0 17 -14q-2 -31 -6 -43q-3 -9 -44 -113q0 -1 -4.5 -10t-6 -15.5t-0.5 -14.5q24 21 25 22q15 16 34 36.5t38.5 41.5t33.5 37q22 23 47 47q12 12 22 17q18 9 33.5 0t15.5 -30q-1 -18 -9 -41q-6 -16 -17 -43t-15 -38q-9 -25 -14 -44v-29
q21 -4 23 -4q5 0 15 3q128 46 190 132q0 1 16 21z" />
    <glyph glyph-name="n" unicode="&#xf1;" horiz-adv-x="389" 
d="M471 218q5 -25 -10 -45q-25 -32 -40 -47q-59 -56 -134 -88q-30 -13 -56 -15q-33 -3 -52.5 16t-19.5 52q1 14 9 50q1 3 15 44q-20 -15 -20 -16q-12 -12 -35.5 -38t-36.5 -40q-29 -30 -46 -47q-13 -12 -32 -23q-24 -15 -44 -1q-23 15 -18 44q2 17 9 34q13 30 30 64
q28 57 66 133q1 1 14 20q18 0 17 -14q-2 -31 -6 -43q-3 -9 -44 -113q0 -1 -4.5 -10t-6 -15.5t-0.5 -14.5q24 21 25 22q15 16 34 36.5t38.5 41.5t33.5 37q22 23 47 47q12 12 22 17q18 9 33.5 0t15.5 -30q-1 -18 -9 -41q-6 -16 -17 -43t-15 -38q-9 -25 -14 -44v-29
q21 -4 23 -4q5 0 15 3q128 46 190 132q0 1 16 21z" />
    <glyph glyph-name="o" unicode="o" horiz-adv-x="419" 
d="M451 229q9 -5 4 -17q-14 -35 -47 -56q-44 -28 -95 -33q-4 -1 -67 -5q-1 -1 -9.5 -13t-13.5 -18q-50 -70 -117 -103q-41 -20 -72 -20q-34 1 -54 20.5t-19 52.5q1 26 11 51q11 28 32 59q44 67 112 131q30 30 57 33q1 1 21 10q16 7 17 8q42 13 66.5 -8.5t22.5 -54.5
q-1 -27 -12 -59q-3 -6 -7.5 -18.5t-7.5 -20.5q49 -7 101 11q13 5 26 13t28.5 20t22.5 17zM58 21q78 20 140 104q-23 14 -31.5 19t-18 15.5t-13 18.5t-13.5 30l-4 -1q-59 -65 -91 -140q-10 -23 -4 -40q14 -7 18.5 -8t16.5 2zM255 243q4 13 2 25q-1 2 -11 18q-44 -10 -58 -63
q-7 -24 14 -36q1 0 24 -10q18 22 29 66z" />
    <glyph glyph-name="o" unicode="&#xf8;" horiz-adv-x="419" 
d="M451 229q9 -5 4 -17q-14 -35 -47 -56q-44 -28 -95 -33q-4 -1 -67 -5q-1 -1 -9.5 -13t-13.5 -18q-50 -70 -117 -103q-41 -20 -72 -20q-34 1 -54 20.5t-19 52.5q1 26 11 51q11 28 32 59q44 67 112 131q30 30 57 33q1 1 21 10q16 7 17 8q42 13 66.5 -8.5t22.5 -54.5
q-1 -27 -12 -59q-3 -6 -7.5 -18.5t-7.5 -20.5q49 -7 101 11q13 5 26 13t28.5 20t22.5 17zM58 21q78 20 140 104q-23 14 -31.5 19t-18 15.5t-13 18.5t-13.5 30l-4 -1q-59 -65 -91 -140q-10 -23 -4 -40q14 -7 18.5 -8t16.5 2zM255 243q4 13 2 25q-1 2 -11 18q-44 -10 -58 -63
q-7 -24 14 -36q1 0 24 -10q18 22 29 66z" />
    <glyph glyph-name="o" unicode="&#xf5;" horiz-adv-x="419" 
d="M451 229q9 -5 4 -17q-14 -35 -47 -56q-44 -28 -95 -33q-4 -1 -67 -5q-1 -1 -9.5 -13t-13.5 -18q-50 -70 -117 -103q-41 -20 -72 -20q-34 1 -54 20.5t-19 52.5q1 26 11 51q11 28 32 59q44 67 112 131q30 30 57 33q1 1 21 10q16 7 17 8q42 13 66.5 -8.5t22.5 -54.5
q-1 -27 -12 -59q-3 -6 -7.5 -18.5t-7.5 -20.5q49 -7 101 11q13 5 26 13t28.5 20t22.5 17zM58 21q78 20 140 104q-23 14 -31.5 19t-18 15.5t-13 18.5t-13.5 30l-4 -1q-59 -65 -91 -140q-10 -23 -4 -40q14 -7 18.5 -8t16.5 2zM255 243q4 13 2 25q-1 2 -11 18q-44 -10 -58 -63
q-7 -24 14 -36q1 0 24 -10q18 22 29 66z" />
    <glyph glyph-name="o" unicode="&#xf4;" horiz-adv-x="419" 
d="M451 229q9 -5 4 -17q-14 -35 -47 -56q-44 -28 -95 -33q-4 -1 -67 -5q-1 -1 -9.5 -13t-13.5 -18q-50 -70 -117 -103q-41 -20 -72 -20q-34 1 -54 20.5t-19 52.5q1 26 11 51q11 28 32 59q44 67 112 131q30 30 57 33q1 1 21 10q16 7 17 8q42 13 66.5 -8.5t22.5 -54.5
q-1 -27 -12 -59q-3 -6 -7.5 -18.5t-7.5 -20.5q49 -7 101 11q13 5 26 13t28.5 20t22.5 17zM58 21q78 20 140 104q-23 14 -31.5 19t-18 15.5t-13 18.5t-13.5 30l-4 -1q-59 -65 -91 -140q-10 -23 -4 -40q14 -7 18.5 -8t16.5 2zM255 243q4 13 2 25q-1 2 -11 18q-44 -10 -58 -63
q-7 -24 14 -36q1 0 24 -10q18 22 29 66z" />
    <glyph glyph-name="o" unicode="&#xf3;" horiz-adv-x="419" 
d="M451 229q9 -5 4 -17q-14 -35 -47 -56q-44 -28 -95 -33q-4 -1 -67 -5q-1 -1 -9.5 -13t-13.5 -18q-50 -70 -117 -103q-41 -20 -72 -20q-34 1 -54 20.5t-19 52.5q1 26 11 51q11 28 32 59q44 67 112 131q30 30 57 33q1 1 21 10q16 7 17 8q42 13 66.5 -8.5t22.5 -54.5
q-1 -27 -12 -59q-3 -6 -7.5 -18.5t-7.5 -20.5q49 -7 101 11q13 5 26 13t28.5 20t22.5 17zM58 21q78 20 140 104q-23 14 -31.5 19t-18 15.5t-13 18.5t-13.5 30l-4 -1q-59 -65 -91 -140q-10 -23 -4 -40q14 -7 18.5 -8t16.5 2zM255 243q4 13 2 25q-1 2 -11 18q-44 -10 -58 -63
q-7 -24 14 -36q1 0 24 -10q18 22 29 66z" />
    <glyph glyph-name="o" unicode="&#xf2;" horiz-adv-x="419" 
d="M451 229q9 -5 4 -17q-14 -35 -47 -56q-44 -28 -95 -33q-4 -1 -67 -5q-1 -1 -9.5 -13t-13.5 -18q-50 -70 -117 -103q-41 -20 -72 -20q-34 1 -54 20.5t-19 52.5q1 26 11 51q11 28 32 59q44 67 112 131q30 30 57 33q1 1 21 10q16 7 17 8q42 13 66.5 -8.5t22.5 -54.5
q-1 -27 -12 -59q-3 -6 -7.5 -18.5t-7.5 -20.5q49 -7 101 11q13 5 26 13t28.5 20t22.5 17zM58 21q78 20 140 104q-23 14 -31.5 19t-18 15.5t-13 18.5t-13.5 30l-4 -1q-59 -65 -91 -140q-10 -23 -4 -40q14 -7 18.5 -8t16.5 2zM255 243q4 13 2 25q-1 2 -11 18q-44 -10 -58 -63
q-7 -24 14 -36q1 0 24 -10q18 22 29 66z" />
    <glyph glyph-name="p" unicode="p" horiz-adv-x="387" 
d="M433 113q7 -9 -3 -18q-54 -53 -133 -70q-12 -3 -27 0q-26 5 -39.5 23.5t-8.5 44.5q1 6 18 56q0 2 12 36q-9 5 -18 -6q-73 -88 -87 -106q-136 -184 -239 -377q-29 -56 -200 -373q-8 -16 -14 -23q-15 -18 -35 -10q-22 8 -20 30q1 14 8 34q61 189 129 328q115 239 246 503
q13 27 66 121q9 17 20 28l5 2.5t5.5 2t7.5 2t9 2.5q-5 -29 -5 -30q-10 -26 -29 -73q-14 -33 -55.5 -132t-63.5 -153q-5 -12 -2 -24q17 21 18 22q12 16 33.5 47t39 56t34.5 47q35 45 112 131q16 17 40 29q19 9 34.5 1.5t20.5 -27.5q5 -18 1 -34q-3 -14 -22 -79
q-1 -4 -4.5 -14t-5.5 -18t-1 -16q2 -1 6.5 -3t8 -2.5t6.5 -0.5q30 6 60 16q9 3 25.5 10t21.5 9q2 1 25 8z" />
    <glyph glyph-name="q" unicode="q" horiz-adv-x="365" 
d="M288 188q48 -3 34 -45q-4 -12 -15 -35q-6 -12 -14 -27l-16 -30t-14 -27q-84 -165 -147 -340.5t-106 -361.5q-17 -71 -10 -112q0 -1 -3 -19q-27 -5 -37 19q-8 21 -9 45q-3 45 11 109q79 359 196 606q5 9 10.5 19.5t11.5 22.5l10 20q1 1 10 24q-35 -19 -37 -20
q-22 -12 -41.5 -21.5t-42.5 -18t-46 -13.5q-21 -4 -34 -3q-21 2 -33 15.5t-11 34.5q0 16 8 34q5 15 17 31q68 97 178 162q34 21 66.5 21t48.5 -21q16 -22 3 -63q-16 35 -17 37q-11 18 -30 13q-25 -7 -36 -15q-108 -70 -172 -169q-3 -6 -6 -15l1 -7q48 0 109 34t156 114z" />
    <glyph glyph-name="r" unicode="r" horiz-adv-x="350" 
d="M344 203l14 -0.5t20 -5.5q-11 -15 -20.5 -20t-27.5 -7q-40 -2 -62 7q-3 2 -56 30q-61 -70 -66 -76q-13 -15 -38 -46.5t-38.5 -47.5t-33.5 -33q-17 -14 -37 -4q-18 9 -15 33q1 14 5 31q26 93 88 208q7 14 23 31q13 15 31 5q10 -12 4 -37q-19 -12 -28 -38
q-7 -18 -19.5 -49.5t-15.5 -38.5l-4 -23q30 35 31 36q103 116 130 145q11 13 26 23q19 13 36 -2t8 -36q-3 -6 -14 -23q-3 -4 -8 -11.5t-7 -11.5q-1 0 -3 -7q0 -15 17 -19q22 -6 60 -13z" />
    <glyph glyph-name="s" unicode="s" horiz-adv-x="322" 
d="M360 168q-1 -18 -1 -19q-21 -35 -34 -52q-20 -26 -65.5 -82.5t-68.5 -86.5q-15 -19 -42.5 -57.5t-41.5 -55.5q-18 -24 -15 -59q7 -72 6 -117q-2 -104 -64 -186q-35 -46 -82 -71q-31 -17 -60 -13q-22 3 -35.5 16t-16.5 34q-3 27 2 46q12 44 27 77q16 34 46 83q4 5 107 168
q0 1 15 25l-18 63q-26 92 -32 146q-11 104 72 172q36 30 73 44q24 8 43 4t25 -22q5 -13 -9 -29q-13 19 -14 22q-21 -4 -22 -4q-66 -29 -102 -88q-20 -32 -19 -67q2 -80 36 -180l7 -7q23 29 24 30q92 121 169 201q22 22 46 43q21 19 44 22zM41 -449q26 70 11 174
q-18 -23 -19 -24q-46 -72 -61 -96q-40 -65 -59 -101q-8 -16 -22 -59q-6 -18 9 -29q21 -3 53 18q59 40 88 117z" />
    <glyph glyph-name="t" unicode="t" horiz-adv-x="143" 
d="M535 667q2 0 3.5 -1.5t4.5 -5t5 -5.5q-20 -7 -21 -7q-39 -4 -70 -5q-26 -2 -55 -3.5t-63 -3t-55 -2.5q-12 -1 -19 -2q-24 -3 -33 -24l-4 -8t-4 -10q-13 -32 -51 -126t-64 -158.5t-50 -126.5q-10 -26 -54 -159q-6 -19 -17.5 -61t1.5 -62q-13 -18 -25 -4t-13 27q-3 26 3 47
q29 116 45 170q56 180 145 385q6 14 11 30.5t10 36t9 32.5q-10 3 -19 4t-23.5 -0.5t-16.5 -1.5q-5 -1 -38.5 -3t-51.5 -2q-20 0 -38 5q-10 3 -11.5 14t6.5 18q14 12 40 13q43 3 130 8q13 1 19 0q38 -4 57 37q11 26 89 188q7 16 12 25q4 7 10 12q10 11 25 5q16 -7 14 -22
q-3 -19 -10 -34q-20 -44 -75 -163q-1 -2 -16 -33q3 -9 8.5 -11t15.5 -2h47h47q64 -1 90 -2q17 -1 50 -9z" />
    <glyph glyph-name="u" unicode="u" horiz-adv-x="396" 
d="M402 101l32 16l-6 -22q-45 -61 -121 -63q-54 -2 -69 55q-1 1 -7 27q-18 -14 -19 -15q-8 -8 -20 -21t-22.5 -24t-20.5 -20q-31 -30 -68 -45q-42 -17 -67 3t-17 65q3 19 10 37q27 75 79 158q9 15 17 20q8 6 22 3q6 -1 10 -7.5t2 -14.5q-3 -11 -10 -29q-10 -24 -29 -69
t-27 -65q-9 -23 -7 -40l19 6q46 34 55 44q13 13 81 95q4 4 12 14.5t13 16.5q15 17 35 9q19 -7 19 -31q0 -6 -2 -27q0 -5 -1 -10t-1.5 -9.5t-1 -10t-1 -10t-1 -9.5t-1.5 -10q0 -2 1 -31q22 -22 55 -11q9 3 57 25z" />
    <glyph glyph-name="u" unicode="&#xfb;" horiz-adv-x="396" 
d="M402 101l32 16l-6 -22q-45 -61 -121 -63q-54 -2 -69 55q-1 1 -7 27q-18 -14 -19 -15q-8 -8 -20 -21t-22.5 -24t-20.5 -20q-31 -30 -68 -45q-42 -17 -67 3t-17 65q3 19 10 37q27 75 79 158q9 15 17 20q8 6 22 3q6 -1 10 -7.5t2 -14.5q-3 -11 -10 -29q-10 -24 -29 -69
t-27 -65q-9 -23 -7 -40l19 6q46 34 55 44q13 13 81 95q4 4 12 14.5t13 16.5q15 17 35 9q19 -7 19 -31q0 -6 -2 -27q0 -5 -1 -10t-1.5 -9.5t-1 -10t-1 -10t-1 -9.5t-1.5 -10q0 -2 1 -31q22 -22 55 -11q9 3 57 25z" />
    <glyph glyph-name="u" unicode="&#xfa;" horiz-adv-x="396" 
d="M402 101l32 16l-6 -22q-45 -61 -121 -63q-54 -2 -69 55q-1 1 -7 27q-18 -14 -19 -15q-8 -8 -20 -21t-22.5 -24t-20.5 -20q-31 -30 -68 -45q-42 -17 -67 3t-17 65q3 19 10 37q27 75 79 158q9 15 17 20q8 6 22 3q6 -1 10 -7.5t2 -14.5q-3 -11 -10 -29q-10 -24 -29 -69
t-27 -65q-9 -23 -7 -40l19 6q46 34 55 44q13 13 81 95q4 4 12 14.5t13 16.5q15 17 35 9q19 -7 19 -31q0 -6 -2 -27q0 -5 -1 -10t-1.5 -9.5t-1 -10t-1 -10t-1 -9.5t-1.5 -10q0 -2 1 -31q22 -22 55 -11q9 3 57 25z" />
    <glyph glyph-name="u" unicode="&#xf9;" horiz-adv-x="396" 
d="M402 101l32 16l-6 -22q-45 -61 -121 -63q-54 -2 -69 55q-1 1 -7 27q-18 -14 -19 -15q-8 -8 -20 -21t-22.5 -24t-20.5 -20q-31 -30 -68 -45q-42 -17 -67 3t-17 65q3 19 10 37q27 75 79 158q9 15 17 20q8 6 22 3q6 -1 10 -7.5t2 -14.5q-3 -11 -10 -29q-10 -24 -29 -69
t-27 -65q-9 -23 -7 -40l19 6q46 34 55 44q13 13 81 95q4 4 12 14.5t13 16.5q15 17 35 9q19 -7 19 -31q0 -6 -2 -27q0 -5 -1 -10t-1.5 -9.5t-1 -10t-1 -10t-1 -9.5t-1.5 -10q0 -2 1 -31q22 -22 55 -11q9 3 57 25z" />
    <glyph glyph-name="v" unicode="v" horiz-adv-x="359" 
d="M373 145l24 -2q-17 -13 -33 -18t-45 -5q-5 0 -81 6q-22 -29 -23 -30q-52 -63 -65.5 -77t-46.5 -36q-14 -9 -32 -14q-33 -8 -57 7t-29 49q-4 29 2 66q5 34 20 76q8 23 40 106q8 20 20 25q8 -4 11 -5q6 -15 -1 -40q-2 -9 -10 -40t-12 -48q-15 -60 -19 -88q-6 -39 10 -58
q23 2 25 3q9 3 24 13q25 16 55 52t45 68q-9 19 -9 20q-21 38 0 79q30 60 96 100q6 4 15 6q11 3 21 0t15.5 -11.5t5.5 -20.5q-1 -19 -10 -37q-6 -14 -48 -94q-2 -3 -18 -34q13 -17 47 -19q3 -1 31.5 0t31.5 1zM230 202q31 53 57 97v19q-48 -35 -68 -76q-5 -12 -7 -30l6 -18
q11 7 12 8z" />
    <glyph glyph-name="w" unicode="w" horiz-adv-x="606" 
d="M671 249q1 1 29 8q-7 -19 -21.5 -36t-25 -25t-31.5 -22q-45 -29 -98 -48q-39 -13 -113 -9q-24 -30 -25 -31q-51 -62 -125 -83q-22 -6 -43 -6q-50 0 -63 52q0 1 -4 23q-19 -11 -20 -12q-46 -40 -87 -59q-28 -13 -49 -12q-43 2 -45 40q-1 27 7 50q14 39 35 75q16 30 89 151
q0 1 10 11q13 0 20 -2.5t9 -8.5t-1 -16q-5 -18 -14 -37q-8 -15 -24.5 -46t-24.5 -48q-16 -32 -39 -81q0 -1 -6 -25q17 4 18 4q41 18 79 56q15 14 71 74l4.5 5t6 6.5t5.5 5t6.5 5t6.5 3t8 2.5q17 1 26 -13q8 -13 3 -30q-10 -28 -21 -63q-9 -28 -4 -45q20 0 21 1q78 21 123 93
q-12 54 23 105v27q15 12 31 3q16 -11 24 -24q15 -23 8 -57q0 -2 -8 -36q17 -9 54 -2q48 9 105 41q48 26 70 36z" />
    <glyph glyph-name="x" unicode="x" horiz-adv-x="313" 
d="M307 -131q1 -1 22 -25q-18 -9 -19 -9q-33 -3 -74 20q-59 33 -113 96q-2 3 -26 31l-12 -12q-79 -116 -120 -197q-2 -5 -35 -84q-19 -4 -23 18t2 39q18 53 32 79q13 24 102 176q1 3 20 34q-17 39 -24 54q-38 88 -7 184q6 16 15 32q8 14 23 11q11 -3 15 -17q3 -13 1 -30
q-14 -77 17 -150l8 -10q20 23 20 24q104 130 115 143q15 18 34 32q10 6 18 3.5t19 -14.5q-83 -116 -90 -126q-9 -12 -22.5 -30.5t-23 -31.5t-21.5 -30.5t-22 -32.5q52 -92 131 -150q37 -26 38 -27z" />
    <glyph glyph-name="y" unicode="y" horiz-adv-x="520" 
d="M511 169q25 11 48 4q-7 -19 -8 -19q-29 -30 -44 -41q-102 -74 -248 -216q-25 -24 -35 -59q-30 -113 -66 -234q-27 -90 -69 -177q-36 -76 -82 -121q-33 -33 -71 -43q-27 -6 -50 0t-40 24.5t-25 46.5q-9 35 0 78q11 51 44 110q77 137 164 233q59 65 153 162q25 25 32 55
q2 8 25 95q-1 1 -3 2.5t-3 1.5q-26 -22 -27 -23q-37 -34 -75 -52q-32 -15 -65 -11q-26 4 -40.5 23t-11.5 47q2 14 6 24q22 50 50 108q8 18 24 20q19 -2 16 -23q-2 -13 -9 -32q-5 -13 -15 -38.5t-13 -33.5q-11 -26 -5 -41q17 -12 48 0q40 16 68 48q21 24 66 83q5 7 14 21
t13 19q8 12 17 18q12 7 24 0t12 -22t-7 -36q-4 -14 -9.5 -31.5t-10 -31.5t-10.5 -31.5t-10 -31.5q0 -1 -5 -28q6 0 11.5 2.5t8.5 5t8 7t7 6.5q85 71 141 104q23 14 57 28zM162 -223l-1 13q-14 -11 -15 -11q-131 -144 -234 -321q-14 -23 -29 -68q-6 -17 -5 -40
q1 -21 14.5 -32.5t33.5 -8.5q28 4 45 21q37 36 48 54q26 39 47 87q50 114 96 306z" />
    <glyph glyph-name="y" unicode="&#xff;" horiz-adv-x="520" 
d="M511 169q25 11 48 4q-7 -19 -8 -19q-29 -30 -44 -41q-102 -74 -248 -216q-25 -24 -35 -59q-30 -113 -66 -234q-27 -90 -69 -177q-36 -76 -82 -121q-33 -33 -71 -43q-27 -6 -50 0t-40 24.5t-25 46.5q-9 35 0 78q11 51 44 110q77 137 164 233q59 65 153 162q25 25 32 55
q2 8 25 95q-1 1 -3 2.5t-3 1.5q-26 -22 -27 -23q-37 -34 -75 -52q-32 -15 -65 -11q-26 4 -40.5 23t-11.5 47q2 14 6 24q22 50 50 108q8 18 24 20q19 -2 16 -23q-2 -13 -9 -32q-5 -13 -15 -38.5t-13 -33.5q-11 -26 -5 -41q17 -12 48 0q40 16 68 48q21 24 66 83q5 7 14 21
t13 19q8 12 17 18q12 7 24 0t12 -22t-7 -36q-4 -14 -9.5 -31.5t-10 -31.5t-10.5 -31.5t-10 -31.5q0 -1 -5 -28q6 0 11.5 2.5t8.5 5t8 7t7 6.5q85 71 141 104q23 14 57 28zM162 -223l-1 13q-14 -11 -15 -11q-131 -144 -234 -321q-14 -23 -29 -68q-6 -17 -5 -40
q1 -21 14.5 -32.5t33.5 -8.5q28 4 45 21q37 36 48 54q26 39 47 87q50 114 96 306z" />
    <glyph glyph-name="y" unicode="&#xfd;" horiz-adv-x="520" 
d="M511 169q25 11 48 4q-7 -19 -8 -19q-29 -30 -44 -41q-102 -74 -248 -216q-25 -24 -35 -59q-30 -113 -66 -234q-27 -90 -69 -177q-36 -76 -82 -121q-33 -33 -71 -43q-27 -6 -50 0t-40 24.5t-25 46.5q-9 35 0 78q11 51 44 110q77 137 164 233q59 65 153 162q25 25 32 55
q2 8 25 95q-1 1 -3 2.5t-3 1.5q-26 -22 -27 -23q-37 -34 -75 -52q-32 -15 -65 -11q-26 4 -40.5 23t-11.5 47q2 14 6 24q22 50 50 108q8 18 24 20q19 -2 16 -23q-2 -13 -9 -32q-5 -13 -15 -38.5t-13 -33.5q-11 -26 -5 -41q17 -12 48 0q40 16 68 48q21 24 66 83q5 7 14 21
t13 19q8 12 17 18q12 7 24 0t12 -22t-7 -36q-4 -14 -9.5 -31.5t-10 -31.5t-10.5 -31.5t-10 -31.5q0 -1 -5 -28q6 0 11.5 2.5t8.5 5t8 7t7 6.5q85 71 141 104q23 14 57 28zM162 -223l-1 13q-14 -11 -15 -11q-131 -144 -234 -321q-14 -23 -29 -68q-6 -17 -5 -40
q1 -21 14.5 -32.5t33.5 -8.5q28 4 45 21q37 36 48 54q26 39 47 87q50 114 96 306z" />
    <glyph glyph-name="z" unicode="z" horiz-adv-x="328" 
d="M296 -79q4 -40 2 -50q-5 -26 -21 -71q-100 -278 -303 -453q-55 -48 -106 -74q-36 -19 -67 -17q-33 3 -50.5 26.5t-8.5 55.5q9 33 27 60q32 49 67 92q157 186 351 328q3 2 31 23q7 26 9.5 38.5t3 34t-5.5 38.5q-12 8 -35 1q-14 -4 -47 -13.5t-51 -14.5q-26 -7 -42 -7
q-19 0 -30 12t-10 31q2 26 12 44q23 41 59 93q7 10 15.5 21.5t15.5 21t16 21.5t16 21q18 25 21 37q-18 -1 -30.5 -6t-32.5 -20q-13 -9 -19 -14.5t-13 -17t-8 -25.5q-2 1 -7.5 1.5t-8.5 1.5t-5 3q-10 13 -8 25q3 16 14 31q47 61 133 86q27 8 43.5 -8t11.5 -44q-6 -27 -22 -54
q-14 -24 -58 -89q-8 -12 -25 -35.5t-24 -34.5q-1 -1 -10 -20q2 -1 5 -2t5 -1t4.5 0.5t4.5 1.5t4.5 2t3.5 1q7 1 37.5 8.5t46.5 10.5q65 10 83 -53q4 -13 6 -47zM174 -270l3 19q-32 -26 -33 -27q-13 -12 -33 -31.5t-35 -34t-32.5 -32l-34.5 -34.5l-32 -32q-68 -71 -127 -155
q-9 -13 -37 -60q-6 -12 0 -18q15 -2 39 14q57 40 79 58q140 121 243 333z" />
    <glyph glyph-name="braceleft" unicode="{" horiz-adv-x="427" 
d="M562 971q28 -2 42.5 -20.5t9.5 -46.5v-4q-14 -48 -50 -85q-10 3 -7 13q2 7 7 21t7 20q9 28 3 45q-8 12 -24 7q-23 -6 -39 -25q-34 -42 -44 -60q-24 -42 -71 -135q-3 -5 -35 -75q-63 -137 -128 -221q12 -34 -14 -89q-38 -81 -54 -117q-34 -75 -48 -137q-8 -34 0 -62
q13 -41 55 -41l39 4q1 0 7 1t8.5 1t7.5 -1t9 -4q-4 -12 -5 -13q-16 -24 -47 -33t-63.5 1t-51.5 37q-22 31 -25 69q-4 53 11 93q23 59 40 94q1 3 47 90q1 1 17 32q-14 3 -26 6q-18 17 -4 36q10 15 21 23q17 12 38 40q52 70 92 158q10 22 30.5 68.5t31.5 71.5q38 82 79 144
q28 44 58 68q35 29 76 26z" />
    <glyph glyph-name="verticalbar" unicode="|" horiz-adv-x="387" 
d="M335 1004q3 -26 0 -43q-19 -116 -32 -177q-10 -52 -22.5 -105t-28.5 -114t-27 -100.5t-31.5 -114t-28.5 -103.5q-3 -10 -77 -295q-8 -29 -14 -36q-22 1 -23 14q-2 35 1 55q7 50 18 96q39 169 69 289q16 64 35.5 140.5t34.5 136.5t36 142t35 138q2 8 6.5 27.5t6.5 29.5
q1 2 12 34q18 1 19 0q10 -5 11 -14z" />
    <glyph glyph-name="braceright" unicode="}" horiz-adv-x="636" 
d="M556 894q39 -26 27 -68q-9 -30 -23 -54q-9 -15 -55 -81q-9 -12 -26 -35.5t-30 -43t-24 -36.5q-13 -20 -54 -100q0 -2 -10 -33q14 3 33 6q25 -5 23 -31q-1 -17 -6 -31q-58 -188 -81 -258q-21 -65 -58 -124q-23 -37 -49 -60q-53 -50 -134 -42q-31 3 -49 22q-17 19 -10 40
q7 23 29 24q2 -3 6 -12.5t7 -14.5q10 -4 11 -4q67 -8 108 43q19 23 36 51q28 48 56 125q22 59 67 188q1 1 5 19l-14 7q-37 19 -32 56q2 18 11 42q23 65 60 118q4 6 84 114q49 66 57 79q19 27 20 49q-17 14 -19.5 15.5t-11.5 3.5q-72 18 -143 -5v-35q-20 12 -27 34
q0 24 23 34q27 12 49 16q44 8 93 0q30 -4 51 -18z" />
    <glyph glyph-name="asciitilde" unicode="~" horiz-adv-x="570" 
d="M507 422q19 -10 10 -26q-9 -18 -21 -27q-60 -50 -137 -73q-38 -12 -76 7l-21 12t-16 9q-39 21 -76 8q-41 -15 -58 -23q-22 -10 -32 -28q0 -3 1.5 -9t2.5 -9q-7 -6 -16.5 -4.5t-13.5 9.5q-7 14 -2 27q9 19 19 29q36 41 95 53t109 -12q9 -4 10 -5q41 -27 98 -4
q62 25 100 51q1 1 24 15z" />
    <glyph glyph-name="nonbreakingspace" unicode="&#xa0;" horiz-adv-x="316" 
 />
    <glyph glyph-name="exclamdown" unicode="&#xa1;" horiz-adv-x="361" 
d="M215 281q11 24 27 31q4 -19 4 -20q2 -34 -13 -80q-35 -106 -54 -159q-26 -69 -93 -248t-103 -277q-11 -30 -22.5 -65t-25 -77.5t-21.5 -65.5t-13 -32q-8 -16 -26 -15q-21 2 -25 21t0 35q20 82 32 120q17 51 51 136q92 229 251 625q15 38 31 71zM308 510q8 -32 -11 -51
q-53 -54 -121 -53l-13 5q4 25 30 42q50 33 69 61q4 5 12 10q10 6 20.5 1.5t13.5 -15.5z" />
    <glyph glyph-name="sterling" unicode="&#xa3;" horiz-adv-x="588" 
d="M538 122q3 -10 -9 -14q-26 -8 -42 -10q-146 -19 -197 -31q-23 -6 -78 -25q-23 -8 -38 -32q-15 -27 -45 -69q-11 -15 -26 -29q-8 -8 -20 -11q-15 -3 -24.5 5.5t-8.5 22.5q1 13 7 27q30 69 75 108q23 20 37 50q48 109 68 228q-5 7 -18 4q-33 -8 -53 -13l-8 2q-21 24 1 37
q12 8 36 15q4 1 53 13q6 22 7 23q37 155 39 164q10 38 33 83q11 24 33 43q21 19 44.5 17t42.5 -22q34 -38 20 -80q-6 -18 -20 -42q-10 -16 -25 -14q16 50 17 54q5 17 -9 37q-12 19 -29 16q-16 -6 -27 -32q-15 -33 -23 -58q-22 -77 -38 -171q1 -2 3.5 -3.5t4.5 -2.5t4.5 -1
t4 0.5t4.5 1t4 0.5q13 1 33.5 3.5t38.5 4.5t33 3q19 1 24 0t21 -8q-6 -14 -31 -20l-42.5 -8.5t-34.5 -7t-19 -3.5t-20 -3.5t-19 -4.5t-20 -6q-40 -170 -69 -239q2 -2 4 -3.5t4 -1.5h3.5t4 0.5t3.5 0.5q108 12 109 12q46 3 133 4q13 0 18 -1.5t26 -12.5z" />
    <glyph glyph-name="copyright" unicode="&#xa9;" horiz-adv-x="622" 
d="M484 692q131 -104 124 -252q-2 -46 -24 -98q-78 -183 -267 -267q-51 -22 -115 -22q-52 1 -96.5 37.5t-53.5 101.5q-8 60 12 123q58 187 205 323q32 29 62 41q3 1 58 16q15 28 56 16q23 -7 39 -19zM533 391q22 65 11 112q-22 97 -94 155l-1 1q-7 6 -13 0q12 -31 -5 -68
q-8 11 -8 12q-1 3 -2 7l-2 8t-2 7q-11 33 -43 23t-66 -41q-64 -62 -116 -152q-46 -81 -65 -159q-15 -62 -4 -104q8 -30 29.5 -48t51.5 -20q34 -2 66 7q58 18 117 62q107 81 146 198zM385 494q12 3 22.5 -4t12.5 -20q3 -20 -7 -41q-12 -25 -39 -38q-2 11 5.5 29t6.5 27l-8 1
q-67 -59 -81 -139q-5 -28 11 -49q7 1 14 1.5t15.5 1.5t13.5 1q9 -6 2 -16q-21 -29 -54 -24q-31 4 -44 39q-15 40 3 92q25 75 89 121q15 12 38 18z" />
    <glyph glyph-name="softhyphen" unicode="&#xad;" 
 />
    <glyph glyph-name="plusminus" unicode="&#xb1;" horiz-adv-x="459" 
d="M360 451q18 1 24 0t25 -9q-10 -18 -38 -26q-14 -4 -69 -15q-3 -1 -58 -13q-13 -26 -13 -27q-3 -8 -16.5 -40.5t-21.5 -49.5q-5 -12 -8.5 -15t-19.5 -13q-4 13 -4 14q3 22 9 42q1 6 23 78q-19 -5 -51 -13t-48 -11q-13 17 -13 18q-5 15 9 24q16 12 30 17q5 2 46 11
q6 2 13 3.5t15.5 3.5t14.5 3q14 42 14 44q12 36 23 67q2 5 4.5 7t15.5 9q21 -5 17 -26q-2 -13 -10 -46q-1 -4 -11 -43q15 -2 16 -2q12 1 39.5 3.5t42.5 4.5zM272 198q30 -2 40 -10q4 -12 -7 -17q-25 -10 -37 -11q-81 -9 -181 -28q-27 -6 -37 13q4 23 26 30q28 10 45 13
q87 13 151 10z" />
    <glyph glyph-name="questiondown" unicode="&#xbf;" horiz-adv-x="402" 
d="M341 -407q23 -59 -5 -109q-16 -28 -30 -41q-111 -105 -248 -70q-112 29 -134 143q-8 37 9 97q16 59 55 125q29 49 79 130q63 102 101 198q14 35 23 67q15 51 -2 84l-1 13q16 6 17 6q15 1 27 -13q17 -19 17 -43q0 -38 -5 -58q-24 -113 -96 -234q-13 -23 -40.5 -65.5
t-32.5 -50.5q-40 -62 -56 -90q-27 -47 -38 -89q-6 -22 -8 -42q-6 -68 54 -111q45 -32 104 -27q74 6 130 49q28 21 42 46q33 64 -13 124q24 -5 25 -6q16 -8 26 -33zM270 360q-52 -53 -120 -53q-1 1 -14 6q5 25 30 42q51 33 70 61q3 4 12 10q10 6 20 1.5t13 -16.5
q8 -31 -11 -51z" />
    <glyph glyph-name="Adieresis" unicode="&#xc4;" horiz-adv-x="978" 
d="M734 1161q-14 -2 -27.5 4t-19.5 17q-8 15 -1 28t24 15q15 2 26 -4.5t26 -25.5q-7 -22 -9 -23q-5 -8 -19 -11zM864 1161q-13 -2 -26.5 4t-19.5 17q-8 15 -1.5 28t23.5 15q15 2 26.5 -4.5t26.5 -25.5q-8 -22 -9 -23q-6 -8 -20 -11zM916 321q1 -1 12 -21q-12 -4 -52 -1
t-49 3h-47t-47 -1q-8 0 -30 -0.5t-37.5 -1.5t-30.5 -4q-11 -40 -12 -42q-93 -407 -110 -485q-45 -202 -58 -304q-1 -7 -6 -89q0 -4 0.5 -10t0.5 -10t-1.5 -9.5t-4.5 -9.5q-17 -5 -32 16q-14 20 -15 52q-2 45 1 74q10 109 39 247q21 106 64 307t48 226q0 1 4 32
q-20 3 -29.5 3t-28.5 -2t-28 -3q-7 0 -82 -7q-11 -16 -12 -17q-128 -245 -259 -496q-13 -25 -25 -49q-16 -35 -15 -63q-14 -3 -20 11q-8 18 0 42q15 53 25 74q42 95 93 203q24 49 70 144t51 106q1 2 15 33q-6 2 -13 3t-11.5 0.5t-12.5 -1.5t-11 -1q-9 -1 -30 -3t-33 -2
q-11 -1 -23 2q-13 3 -14 16q-2 14 11 19q18 8 29 10q21 4 120 22l19 3q12 20 13 20q78 164 308 595q6 11 15.5 28.5t17.5 32.5t15 29q10 18 21 28q16 14 34.5 8t23.5 -26q5 -16 1 -35q-14 -75 -30 -149q-12 -56 -26 -121.5t-25 -117t-26.5 -121.5t-25.5 -119q0 -1 -6 -33
q22 -4 23 -4q11 0 46.5 -0.5t54.5 -1.5q30 -1 90 -7q35 -4 53 -22zM566 351q10 27 54 229t45 228q-36 -43 -226 -415q-2 -3 -6 -10.5t-6.5 -12t-4.5 -11.5t-3 -15q28 -1 77.5 3t69.5 4z" />
    <glyph glyph-name="Odieresis" unicode="&#xd6;" horiz-adv-x="980" 
d="M927 785q9 -83 -13 -173q-99 -405 -364 -684q-105 -111 -208 -169q-74 -42 -120 -52q-36 -7 -62 -4q-78 11 -102 95q-12 46 -6 99q11 79 41 154q37 94 62 145q139 281 287 498q31 47 51 71q22 27 59 64q31 30 56 25q88 56 95 60q44 26 91 25q65 -2 103 -61q25 -40 30 -93
zM853 633q15 62 12 125q-1 35 -14 63q-23 53 -76 42q-33 -6 -76 -34q-55 -37 -116 -110q-116 -137 -205 -275q-55 -86 -88 -164q-34 -83 -16 -147q0 -1 -2 -24q-36 18 -55 73q-14 -22 -14 -23q-45 -113 -62 -160q-12 -31 -19 -71q-10 -56 -4 -90q5 -34 21 -48.5t46 -13.5
q29 1 65 16q101 44 183 115q317 277 420 726zM751 1035q-9 -1 -18 1t-16.5 7.5t-11.5 12.5q-8 15 -1.5 28t23.5 15q15 2 26.5 -4t26.5 -26q-8 -21 -9 -23q-6 -8 -20 -11zM882 1035q-14 -2 -27.5 4t-19.5 17q-8 15 -1 28t24 15q15 2 26 -4t26 -26q-7 -21 -8 -23
q-6 -8 -20 -11z" />
    <glyph glyph-name="multiply" unicode="&#xd7;" horiz-adv-x="427" 
d="M354 477q11 -4 14 -6.5t9 -11.5q0 -12 -17 -29l-111 -111q-1 0 -10 -11q0 -5 3 -9t4 -4.5t7 -4.5q11 -7 32 -20t31 -19q31 -20 37 -37q-4 -11 -16 -9q-32 5 -42 9q-15 6 -71 33q-1 0 -30 16q-26 -19 -62.5 -58t-56.5 -70q-3 0 -9.5 1t-9.5 1q-11 17 -1 36q11 21 22 36
q8 11 47 58q1 1 22 26q-1 7 -5 12t-10.5 11t-8.5 8q-26 29 -34 48q-8 18 -4 34q3 16 16 20q15 5 26 -5q0 -1 17 -22q27 -35 33 -43q1 -1 16 -13q29 27 30 27q82 78 85 80q26 24 47 27z" />
    <glyph glyph-name="Udieresis" unicode="&#xdc;" horiz-adv-x="962" 
d="M895 855q9 -3 14 -11.5t3 -19.5q-2 -8 -11 -33q-136 -371 -142 -386q-87 -248 -133 -430q-3 -13 -43 -195q-10 -44 -11 -46q0 -1 -9 -15q-8 3 -10 17q-6 42 4 113q18 123 72 309q7 25 21 71.5t17 55.5q0 3 9 33q-1 1 -3.5 1.5t-3.5 1.5q-20 -36 -21 -37
q-75 -140 -127 -221q-69 -108 -124 -166q-34 -34 -83 -77q-36 -31 -83 -44q-44 -12 -82.5 2.5t-63.5 52.5q-29 45 -34 115q-5 82 12 176q20 113 60 235q74 227 133 360q14 31 37 73q8 15 22 27q11 11 21.5 7.5t15.5 -19.5v-10q-3 -2 -10.5 -6t-9.5 -6q-13 -29 -14 -31
q-115 -308 -178 -571q-32 -130 -28 -217q1 -14 8 -66q1 -6 6 -18q14 -37 42 -49.5t65 1.5q27 11 60 36q62 46 126 128q76 98 138 209q157 284 234 465q12 28 33.5 80.5t26.5 64.5q7 19 13 28q12 19 31 12zM576 907q-13 -3 -26.5 3.5t-19.5 17.5q-8 15 -1 28t23 15
q11 1 19 -1t16 -9t18 -21q-8 -21 -9 -22q-6 -8 -20 -11zM707 907q-14 -3 -27.5 3.5t-19.5 17.5q-8 15 -1 28t24 15q15 2 26 -4.5t26 -26.5q-7 -21 -8 -22q-6 -8 -20 -11z" />
    <glyph glyph-name="germandbls" unicode="&#xdf;" horiz-adv-x="733" 
d="M579 358q68 -18 93.5 -80t-9.5 -122q-21 -37 -66 -71q-72 -56 -174 -88q-106 -34 -216 -30q-53 3 -86 29q-10 -18 -11 -19q-8 -26 -32 -99t-37 -113q-7 -21 -21.5 -60t-18.5 -50q-2 -5 -4.5 -15t-4.5 -15q0 -1 -11 -16q-21 -1 -21 16q-1 30 4 46q85 343 160 532
q91 233 136 325q46 95 84 150q35 53 73 86q41 35 83 43q44 8 78 -15.5t41 -68.5q7 -42 -4 -89q-10 -45 -32 -92q-34 -70 -92 -150q-1 -2 -20 -30q26 2 27 2q47 3 81 -6zM614 189q18 33 5 67t-48 45q-26 8 -54 7q-42 -2 -88 -17q-30 -9 -49 -30q-22 -23 -46 -42
q-15 -12 -31 -17q-19 -5 -30.5 7.5t-5.5 31.5q4 13 16 26q22 26 64 51q25 15 34 26q98 108 152 227q23 51 28 97q2 24 -1 43q-8 45 -52 31q-17 -5 -30 -16q-28 -23 -42 -41q-34 -43 -52 -74q-38 -68 -71 -135q-66 -135 -171 -408l-6 -18q2 -2 13.5 -11.5t17.5 -15.5
q36 -2 38 -1q151 2 294 70q51 24 84 57q21 22 31 40z" />
    <glyph glyph-name="adieresis" unicode="&#xe4;" horiz-adv-x="618" 
d="M525 130q3 2 11.5 8.5t16 10.5t15.5 6q-5 -16 -5 -17q-56 -94 -168 -117q-15 -3 -42 3q-39 8 -48 47q0 1 -3 17q-8 5 -18 -4q-73 -63 -77 -66q-22 -17 -66 -43q-14 -9 -33 -12q-27 -5 -44 10.5t-14 43.5q3 25 15 48q17 38 38 68q57 82 135 152q22 20 44 33q16 10 36 15
q14 3 26.5 -1t20.5 -14t10 -24q3 -22 -4 -54q0 -4 -17 -50q18 -22 11 -66q0 -3 -2 -11.5t-2 -12.5v-10.5t3 -11.5q7 -10 28 -10q32 1 60 17q16 9 73 45zM329 202q1 6 3.5 24t1.5 31t-7 26q-59 -24 -147 -138q-20 -26 -28 -36.5t-20.5 -33t-18.5 -44.5q17 0 38 17
q52 42 102 85q5 4 76 69zM266 368q-13 -3 -26.5 3t-20.5 18q-8 14 -1 27.5t24 15.5q15 2 26 -4.5t26 -26.5q-7 -21 -8 -23q-6 -7 -20 -10zM397 368q-14 -3 -27.5 3t-19.5 18q-8 14 -1 27.5t24 15.5q15 2 26 -4.5t26 -26.5q-7 -21 -8 -23q-6 -7 -20 -10z" />
    <glyph glyph-name="odieresis" unicode="&#xf6;" horiz-adv-x="596" 
d="M540 231q9 -5 4 -17q-14 -35 -47 -56q-44 -28 -95 -33q-4 -1 -67 -5q-3 -3 -7 -9t-8 -11.5t-8 -10.5q-50 -70 -117 -103q-41 -20 -72 -20q-34 0 -54 20t-19 53q1 26 11 51q11 28 32 59q44 67 112 131q30 30 57 33q1 1 21 10q16 7 17 8q42 13 66.5 -8.5t22.5 -54.5
q-1 -27 -12 -59q-2 -3 -15 -39q49 -7 100 11q14 5 27 13t28 20t23 17zM147 23q78 20 140 104q-40 24 -49.5 34.5t-26.5 48.5l-4 -1q-60 -65 -92 -140q-9 -23 -3 -40q14 -7 18.5 -8t16.5 2zM344 245q4 13 1 25q0 2 -10 18q-44 -10 -59 -63q-6 -24 15 -36q1 0 24 -10
q18 22 29 66zM257 368q-14 -3 -27.5 3t-19.5 18q-8 14 -1 27.5t24 15.5q15 2 26 -4.5t26 -26.5q-7 -21 -8 -23q-6 -7 -20 -10zM388 368q-9 -2 -18.5 0t-17 7.5t-11.5 13.5q-8 14 -1 27.5t24 15.5q15 2 26 -4.5t26 -26.5q-7 -21 -9 -23q-5 -7 -19 -10z" />
    <glyph glyph-name="divide" unicode="&#xf7;" horiz-adv-x="521" 
d="M448 352q17 -2 23 -17q-10 -17 -37 -21q-67 -10 -105 -15q-119 -15 -174 -21q-30 -3 -74 -2q-14 0 -22.5 7t-8.5 17q0 9 6.5 16.5t18.5 10.5q19 4 54 9q28 4 50 6q134 8 226 12q15 1 43 -2zM244 422q-11 -7 -22 -3.5t-18 14.5q-14 20 5 39q9 10 27 16.5t37 5.5
q11 -2 12 -2q12 -4 15 -17t-7 -21q-22 -17 -49 -32zM285 213q12 -4 15 -17t-7 -21q-22 -17 -49 -32q-11 -6 -22 -3t-18 14q-14 20 5 39q9 10 27 16.5t37 5.5q11 -2 12 -2z" />
    <glyph glyph-name="udieresis" unicode="&#xfc;" horiz-adv-x="540" 
d="M457 103q2 0 33 16q-6 -22 -6 -23q-46 -60 -121 -62q-55 -2 -70 55q0 1 -6 26q-19 -14 -20 -14q-5 -6 -27.5 -29.5t-34.5 -35.5q-31 -30 -69 -45q-41 -17 -66.5 3t-17.5 65q4 18 11 37q27 74 78 158q10 15 18 20q8 6 21 3q7 -1 10.5 -8t2.5 -14q-3 -12 -10 -29
q-10 -24 -29 -69t-27 -65q-10 -23 -7 -40q18 6 19 6q46 34 55 44q12 13 81 95q3 4 11 14.5t13 16.5q16 17 36 9q19 -8 19 -31q0 -6 -2 -27q-1 -7 -2.5 -19t-2.5 -21.5t-2 -18.5q0 -2 1 -31q21 -22 54 -11q10 3 57 25zM202 335q-14 -3 -27.5 3.5t-19.5 17.5q-8 15 -1 28
t23 15t27 -4.5t26 -25.5q-7 -22 -9 -23q-6 -8 -19 -11zM332 335q-13 -3 -26.5 3.5t-19.5 17.5q-8 15 -1.5 28t23.5 15q15 2 26.5 -4.5t25.5 -25.5q-7 -22 -8 -23q-6 -8 -20 -11z" />
    <glyph glyph-name="Euro" unicode="&#x20ac;" horiz-adv-x="478" 
d="M396 649q24 -53 29 -76t-1 -44q-2 1 -4 1.5t-3.5 2t-2.5 2t-2.5 3t-2 3t-1.5 4l-1 3.5q-2 3 -8.5 19t-10.5 24q-11 20 -25 40q-14 19 -32 20q-3 -2 -6 -5t-5.5 -7.5t-4 -7t-3.5 -8t-3 -7.5q-57 -125 -90 -228h25q4 0 30.5 1.5t40.5 1.5q17 1 19 -17q-5 -4 -11 -6
t-15.5 -3t-12.5 -2q-9 -2 -26.5 -4.5t-19.5 -3.5q-4 0 -41 -7q-15 -22 -21 -59q19 -2 20 -2q11 0 39 1t43 1q1 0 21 -3q6 -11 -4 -15q-23 -9 -37 -12q-9 -1 -19.5 -2.5t-22.5 -3l-20 -2.5q-2 -1 -35 -8q-13 -29 -32 -105q-6 -23 -6 -30q1 -19 6 -38t25 -23q22 -4 38 -3
q35 4 80 30q10 6 29 17.5t28 17.5q1 0 20 8q6 -5 0 -15q-56 -85 -158 -106q-51 -10 -87.5 17t-42.5 79q-2 23 3 51q1 7 16 76q-1 3 -3 4.5t-4 1t-5 -1t-4 -0.5q-22 -1 -25 20q4 12 13.5 18t24 9.5t22.5 8.5q3 7 9 24t8 23h-21q-3 0 -9.5 -1.5t-9.5 -2t-8.5 -0.5t-9.5 3
q-11 12 1 21t27 14q4 2 46 13q14 35 14 37q48 124 94 211q20 38 36 60t37 34q25 16 46 5.5t26 -39.5v-32z" />
    <glyph glyph-name="notequal" unicode="&#x2260;" horiz-adv-x="541" 
d="M364 403q-1 0 -61 -7q-9 -14 -21 -38.5t-20.5 -49.5t-10.5 -40q27 4 30 4.5t12.5 2t14.5 2.5q81 11 101 13q15 2 35 -2.5t14 -35.5q-101 -15 -237 -52q-11 -23 -12 -24q-82 -221 -111 -359q0 -1 -8 -24q-12 -6 -20 8q-12 19 -6 53q11 69 18 96q6 25 53 181q0 1 12 35
q-6 8 -19 4q-6 -2 -16 -5t-14 -5q-7 -2 -11 -2q-21 -3 -30 13q-5 8 -3 18.5t11 17.5q11 9 23 14q16 7 55 20q2 1 34 11q36 89 46 112q0 1 4 18h-28q-26 -5 -100 -19q-31 -6 -44 -1q-5 12 -5 13q0 9 6 13q17 13 30 18q40 15 98 24q2 0 68 10q8 9 13.5 20.5t12 27t10.5 23.5
t15.5 33t18.5 38q5 9 15 35t18 38q25 -1 25 -14q0 -22 -3 -34q-5 -15 -41 -115l-4.5 -13.5t-5.5 -16t-6 -15.5q32 -1 34 -1q15 -1 43.5 -0.5t42.5 0.5q23 0 41 -11q7 -4 10 -25q-7 -5 -30.5 -2.5t-30.5 1.5q-9 -1 -20.5 -2t-24 -2t-21.5 -2z" />
    <glyph glyph-name="lessequal" unicode="&#x2264;" horiz-adv-x="522" 
d="M409 152q-140 29 -256 54q-37 8 -60 17q-40 16 -42.5 44.5t29.5 49.5q15 11 65 43q12 8 32 21t37.5 24t32.5 21q57 38 87 77q1 1 14 11q15 -8 16 -9q6 -9 2 -18q-9 -22 -20 -33q-31 -34 -53 -51q-16 -12 -105 -76q-6 -4 -22.5 -15.5t-25.5 -17.5q-1 -1 -14 -16
q123 -33 131 -35q82 -22 139 -40q18 -5 43 -19q18 -11 19 -30q-13 -5 -14 -5q-23 0 -35 3zM450 62q5 0 7.5 -2t10.5 -10l4 -4q-13 -11 -14 -12q-19 -6 -38 -8q-127 -16 -249 -31q-16 -2 -39 -2q-9 1 -19 5q-12 6 -12 19q0 15 11 19q19 9 33 10q172 18 242 19q19 0 63 -3z
" />
    <glyph glyph-name="greaterequal" unicode="&#x2265;" horiz-adv-x="499" 
d="M185 168q-18 -14 -93 -79q-1 -1 -6.5 -5.5t-7.5 -6.5t-7 -5t-9.5 -4.5t-9.5 -2.5q-2 15 -2 16q5 24 24 44q40 44 57 59q13 11 28.5 24.5t28 23.5t29.5 24t28 23q32 27 60 52q1 0 17 19q-64 17 -67 19q-104 30 -139 41q-18 6 -45 23q-9 5 -9.5 12.5t6.5 25.5q27 -3 28 -4
q91 -23 227 -58q29 -8 38 -12q23 -10 29 -30t-8 -41q-12 -19 -31 -35q-13 -11 -59 -45q-12 -9 -34 -24.5t-40 -28.5t-33 -25zM416 108q1 1 6.5 2t7.5 1.5t6 0.5t7 -2t6 -5q2 -16 -14.5 -25.5t-31.5 -15.5q-105 -38 -238 -62q-4 -1 -9 -1.5t-11 -1t-9.5 -0.5h-11.5h-9
q-12 -1 -19 4q-10 6 -10 14q-1 11 7 17q5 3 22 7q202 45 301 67z" />
    </font>
</defs>
</svg>
