<?xml version="1.0" standalone="no"?>
<!DOCTYPE svg PUBLIC "-//W3C//DTD SVG 20010904//EN"
 "http://www.w3.org/TR/2001/REC-SVG-20010904/DTD/svg10.dtd">
<svg version="1.0" xmlns="http://www.w3.org/2000/svg"
 width="512.000000pt" height="512.000000pt" viewBox="0 0 512.000000 512.000000"
 preserveAspectRatio="xMidYMid meet">
<metadata>
Created by potrace 1.14, written by Peter Selinger 2001-2017
</metadata>
<g transform="translate(0.000000,512.000000) scale(0.100000,-0.100000)"
fill="#000000" stroke="none">
<path d="M3246 4358 c-14 -13 -48 -75 -77 -138 -28 -63 -65 -146 -83 -185 -18
-38 -46 -99 -62 -135 -37 -85 -208 -421 -474 -935 -37 -71 -107 -206 -155
-300 -205 -399 -246 -478 -257 -495 -6 -10 -28 -25 -48 -34 -55 -24 -87 -91
-96 -200 -7 -89 -55 -170 -158 -271 -123 -120 -195 -186 -291 -269 -44 -38
-93 -80 -109 -94 -74 -64 -292 -223 -346 -251 -119 -63 -270 -98 -318 -72 -47
25 -74 122 -72 266 0 50 3 105 5 122 47 348 212 840 427 1267 55 111 164 310
209 381 99 160 359 529 399 565 3 3 23 28 45 55 101 127 212 237 320 318 75
56 181 121 187 116 2 -1 13 3 24 9 39 20 103 23 140 6 74 -35 105 -176 77
-353 -14 -86 -47 -219 -64 -253 -5 -10 -13 -27 -19 -38 -5 -11 -10 -24 -10
-29 0 -22 -95 -173 -246 -392 -89 -130 -166 -248 -169 -262 -6 -22 -3 -29 19
-38 23 -11 28 -9 45 12 10 13 29 36 42 50 13 14 49 54 79 89 30 36 71 83 91
105 242 272 389 607 389 883 0 105 -2 123 -23 187 -23 69 -82 138 -142 168
-40 20 -65 25 -124 25 -90 0 -127 -12 -254 -84 -224 -127 -422 -323 -697 -689
-87 -117 -226 -317 -256 -370 -15 -27 -122 -206 -134 -225 -36 -56 -235 -469
-279 -580 -93 -231 -206 -593 -227 -724 -3 -21 -8 -48 -10 -60 -2 -11 -7 -36
-9 -53 -3 -18 -8 -50 -11 -70 -10 -73 -5 -249 10 -321 58 -279 285 -334 597
-144 166 101 392 283 600 485 22 20 41 37 42 37 2 0 -22 -64 -53 -142 -77
-195 -103 -293 -103 -387 0 -43 5 -87 13 -101 15 -29 45 -60 58 -60 5 0 15 33
22 73 7 39 14 82 17 95 8 47 53 169 96 262 86 184 265 545 279 564 14 18 18
17 80 -36 104 -89 260 -167 506 -254 180 -64 321 -100 547 -139 161 -27 341
-23 405 10 38 20 42 28 24 53 -28 41 -113 73 -255 97 -214 36 -496 119 -714
209 -132 55 -300 144 -343 183 l-37 33 26 22 c14 13 84 70 155 127 104 84 442
371 490 416 6 5 49 44 94 85 46 41 88 80 94 85 314 288 385 355 755 720 474
469 658 682 664 769 1 21 -3 41 -9 43 -5 2 -53 -45 -104 -104 -147 -167 -768
-784 -1105 -1098 -22 -20 -62 -58 -90 -84 -83 -77 -196 -182 -265 -245 -36
-32 -88 -79 -115 -105 -43 -39 -133 -120 -226 -203 -161 -142 -429 -364 -429
-355 0 2 25 52 55 112 30 59 55 117 55 128 0 11 24 65 54 121 29 55 93 178
141 271 48 94 118 226 155 295 96 177 357 695 415 820 26 58 61 132 77 164 15
33 32 74 37 90 5 17 32 96 60 175 56 157 60 189 33 214 -26 23 -56 21 -86 -5z"/>
</g>
</svg>
